<?xml version="1.0" encoding="utf-8"?>
<!-- Generator: Adobe Illustrator 22.1.0, SVG Export Plug-In . SVG Version: 6.00 Build 0)  -->
<svg version="1.1" id="Layer_1" xmlns="http://www.w3.org/2000/svg" xmlns:xlink="http://www.w3.org/1999/xlink" x="0px" y="0px"
	 viewBox="0 0 124.3 166.4" style="enable-background:new 0 0 124.3 166.4;" xml:space="preserve">
<style type="text/css">
	.st0{fill:#DDBFB1;}
	.st1{fill:#332724;}
	.st2{fill:#BC9C93;}
	.st3{fill:#3B2519;}
	.st4{fill:#FFFFFF;}
	.st5{fill:#51362A;}
	.st6{fill:#7F685E;}
	.st7{fill:#B7798B;}
	.st8{fill:#E9FAF0;}
	.st9{fill:#21B448;}
	.st10{fill:#3D2C26;}
</style>
<title>avatar-eva</title>
<path class="st0" d="M108.5,118.6L108.5,118.6c8.8-3.8,24.9-59.2,9.2-86.1c-3.4-6.2-8.3-10.8-15.4-12.8C72.7-15.6,16.3-1.5,3.9,47.2
	s9.6,71.4,9.6,71.4c4.8,13.5-1.1,36.8-2.8,42.8c-0.8,1.6-1.2,3.3-1.3,5h103c0-1.6-0.4-3.3-1.1-4.8
	C109.7,156,103.6,132.2,108.5,118.6z"/>
<path class="st1" d="M43.4,139.1l-0.2-0.2c2-0.5,4-0.9,5.9-1.2v-8.5l0,0c-18.6-3.8-27-17-30.8-31.3c-2.1,0.7-4.4,0.7-6.5-0.1
	c-0.9,6.9-0.4,14,1.6,20.7c4.8,13.5-1.1,36.8-2.8,42.8C14.6,152.9,27.5,143.5,43.4,139.1z"/>
<path class="st1" d="M111.6,97.1c-2.5,1.4-5.4,1.7-8.1,0.8c-3.8,14.3-12.3,27.5-30.8,31.3v4.8l0,0v3.7l0,0c2.1,0.4,4.2,0.8,6.3,1.3
	l-0.2,0.2c16,4.4,28.8,13.9,32.5,22.4c-1.6-5.6-7.7-29.4-2.8-43.1v-0.1l-0.1,0.1C109.9,112.2,111.7,104.2,111.6,97.1z"/>
<path class="st2" d="M72.7,134.1L72.7,134.1v-4.8c-7.8,1.5-15.8,1.5-23.5,0l0,0C56.3,133.3,64.6,135,72.7,134.1z"/>
<path class="st2" d="M11.9,97.8c2.1,0.8,4.4,0.8,6.5,0.1c-1.3-4.9-2.1-9.8-2.5-14.8C13.8,87.8,12.5,92.7,11.9,97.8z"/>
<path class="st2" d="M106.6,98.4c1.8,0,3.5-0.4,5-1.3c-0.1-6-1.4-11.4-5.5-14.7c-0.4,5.2-1.3,10.4-2.6,15.5
	C104.5,98.2,105.6,98.4,106.6,98.4z"/>
<path class="st3" d="M38.7,76.8c-3,0.3-5.2,2.9-4.9,5.9c0.2,2.6,2.3,4.7,4.9,4.9c3-0.3,5.2-2.9,4.9-5.9C43.4,79.1,41.4,77,38.7,76.8
	z M36.6,81.3c-0.8,0-1.5-0.7-1.5-1.5c0-0.8,0.7-1.5,1.5-1.5c0.8,0,1.5,0.7,1.5,1.5c0,0,0,0,0,0C38.1,80.6,37.4,81.3,36.6,81.3z"/>
<path class="st4" d="M36.6,78.3c-0.8,0-1.5,0.7-1.5,1.5c0,0.8,0.7,1.5,1.5,1.5c0.8,0,1.5-0.7,1.5-1.5c0,0,0,0,0,0
	C38.1,79,37.4,78.3,36.6,78.3z"/>
<path class="st5" d="M38.8,65.6c-8,0-9.4,4.4-8,5c2.3,0.9,6.1-3,14.7,0.4C47.1,71.5,48,65.6,38.8,65.6z"/>
<path class="st3" d="M88.7,82.2c-0.2-2.8-2.6-4.8-5.4-4.6c-2.8,0.2-4.8,2.6-4.6,5.4c0.2,2.6,2.4,4.6,5,4.6
	C86.6,87.5,88.8,85,88.7,82.2z M81.6,81.3c-0.8,0-1.5-0.7-1.5-1.5c0-0.8,0.7-1.5,1.5-1.5c0.8,0,1.5,0.7,1.5,1.5c0,0,0,0,0,0
	C83.1,80.6,82.4,81.3,81.6,81.3z"/>
<path class="st4" d="M81.6,78.3c-0.8,0-1.5,0.7-1.5,1.5c0,0.8,0.7,1.5,1.5,1.5c0.8,0,1.5-0.7,1.5-1.5c0,0,0,0,0,0
	C83.1,79,82.4,78.3,81.6,78.3z"/>
<path class="st5" d="M76.4,70.9c8.6-3.4,12.3,0.5,14.7-0.4c1.4-0.5,0-5-8-5C73.9,65.6,74.9,71.5,76.4,70.9z"/>
<path class="st6" d="M61,104.4c6.4,0,7.8-3.3,7.8-5.1s-2.9,1.9-7.8,1.9s-7.8-3.7-7.8-1.9S54.5,104.4,61,104.4z"/>
<path class="st6" d="M63.7,116.8c0-0.6-1,0.7-2.7,0.7s-2.7-1.3-2.7-0.7s0.5,1.8,2.7,1.8S63.7,117.4,63.7,116.8z"/>
<path class="st7" d="M73.3,110.6c0-0.8-4.7,2.4-12.4,2.4s-12.4-3.2-12.4-2.4s2.2,3.9,12.4,3.9S73.3,111.4,73.3,110.6z"/>
<path class="st7" d="M32.4,92.8c-3.7,0-6.7,3-6.7,6.7c0,3.7,3,6.7,6.7,6.7c3.7,0,6.7-3,6.7-6.7l0,0C39.1,95.8,36.1,92.8,32.4,92.8z"
	/>
<path class="st7" d="M83.6,99.5c0,3.7,3,6.7,6.7,6.7s6.7-3,6.7-6.7s-3-6.7-6.7-6.7c0,0,0,0,0,0C86.6,92.8,83.6,95.8,83.6,99.5
	C83.6,99.5,83.6,99.5,83.6,99.5z"/>
<path class="st8" d="M78.9,139.2c-1.4,1.4-8.1,7.9-18,7.9c-6.7-0.1-13-3-17.4-8c-16,4.3-28.8,13.8-32.7,22.2c-0.8,1.6-1.2,3.3-1.3,5
	h103c0-1.6-0.4-3.3-1.1-4.8C107.6,153.2,94.8,143.6,78.9,139.2z"/>
<path class="st9" d="M72.7,137.8L72.7,137.8c-0.1,0.1-3.6,4.3-11.8,4.3s-11.8-4.3-11.8-4.3l0.2-0.1h-0.2c-2,0.3-4,0.7-5.9,1.2
	l0.2,0.2c4.4,5,10.7,7.9,17.4,8c9.9,0,16.6-6.4,18-7.9l0.2-0.2C76.9,138.6,74.9,138.1,72.7,137.8z"/>
<path class="st0" d="M49.2,137.8c0,0,3.4,4.3,11.8,4.3s11.7-4.1,11.8-4.3l0,0v-3.7c-8.2,0.9-16.4-0.8-23.5-4.8L49.2,137.8l0.2-0.1
	L49.2,137.8z"/>
<path class="st10" d="M11.9,97.8c0.6-5.1,2-10,4-14.7c5.8-13.5,16.2-23,25.8-23.2C58.6,59.5,85.4,50,85.4,50s4.5,22.9,19,31.3
	c0.6,0.3,1.1,0.7,1.6,1.1c4,3.3,5.4,8.7,5.5,14.7c0.1,7.1-1.7,15.1-3.2,21.4l0.1-0.1c8.8-3.7,24.9-59.1,9.2-86.1
	c-3.4-6.2-8.3-10.8-15.4-12.8C72.7-15.6,16.3-1.5,3.9,47.2s9.6,71.4,9.6,71.4C11.5,111.8,11,104.8,11.9,97.8z"/>
</svg>
