<svg id="Layer_1" data-name="Layer 1" xmlns="http://www.w3.org/2000/svg" viewBox="0 0 124.3 166.37"><defs><style>.cls-1{fill:#3d2c26;}.cls-2{fill:#332724;}.cls-3{fill:#7f685e;}.cls-4{fill:#9e867a;}.cls-5{fill:#3b2519;}.cls-6{fill:#fff;}.cls-7{fill:#51362a;}.cls-8{fill:#a36654;}.cls-9{fill:#e9faf0;}.cls-10{fill:#21b448;}</style></defs><title>avatar-eva</title><path class="cls-1" d="M110.64,118.83l0-.06c8.76-3.69,24.86-59.14,9.2-86.07-3.37-6.2-8.34-10.81-15.38-12.78C74.85-15.36,18.41-1.25,6,47.43s9.64,71.4,9.64,71.4c4.84,13.49-1.07,36.78-2.75,42.82a11.93,11.93,0,0,0-1.25,5h103a11.71,11.71,0,0,0-1.13-4.76C111.87,156.24,105.74,132.5,110.64,118.83Z" transform="translate(-2.14 -0.28)"/><path class="cls-2" d="M45.57,139.42l-.18-.22c2-.47,4-.86,5.94-1.19v-8.47h0c-18.56-3.85-27-17-30.82-31.34A10,10,0,0,1,14,98.09a50.49,50.49,0,0,0,1.6,20.74c4.84,13.49-1.07,36.78-2.75,42.82C16.76,153.23,29.61,143.75,45.57,139.42Z" transform="translate(-2.14 -0.28)"/><path class="cls-2" d="M113.73,97.39a10.09,10.09,0,0,1-8.06.81c-3.81,14.33-12.26,27.49-30.82,31.34v4.84h0v3.67h0c2.1.35,4.2.78,6.26,1.29l-.16.17c16,4.41,28.75,13.95,32.51,22.37-1.59-5.65-7.72-29.39-2.82-43.06l0-.06-.11.06C112,112.48,113.79,104.51,113.73,97.39Z" transform="translate(-2.14 -0.28)"/><path class="cls-3" d="M74.85,134.38h0v-4.84a61.23,61.23,0,0,1-23.52,0h0A39.48,39.48,0,0,0,74.85,134.38Z" transform="translate(-2.14 -0.28)"/><path class="cls-3" d="M14,98.09a10,10,0,0,0,6.52.11A89.15,89.15,0,0,1,18,83.35,54.9,54.9,0,0,0,14,98.09Z" transform="translate(-2.14 -0.28)"/><path class="cls-3" d="M108.76,98.69a10.26,10.26,0,0,0,5-1.3c-.06-6-1.45-11.4-5.49-14.69a90,90,0,0,1-2.57,15.5A10.25,10.25,0,0,0,108.76,98.69Z" transform="translate(-2.14 -0.28)"/><path class="cls-4" d="M74.85,129.54c18.56-3.85,27-17,30.82-31.34a90,90,0,0,0,2.57-15.5,12.91,12.91,0,0,0-1.64-1.14c-14.55-8.41-19-31.31-19-31.31s-26.81,9.52-43.74,9.88c-9.57.2-20,9.76-25.81,23.22A89.15,89.15,0,0,0,20.51,98.2c3.81,14.33,12.26,27.49,30.82,31.34a61.23,61.23,0,0,0,23.52,0ZM81,82.47a5,5,0,1,1,4.94,5.41A5.19,5.19,0,0,1,81,82.47ZM99.19,99.75a6.71,6.71,0,1,1-6.7-6.7A6.7,6.7,0,0,1,99.19,99.75Zm-14-33.9c8,0,9.38,4.42,8,5-2.33.89-6.08-3-14.66.38C77,71.81,76.05,65.85,85.24,65.85ZM63.09,101.49c4.88,0,7.82-3.65,7.82-1.88s-1.41,5.11-7.82,5.11-7.82-3.35-7.82-5.11S58.21,101.49,63.09,101.49Zm-28.57,5a6.7,6.7,0,1,1,6.7-6.7A6.7,6.7,0,0,1,34.52,106.45Zm6.35-18.57a5.43,5.43,0,0,1,0-10.82,5.43,5.43,0,0,1,0,10.82Zm6.77-16.69c-8.58-3.42-12.33.51-14.67-.38-1.41-.54,0-5,8-5C50.14,65.85,49.2,71.81,47.64,71.19Zm3.06,39.67c0-.79,4.66,2.36,12.39,2.36s12.39-3.16,12.39-2.36-2.23,3.94-12.39,3.94S50.7,111.66,50.7,110.86Zm9.69,6.2c0-.61,1,.65,2.7.65s2.71-1.26,2.71-.65-.49,1.77-2.71,1.77S60.39,117.67,60.39,117.06Z" transform="translate(-2.14 -0.28)"/><path class="cls-5" d="M40.87,77.06a5.43,5.43,0,0,0,0,10.82,5.43,5.43,0,0,0,0-10.82Zm-2.15,4.5a1.48,1.48,0,1,1,1.47-1.48A1.48,1.48,0,0,1,38.72,81.56Z" transform="translate(-2.14 -0.28)"/><path class="cls-6" d="M38.72,78.6a1.48,1.48,0,1,0,1.47,1.48A1.48,1.48,0,0,0,38.72,78.6Z" transform="translate(-2.14 -0.28)"/><path class="cls-7" d="M40.94,65.85c-8,0-9.38,4.42-8,5,2.34.89,6.09-3,14.67.38C49.2,71.81,50.14,65.85,40.94,65.85Z" transform="translate(-2.14 -0.28)"/><path class="cls-5" d="M90.86,82.47a5,5,0,1,0-4.94,5.41A5.19,5.19,0,0,0,90.86,82.47Zm-7.09-.91a1.48,1.48,0,1,1,1.47-1.48A1.48,1.48,0,0,1,83.77,81.56Z" transform="translate(-2.14 -0.28)"/><path class="cls-6" d="M83.77,78.6a1.48,1.48,0,1,0,1.47,1.48A1.48,1.48,0,0,0,83.77,78.6Z" transform="translate(-2.14 -0.28)"/><path class="cls-7" d="M78.55,71.19c8.58-3.42,12.33.51,14.66-.38,1.41-.54,0-5-8-5C76.05,65.85,77,71.81,78.55,71.19Z" transform="translate(-2.14 -0.28)"/><path class="cls-3" d="M63.09,104.72c6.41,0,7.82-3.35,7.82-5.11s-2.94,1.88-7.82,1.88-7.82-3.65-7.82-1.88S56.68,104.72,63.09,104.72Z" transform="translate(-2.14 -0.28)"/><path class="cls-3" d="M65.8,117.06c0-.61-1,.65-2.71.65s-2.7-1.26-2.7-.65.48,1.77,2.7,1.77S65.8,117.67,65.8,117.06Z" transform="translate(-2.14 -0.28)"/><path class="cls-8" d="M75.48,110.86c0-.8-4.65,2.36-12.39,2.36s-12.39-3.15-12.39-2.36,2.23,3.94,12.39,3.94S75.48,111.66,75.48,110.86Z" transform="translate(-2.14 -0.28)"/><path class="cls-8" d="M34.52,93.05a6.7,6.7,0,1,0,6.7,6.7A6.7,6.7,0,0,0,34.52,93.05Z" transform="translate(-2.14 -0.28)"/><path class="cls-8" d="M85.78,99.75a6.71,6.71,0,1,0,6.71-6.7A6.7,6.7,0,0,0,85.78,99.75Z" transform="translate(-2.14 -0.28)"/><path class="cls-9" d="M81,139.52c-1.39,1.45-8.1,7.85-18,7.85a23.59,23.59,0,0,1-17.37-8c-16,4.33-28.81,13.81-32.73,22.23a11.93,11.93,0,0,0-1.25,5h103a11.71,11.71,0,0,0-1.13-4.76C109.7,153.47,96.91,143.93,81,139.52Z" transform="translate(-2.14 -0.28)"/><path class="cls-10" d="M74.85,138.06h0c-.1.12-3.55,4.25-11.75,4.25s-11.76-4.26-11.76-4.26l.18-.07-.18,0c-2,.33-4,.72-5.94,1.19l.18.22a23.59,23.59,0,0,0,17.37,8c9.91,0,16.62-6.4,18-7.85l.16-.17C79.05,138.84,77,138.41,74.85,138.06Z" transform="translate(-2.14 -0.28)"/><path class="cls-4" d="M51.33,138.05s3.44,4.26,11.76,4.26,11.65-4.13,11.75-4.25h0v-3.67a39.48,39.48,0,0,1-23.52-4.84V138l.18,0Z" transform="translate(-2.14 -0.28)"/><path class="cls-1" d="M14,98.09a54.9,54.9,0,0,1,4-14.74c5.77-13.46,16.24-23,25.81-23.22,16.93-.36,43.74-9.88,43.74-9.88s4.5,22.9,19,31.31a12.91,12.91,0,0,1,1.64,1.14c4,3.29,5.43,8.68,5.49,14.69.06,7.12-1.73,15.09-3.18,21.44l.11-.06c8.76-3.69,24.86-59.14,9.2-86.07-3.37-6.2-8.34-10.81-15.38-12.78C74.85-15.36,18.41-1.25,6,47.43s9.64,71.4,9.64,71.4A50.49,50.49,0,0,1,14,98.09Z" transform="translate(-2.14 -0.28)"/></svg>