<svg id="Layer_1" data-name="Layer 1" xmlns="http://www.w3.org/2000/svg" viewBox="0 0 128.26 166.37"><defs><style>.cls-1{fill:#3d2c26;}.cls-2{fill:#332724;}.cls-3{fill:#7f685e;}.cls-4{fill:#9e867a;}.cls-5{fill:#3b2519;}.cls-6{fill:#fff;}.cls-7{fill:#51362a;}.cls-8{fill:#a36654;}.cls-9{fill:#3b53a4;}.cls-10{fill:#294389;}</style></defs><title>avatar-eva</title><path class="cls-1" d="M50.5,56.54l0-.05C61.2,52,92.15-28,44.34-42.37,14.71-77.64-41.73-63.53-54.19-14.86s9.64,71.4,9.64,71.4c4.84,13.5-1.07,36.79-2.75,42.83a12,12,0,0,0-1.24,5h103a11.77,11.77,0,0,0-1.13-4.76C51.73,94,45.6,70.21,50.5,56.54Z" transform="translate(58 62)"/><path class="cls-2" d="M-14.56,77.13l-.18-.22c2-.47,3.95-.86,5.94-1.19V67.26h0c-18.56-3.85-27-17-30.82-31.34a10.14,10.14,0,0,1-3.09.49,10.17,10.17,0,0,1-3.44-.6,50.6,50.6,0,0,0,1.6,20.73c4.84,13.5-1.07,36.79-2.75,42.83C-43.38,90.95-30.53,81.47-14.56,77.13Z" transform="translate(58 62)"/><path class="cls-2" d="M53.59,35.1a10.27,10.27,0,0,1-5,1.3,10.14,10.14,0,0,1-3.09-.49C41.72,50.25,33.27,63.4,14.71,67.26V72.1h0v3.66h0c2.1.35,4.19.78,6.26,1.29l-.16.17c16,4.42,28.75,14,32.51,22.37C51.73,94,45.6,70.21,50.5,56.54l0-.05-.11.05C51.86,50.2,53.66,42.22,53.59,35.1Z" transform="translate(58 62)"/><path class="cls-3" d="M14.71,72.1h0V67.26A57.78,57.78,0,0,1,3,68.39,57.79,57.79,0,0,1-8.8,67.26h0A39.44,39.44,0,0,0,14.71,72.1Z" transform="translate(58 62)"/><path class="cls-3" d="M-42.14,21.06a55.06,55.06,0,0,0-4,14.75,10.17,10.17,0,0,0,3.44.6,10.14,10.14,0,0,0,3.09-.49A89.27,89.27,0,0,1-42.14,21.06Z" transform="translate(58 62)"/><path class="cls-3" d="M45.53,35.92a10.14,10.14,0,0,0,3.09.49,10.27,10.27,0,0,0,5-1.3c-.06-6-1.44-11.4-5.48-14.69A90.26,90.26,0,0,1,45.53,35.92Z" transform="translate(58 62)"/><path class="cls-4" d="M14.71,67.26c18.56-3.85,27-17,30.82-31.34a90.26,90.26,0,0,0,2.57-15.5,12.57,12.57,0,0,0-1.65-1.14c-14.55-8.41-19-31.3-19-31.3S.6-2.51-16.33-2.16c-9.57.2-20,9.76-25.81,23.22a89.27,89.27,0,0,0,2.51,14.85C-35.82,50.25-27.37,63.41-8.8,67.26A57.79,57.79,0,0,0,3,68.39,57.78,57.78,0,0,0,14.71,67.26ZM3,56.54C.73,56.54.25,55.39.25,54.77s1,.65,2.71.65,2.7-1.26,2.7-.65S5.17,56.54,3,56.54ZM20.84,20.18a5.19,5.19,0,0,1,4.94-5.41,5.19,5.19,0,0,1,4.94,5.41,5.19,5.19,0,0,1-4.94,5.41A5.19,5.19,0,0,1,20.84,20.18ZM3,39.21c4.88,0,7.82-3.65,7.82-1.88S9.36,42.44,3,42.44s-7.82-3.35-7.82-5.11S-1.93,39.21,3,39.21Zm29.4,5a6.7,6.7,0,1,1,6.7-6.7A6.7,6.7,0,0,1,32.35,44.17ZM25.11,3.57c8,0,9.38,4.41,8,5-2.34.9-6.09-3-14.67.38C16.84,9.53,15.91,3.57,25.11,3.57Zm-44.31,0c9.2,0,8.26,6,6.7,5.34-8.58-3.42-12.33.51-14.67-.38C-28.58,8-27.17,3.57-19.2,3.57Zm-6.42,40.6a6.7,6.7,0,0,1-6.7-6.7,6.7,6.7,0,0,1,6.7-6.7,6.7,6.7,0,0,1,6.7,6.7A6.7,6.7,0,0,1-25.62,44.17Zm6.35-18.58a5.19,5.19,0,0,1-4.94-5.41,5.19,5.19,0,0,1,4.94-5.41,5.19,5.19,0,0,1,4.94,5.41A5.19,5.19,0,0,1-19.27,25.59Zm9.83,23c0-.8,4.66,2.35,12.39,2.35s12.39-3.15,12.39-2.35S13.11,52.52,3,52.52-9.44,49.38-9.44,48.58Z" transform="translate(58 62)"/><path class="cls-5" d="M-19.27,14.78a5.19,5.19,0,0,0-4.94,5.41,5.19,5.19,0,0,0,4.94,5.41,5.19,5.19,0,0,0,4.94-5.41A5.19,5.19,0,0,0-19.27,14.78Zm-2.15,4.5A1.47,1.47,0,0,1-22.9,17.8a1.48,1.48,0,0,1,1.48-1.48,1.48,1.48,0,0,1,1.48,1.48A1.48,1.48,0,0,1-21.42,19.27Z" transform="translate(58 62)"/><circle class="cls-6" cx="36.58" cy="79.8" r="1.48"/><path class="cls-7" d="M-27.17,8.52c2.34.9,6.09-3,14.67.38,1.56.63,2.5-5.34-6.7-5.34C-27.17,3.57-28.58,8-27.17,8.52Z" transform="translate(58 62)"/><path class="cls-5" d="M30.72,20.18a5.19,5.19,0,0,0-4.94-5.41,5.19,5.19,0,0,0-4.94,5.41,5.19,5.19,0,0,0,4.94,5.41A5.19,5.19,0,0,0,30.72,20.18Zm-7.09-.91a1.48,1.48,0,1,1,1.48-1.48A1.48,1.48,0,0,1,23.63,19.27Z" transform="translate(58 62)"/><circle class="cls-6" cx="81.63" cy="79.8" r="1.48"/><path class="cls-7" d="M18.41,8.91c8.58-3.42,12.33.51,14.67-.38,1.41-.54,0-5-8-5C15.91,3.57,16.84,9.53,18.41,8.91Z" transform="translate(58 62)"/><path class="cls-3" d="M3,42.44c6.41,0,7.82-3.35,7.82-5.11S7.83,39.21,3,39.21s-7.82-3.65-7.82-1.88S-3.46,42.44,3,42.44Z" transform="translate(58 62)"/><path class="cls-3" d="M3,55.43c-1.69,0-2.71-1.26-2.71-.65S.73,56.54,3,56.54s2.7-1.16,2.7-1.77S4.64,55.43,3,55.43Z" transform="translate(58 62)"/><path class="cls-8" d="M15.34,48.58c0-.8-4.66,2.35-12.39,2.35S-9.44,47.78-9.44,48.58-7.21,52.52,3,52.52,15.34,49.38,15.34,48.58Z" transform="translate(58 62)"/><circle class="cls-8" cx="32.38" cy="99.47" r="6.7"/><circle class="cls-8" cx="90.35" cy="99.47" r="6.7"/><path class="cls-9" d="M20.81,77.23c-1.39,1.45-8.1,7.86-18,7.86a23.55,23.55,0,0,1-17.37-8c-16,4.33-28.82,13.81-32.74,22.23a12,12,0,0,0-1.24,5h103a11.77,11.77,0,0,0-1.13-4.76C49.56,91.19,36.77,81.65,20.81,77.23Z" transform="translate(58 62)"/><path class="cls-10" d="M14.71,75.78h0C14.6,75.9,11.15,80,3,80S-8.8,75.77-8.8,75.77l.18-.06-.18,0c-2,.33-4,.72-5.94,1.19l.18.22a23.55,23.55,0,0,0,17.37,8c9.91,0,16.62-6.41,18-7.86l.16-.17C18.91,76.56,16.81,76.13,14.71,75.78Z" transform="translate(58 62)"/><path class="cls-4" d="M-8.8,75.77S-5.37,80,3,80,14.6,75.9,14.7,75.78h0V72.1A39.44,39.44,0,0,1-8.8,67.26v8.47l.18,0Z" transform="translate(58 62)"/><path class="cls-1" d="M-46.15,35.81a55.06,55.06,0,0,1,4-14.75C-36.37,7.61-25.9-2-16.33-2.16.6-2.51,27.41-12,27.41-12s4.5,22.9,19,31.3a12.57,12.57,0,0,1,1.65,1.14c4,3.29,5.43,8.68,5.48,14.69.07,7.12-1.73,15.09-3.17,21.44l.11-.05C61.2,52,92.15-28,44.34-42.37,14.71-77.64-41.73-63.53-54.19-14.86s9.64,71.4,9.64,71.4A50.6,50.6,0,0,1-46.15,35.81Z" transform="translate(58 62)"/></svg>