<svg id="Layer_1" data-name="Layer 1" xmlns="http://www.w3.org/2000/svg" viewBox="0 0 123.48 145.08"><defs><style>.cls-1{fill:#97b0db;}.cls-2{fill:#7f97cc;}</style></defs><title>avatar-blank</title><path class="cls-1" d="M-16.25,87c0-.14,0-.27,0-.41V-38.51a4.82,4.82,0,0,1,4.81-4.81H92a4.79,4.79,0,0,1,1.37.22l3.48-4.13A10,10,0,0,0,92-48.5H-11.48a10,10,0,0,0-10,10V86.58a9.94,9.94,0,0,0,1.35,5L-16.25,87Z" transform="translate(21.47 48.5)"/><path class="cls-1" d="M36.43,28.9C46.07,17.5,55.88,5.88,65.06-5c.06,1.32.08,2.66.08,4,0-16.69-3.65-30.22-24.87-30.22S15.39-17.65,15.39-1C15.39,14.15,24.51,26.66,36.43,28.9Z" transform="translate(21.47 48.5)"/><path class="cls-1" d="M17.3,26.33c-19,6.56-22.89,20.3-22.89,38.81,0,.8,0,1.6.07,2.39,2.25,1,4.57,1.94,6.94,2.81,8.44-10,18.33-21.69,28.64-33.9A23.5,23.5,0,0,1,17.3,26.33Z" transform="translate(21.47 48.5)"/><path class="cls-2" d="M38.14,29.14l.39,0c.57,0,1.15.08,1.74.08C54,29.26,65.14,15.73,65.14-1c0-1.37,0-2.71-.08-4C55.88,5.88,46.07,17.5,36.43,28.9h0C37,29,37.57,29.08,38.14,29.14Z" transform="translate(21.47 48.5)"/><path class="cls-2" d="M5.86,71.86l.07,0c3,.93,6,1.75,9.11,2.44l.29.06q2.24.5,4.53.9l.46.08c3,.52,6.1.93,9.23,1.21l.73.07c1.48.12,3,.22,4.47.29l.84,0c1.55.06,3.11.1,4.68.1a115.93,115.93,0,0,0,27-3.14,105.5,105.5,0,0,0,18.8-6.39c0-.79.07-1.59.07-2.39,0-18.51-3.89-32.25-22.89-38.81C58,34.67,49.67,38,40.27,38c-.81,0-1.6,0-2.39-.08l-.52,0a31.23,31.23,0,0,1-4.68-.7l-.33-.08c-.77-.19-1.54-.4-2.29-.65C19.75,48.65,9.86,60.36,1.42,70.34h0l.39.14C3.14,71,4.49,71.42,5.86,71.86Z" transform="translate(21.47 48.5)"/><path class="cls-2" d="M101.92-39.75c0-.12,0-.23,0-.35-.05-.31-.12-.61-.19-.91,0-.1-.05-.2-.08-.3a11,11,0,0,0-.4-1.14.31.31,0,0,1,0-.1c-.15-.33-.32-.65-.5-1l-.15-.24c-.19-.3-.38-.58-.59-.85l-.1-.13a10.44,10.44,0,0,0-.83-.92l-.07-.06a10,10,0,0,0-.86-.73l-.17-.13a9.23,9.23,0,0,0-.84-.54l-.17-.12h0L93.38-43.1a4.93,4.93,0,0,1,2.35,1.57l.15.19a3.42,3.42,0,0,1,.26.4c.07.12.14.24.2.36s.11.24.16.36.11.35.16.52.06.2.08.3a5.27,5.27,0,0,1,.09.89V86.58A4.81,4.81,0,0,1,92,91.39H-11.48a4.83,4.83,0,0,1-.94-.09l-.38-.11a3.52,3.52,0,0,1-.49-.16,4.52,4.52,0,0,1-.49-.25h0a2.69,2.69,0,0,1-.29-.16,4.44,4.44,0,0,1-.55-.42l-.13-.11a4.44,4.44,0,0,1-.54-.6l0,0A4.8,4.8,0,0,1-16.25,87h0l-3.87,4.58h0a.83.83,0,0,0,.08.12,8.23,8.23,0,0,0,.62.92l0,0a10.17,10.17,0,0,0,1.76,1.77l.1.08a9.31,9.31,0,0,0,.89.61l.18.1a10.1,10.1,0,0,0,2.21,1l.3.07a8.43,8.43,0,0,0,.9.19l.34,0a9.89,9.89,0,0,0,1.23.09H92a10,10,0,0,0,10-10V-38.51A10.19,10.19,0,0,0,101.92-39.75Z" transform="translate(21.47 48.5)"/></svg>