<svg id="Layer_1" data-name="Layer 1" xmlns="http://www.w3.org/2000/svg" viewBox="0 0 114.28 157.32"><defs><style>.cls-1{fill:#705760;}.cls-2{fill:#56474d;}.cls-3{fill:#fff;}.cls-4{fill:#332b26;}.cls-5{fill:#843c4d;}.cls-6{fill:#d58e64;}.cls-7{fill:#f7931e;}.cls-8{fill:#bf805a;}.cls-9{fill:#744a25;}.cls-10{fill:#573514;}</style></defs><title>avatar-soban</title><path class="cls-1" d="M118.21,159.31a2.33,2.33,0,0,0,0-.28c0-.3-.11-.6-.19-.91a.57.57,0,0,1,0-.14c-.1-.35-.23-.7-.37-1.06l-.12-.27c-.13-.29-.27-.59-.42-.88l-.12-.24c-.2-.35-.41-.71-.64-1.07l-.18-.27c-.2-.29-.4-.58-.62-.87a3.15,3.15,0,0,0-.22-.29c-.28-.36-.57-.73-.88-1.09l-.21-.23c-.26-.3-.54-.6-.82-.89l-.32-.33c-.35-.36-.71-.72-1.1-1.08l-.19-.17c-.34-.31-.68-.62-1-.93l-.42-.36-1.08-.88-.28-.21c-.43-.35-.89-.69-1.35-1l-.52-.38-1.09-.75-.46-.32c-.49-.33-1-.65-1.5-1l-.59-.36-1.13-.69-.61-.35c-.53-.31-1.07-.61-1.62-.91l-.62-.33c-.4-.22-.81-.43-1.22-.64l-.71-.36c-.57-.29-1.15-.57-1.74-.85l-.57-.26L93.78,138l-.74-.32-1.6-.68-.6-.24-.18-.94c-1.59-.82-6.18-2.58-6.18-2.58v1.25c-1.76-.55-3.56-1.07-5.37-1.52h0l-.1,0-.23-.06-2.17-.5L76,132.3,74.2,132l-.81-.14-.49-.09v-7.65c15.5-3.26,21.32-12.54,23.31-15.57a50.59,50.59,0,0,0,7.51-16.63,10.25,10.25,0,0,0,3.09.49c6.34,0,11.47-5.86,11.47-13.09a13.27,13.27,0,0,0-6.92-12,161.45,161.45,0,0,0-.21-21C109.26,18.05,101.74,3,61.45,3S13.64,18.05,11.76,46.27A161.86,161.86,0,0,0,11.52,67C7.14,68.83,4,73.63,4,79.27,4,86.5,9.14,92.36,15.48,92.36a10.18,10.18,0,0,0,3.08-.49,50.75,50.75,0,0,0,7.52,16.64c2,3,7.82,12.3,23.3,15.56v7.66c-.39.06-.79.15-1.18.22-.8.15-1.59.3-2.38.47h0l-2,.45h0q-3,.74-6,1.66v-1.25s-4.58,1.76-6.17,2.58l-.18.94-.76.31-1.4.59-.84.36-1.23.56-.83.39c-.52.24-1,.5-1.55.75l-.8.41c-.37.18-.73.38-1.09.57l-.72.38-1.57.88-.69.41c-.35.2-.69.41-1,.62l-.66.41c-.5.31-1,.62-1.45.94l-.54.36-1,.7c-.2.14-.39.27-.57.41-.44.32-.87.64-1.28,1l-.38.3c-.35.28-.69.55-1,.83l-.46.39c-.34.29-.67.58-1,.88l-.23.21c-.38.35-.74.71-1.09,1.06l-.34.35-.79.86c-.08.09-.16.17-.23.26-.31.36-.6.71-.87,1.07l-.23.3c-.21.29-.42.58-.61.87-.06.09-.13.18-.18.27-.23.36-.45.72-.64,1.07l-.12.24a8.78,8.78,0,0,0-.42.88l-.12.28a11,11,0,0,0-.37,1,.83.83,0,0,0,0,.15c-.08.3-.15.6-.2.9a2.36,2.36,0,0,0,0,.28,7,7,0,0,0-.08,1H118.28A8.72,8.72,0,0,0,118.21,159.31ZM50.65,138.37c-.39-.21-.77-.42-1.12-.64C49.88,138,50.26,138.16,50.65,138.37Zm-1.26-.72c-.36-.23-.71-.45-1-.68C48.68,137.2,49,137.42,49.39,137.65Zm-1.13-.74c-.33-.23-.65-.47-.95-.7C47.61,136.44,47.93,136.68,48.26,136.91ZM43.88,133c0,.05.1.12.16.2A1.72,1.72,0,0,1,43.88,133Zm.22.27.29.32Zm.37.4a6,6,0,0,0,.44.46A6,6,0,0,1,44.47,133.64Zm.5.53.59.57Zm2.29,2-.87-.7Zm-.9-.74c-.27-.22-.52-.44-.74-.65C45.84,135,46.09,135.22,46.36,135.44ZM59.13,141q1,.09,2,.09Q60.11,141,59.13,141Zm-8.31-2.48c.38.2.79.39,1.19.57C51.61,138.86,51.2,138.67,50.82,138.47Zm1.43.69c.4.17.82.33,1.25.49C53.07,139.49,52.65,139.33,52.25,139.16Zm1.54.61c.42.15.86.28,1.3.41C54.65,140.05,54.21,139.92,53.79,139.77Zm1.67.52c.44.12.89.21,1.36.31C56.35,140.5,55.9,140.41,55.46,140.29Zm1.78.4c.46.08.94.14,1.42.19C58.18,140.83,57.7,140.77,57.24,140.69Z" transform="translate(-4 -3)"/><polygon class="cls-1" points="45.38 128.72 45.38 128.73 45.39 128.73 45.38 128.72"/><path class="cls-1" d="M72.9,131.71h0v-7.65h0v4a40.19,40.19,0,0,1-21-3.53q-1.27-.19-2.49-.45v7.64C60.7,127.27,72.9,131.71,72.9,131.71Z" transform="translate(-4 -3)"/><path class="cls-2" d="M51.87,124.52a40.19,40.19,0,0,0,21,3.53v-4a57.07,57.07,0,0,1-11.76,1.15A58.3,58.3,0,0,1,51.87,124.52Z" transform="translate(-4 -3)"/><path class="cls-2" d="M16.94,84.17c-2,0-4.63-4.72-5.42-17.18C7.14,68.83,4,73.63,4,79.27,4,86.5,9.14,92.36,15.48,92.36a10.18,10.18,0,0,0,3.08-.49c-.67-2.55-1.2-5.13-1.62-7.7Z" transform="translate(-4 -3)"/><path class="cls-2" d="M106,84.17c-.2,0-.37-.19-.53-.5a80.7,80.7,0,0,1-1.71,8.2,10.25,10.25,0,0,0,3.09.49c6.34,0,11.47-5.86,11.47-13.09a13.27,13.27,0,0,0-6.92-12C110.55,79.52,107.91,84.19,106,84.17Z" transform="translate(-4 -3)"/><path class="cls-1" d="M49.38,118c5.18,0,4.94-3.7,11.76-3.7S67.73,118,72.9,118c11.77,0,25.11-12.23,23.33-9.52l0,0a50.59,50.59,0,0,0,7.51-16.63,80.7,80.7,0,0,0,1.71-8.2c-2.09-4-1.05-32.35-4.63-38.81-7.06-12.7-19.67-3.29-39.35-3.29S29.16,32.16,22.1,44.86c-3.86,7-2.35,39.25-5.16,39.31.42,2.57.95,5.15,1.62,7.7a50.75,50.75,0,0,0,7.52,16.64l0,0C24.27,105.76,37.61,118,49.38,118ZM38.92,81.54a5.43,5.43,0,0,1,0-10.81,5.43,5.43,0,0,1,0,10.81Zm22.22,31c-2.21,0-2.7-1.16-2.7-1.77s1,.65,2.7.65,2.71-1.27,2.71-.65S63.36,112.5,61.14,112.5ZM84,81.54a5.43,5.43,0,1,1,4.94-5.41A5.19,5.19,0,0,1,84,81.54ZM83.3,56.26c8,0,9.37,5.76,8,6.47-2.33,1.17-6.08-4-14.67.5C75,64,74.1,56.26,83.3,56.26ZM61.14,95.16C66,95.16,69,91.51,69,93.28s-1.41,5.11-7.82,5.11S53.32,95,53.32,93.28,56.26,95.16,61.14,95.16Zm0,11.72c7.74,0,12.39-3.15,12.39-2.35s-2.23,3.94-12.39,3.94-12.39-3.14-12.39-3.94S53.41,106.88,61.14,106.88ZM39,56.26c9.2,0,8.26,7.78,6.7,7-8.59-4.47-12.34.67-14.67-.5C29.61,62,31,56.26,39,56.26Z" transform="translate(-4 -3)"/><path d="M38.92,70.73a5.43,5.43,0,0,0,0,10.81,5.43,5.43,0,0,0,0-10.81Zm-2.15,4.49a1.48,1.48,0,1,1,1.48-1.47A1.47,1.47,0,0,1,36.77,75.22Z" transform="translate(-4 -3)"/><path class="cls-3" d="M36.77,72.27a1.48,1.48,0,1,0,1.48,1.48A1.48,1.48,0,0,0,36.77,72.27Z" transform="translate(-4 -3)"/><path class="cls-4" d="M31,62.73c2.33,1.17,6.08-4,14.67.5,1.56.81,2.5-7-6.7-7C31,56.26,29.61,62,31,62.73Z" transform="translate(-4 -3)"/><path d="M84,70.73a5.43,5.43,0,1,0,4.94,5.4A5.18,5.18,0,0,0,84,70.73Zm-2.15,4.49a1.48,1.48,0,1,1,1.48-1.47A1.47,1.47,0,0,1,81.82,75.22Z" transform="translate(-4 -3)"/><path class="cls-3" d="M81.82,72.27a1.48,1.48,0,1,0,1.48,1.48A1.48,1.48,0,0,0,81.82,72.27Z" transform="translate(-4 -3)"/><path class="cls-4" d="M76.59,63.23c8.59-4.47,12.34.67,14.67-.5,1.41-.71,0-6.47-8-6.47C74.1,56.26,75,64,76.59,63.23Z" transform="translate(-4 -3)"/><path class="cls-2" d="M61.14,98.39C67.55,98.39,69,95,69,93.28S66,95.16,61.14,95.16s-7.82-3.65-7.82-1.88S54.73,98.39,61.14,98.39Z" transform="translate(-4 -3)"/><path class="cls-2" d="M61.14,111.38c-1.69,0-2.7-1.27-2.7-.65s.49,1.77,2.7,1.77,2.71-1.16,2.71-1.77S62.83,111.38,61.14,111.38Z" transform="translate(-4 -3)"/><path class="cls-5" d="M61.14,108.47c10.16,0,12.39-3.14,12.39-3.94s-4.65,2.35-12.39,2.35-12.39-3.15-12.39-2.35S51,108.47,61.14,108.47Z" transform="translate(-4 -3)"/><path class="cls-6" d="M20,142.41l.69-.41Z" transform="translate(-4 -3)"/><path class="cls-6" d="M4.73,156.93l.12-.28Z" transform="translate(-4 -3)"/><path class="cls-6" d="M4.32,158.13a.83.83,0,0,1,0-.15A.83.83,0,0,0,4.32,158.13Z" transform="translate(-4 -3)"/><path class="cls-6" d="M4.08,159.31a2.36,2.36,0,0,1,0-.28A2.36,2.36,0,0,0,4.08,159.31Z" transform="translate(-4 -3)"/><path class="cls-6" d="M22.23,141.12l.72-.38Z" transform="translate(-4 -3)"/><path class="cls-6" d="M28.45,138.06l.84-.36Z" transform="translate(-4 -3)"/><path class="cls-6" d="M31.45,136.8l-.76.31.76-.31Z" transform="translate(-4 -3)"/><path class="cls-6" d="M24,140.17l.8-.41Z" transform="translate(-4 -3)"/><path class="cls-6" d="M26.39,139l.83-.39Z" transform="translate(-4 -3)"/><path class="cls-6" d="M18.28,143.44l.66-.41Z" transform="translate(-4 -3)"/><path class="cls-6" d="M11.59,148.33l.46-.39Z" transform="translate(-4 -3)"/><path class="cls-6" d="M13.06,147.11l.38-.3Z" transform="translate(-4 -3)"/><path class="cls-6" d="M16.29,144.74l.54-.36Z" transform="translate(-4 -3)"/><path class="cls-6" d="M10.37,149.42l.23-.21Z" transform="translate(-4 -3)"/><path class="cls-6" d="M14.72,145.85c.18-.14.37-.27.57-.41C15.09,145.58,14.9,145.71,14.72,145.85Z" transform="translate(-4 -3)"/><path class="cls-6" d="M5.27,155.77l.12-.24Z" transform="translate(-4 -3)"/><path class="cls-6" d="M8.94,150.83l.34-.35Z" transform="translate(-4 -3)"/><path class="cls-6" d="M6.82,153.32l.23-.3Z" transform="translate(-4 -3)"/><path class="cls-6" d="M6,154.46c0-.09.12-.18.18-.27C6.15,154.28,6.08,154.37,6,154.46Z" transform="translate(-4 -3)"/><path class="cls-6" d="M7.92,152c.07-.09.15-.17.23-.26C8.07,151.78,8,151.86,7.92,152Z" transform="translate(-4 -3)"/><path class="cls-6" d="M116.08,154.19l.18.27Z" transform="translate(-4 -3)"/><path class="cls-6" d="M117.44,156.65l.12.27Z" transform="translate(-4 -3)"/><path class="cls-6" d="M117.93,158a.57.57,0,0,0,0,.14A.57.57,0,0,1,117.93,158Z" transform="translate(-4 -3)"/><path class="cls-6" d="M116.9,155.53l.12.24Z" transform="translate(-4 -3)"/><path class="cls-6" d="M97.48,139.78l.71.36Z" transform="translate(-4 -3)"/><path class="cls-6" d="M118.16,159a2.33,2.33,0,0,1,0,.28A2.33,2.33,0,0,0,118.16,159Z" transform="translate(-4 -3)"/><path class="cls-6" d="M91.44,137l-.6-.24h0Z" transform="translate(-4 -3)"/><path class="cls-6" d="M113,150.49l.32.33Z" transform="translate(-4 -3)"/><path class="cls-6" d="M107,145.46l.52.38Z" transform="translate(-4 -3)"/><path class="cls-6" d="M108.9,146.86l.28.21Z" transform="translate(-4 -3)"/><path class="cls-6" d="M103.39,143.06l.59.36Z" transform="translate(-4 -3)"/><path class="cls-6" d="M115.24,153a3.15,3.15,0,0,1,.22.29A3.15,3.15,0,0,0,115.24,153Z" transform="translate(-4 -3)"/><path class="cls-6" d="M110.26,148l.42.36Z" transform="translate(-4 -3)"/><path class="cls-6" d="M105.48,144.39l.46.32Z" transform="translate(-4 -3)"/><path class="cls-6" d="M99.41,140.78l.62.33Z" transform="translate(-4 -3)"/><path class="cls-6" d="M114.15,151.71l.21.23Z" transform="translate(-4 -3)"/><path class="cls-6" d="M101.65,142l.61.35Z" transform="translate(-4 -3)"/><path class="cls-6" d="M111.72,149.24l.19.17Z" transform="translate(-4 -3)"/><path class="cls-7" d="M45.82,132.42l.68-.15Z" transform="translate(-4 -3)"/><path class="cls-7" d="M43.79,132.87h0c.67-.16,1.35-.31,2-.45Z" transform="translate(-4 -3)"/><path class="cls-7" d="M46.5,132.27c.56-.12,1.13-.22,1.69-.32C47.63,132.05,47.06,132.15,46.5,132.27Z" transform="translate(-4 -3)"/><path class="cls-7" d="M49.39,131.73h0c-.4.06-.79.15-1.19.22l1.2-.22Z" transform="translate(-4 -3)"/><path class="cls-7" d="M79.11,133c-1,1.08-7.77,8-18,8a23.19,23.19,0,0,1-17.34-8.17q-3,.74-6,1.66v25.79H84.48V134.53C82.72,134,80.92,133.46,79.11,133Z" transform="translate(-4 -3)"/><path class="cls-6" d="M73.39,131.81l.81.14Z" transform="translate(-4 -3)"/><path class="cls-6" d="M95.17,138.67l.57.26Z" transform="translate(-4 -3)"/><path class="cls-6" d="M76,132.3l.66.13Z" transform="translate(-4 -3)"/><path class="cls-6" d="M78.78,132.93,79,133Z" transform="translate(-4 -3)"/><path class="cls-6" d="M93,137.72l.74.32Z" transform="translate(-4 -3)"/><path class="cls-8" d="M61.14,136c-8.18,0-11.64-4.12-11.75-4.25-1.87.31-3.75.69-5.6,1.14A23.27,23.27,0,0,0,61.14,141c10.2,0,17-6.95,18-8h0l-.1,0-.23-.06-2.17-.5L76,132.3,74.2,132l-.81-.14-.49-.09h0C72.84,131.78,69.4,136,61.14,136Z" transform="translate(-4 -3)"/><path class="cls-1" d="M49.39,131.73c.11.13,3.57,4.25,11.75,4.25s11.7-4.2,11.75-4.26h0s-12.2-4.44-23.52,0v0Z" transform="translate(-4 -3)"/><path class="cls-4" d="M61.14,125.22V114.29c-6.82,0-6.58,3.7-11.76,3.7-11.77,0-25.11-12.23-23.33-9.52l0,0c2,3,7.82,12.3,23.3,15.56q1.21.25,2.49.45A58.3,58.3,0,0,0,61.14,125.22Z" transform="translate(-4 -3)"/><path class="cls-4" d="M72.9,118c-5.17,0-4.94-3.7-11.76-3.7v10.93a57.07,57.07,0,0,0,11.76-1.15h0c15.5-3.26,21.32-12.54,23.31-15.57l0,0C98,105.76,84.67,118,72.9,118Z" transform="translate(-4 -3)"/><path class="cls-4" d="M111.15,46.27C109.26,18.05,101.74,3,61.45,3S13.64,18.05,11.76,46.27A161.86,161.86,0,0,0,11.52,67c.79,12.46,3.45,17.2,5.42,17.18h0c2.81-.06,1.3-32.36,5.16-39.31,7.06-12.7,19.67-3.29,39.35-3.29s32.29-9.41,39.35,3.29c3.58,6.46,2.54,34.76,4.63,38.81.16.31.33.5.53.5,2,0,4.59-4.65,5.4-16.92A161.45,161.45,0,0,0,111.15,46.27Z" transform="translate(-4 -3)"/><path class="cls-9" d="M30.69,137.11l-1.4.59-.84.36-1.23.56-.83.39c-.52.24-1,.5-1.55.75l-.8.41c-.37.18-.73.38-1.09.57l-.72.38-1.57.88-.69.41c-.35.2-.69.41-1,.62l-.66.41c-.5.31-1,.62-1.45.94l-.54.36-1,.7c-.2.14-.39.27-.57.41-.44.32-.87.64-1.28,1l-.38.3c-.35.28-.69.55-1,.83l-.46.39c-.34.29-.67.58-1,.88l-.23.21c-.38.35-.74.71-1.09,1.06l-.34.35-.79.86c-.08.09-.16.17-.23.26-.31.36-.6.71-.87,1.07l-.23.3c-.21.29-.42.58-.61.87-.06.09-.13.18-.18.27-.23.36-.45.72-.64,1.07l-.12.24a8.78,8.78,0,0,0-.42.88l-.12.28a11,11,0,0,0-.37,1,.83.83,0,0,0,0,.15c-.08.3-.15.6-.2.9a2.36,2.36,0,0,0,0,.28,7,7,0,0,0-.08,1H27l4.5-23.52Z" transform="translate(-4 -3)"/><path class="cls-10" d="M37.8,133.28s-4.58,1.76-6.17,2.58l-.18.94h0L27,160.32H37.8v-27Z" transform="translate(-4 -3)"/><path class="cls-9" d="M118.21,159.31a2.33,2.33,0,0,0,0-.28c0-.3-.11-.6-.19-.91a.57.57,0,0,1,0-.14c-.1-.35-.23-.7-.37-1.06l-.12-.27c-.13-.29-.27-.59-.42-.88l-.12-.24c-.2-.35-.41-.71-.64-1.07l-.18-.27c-.2-.29-.4-.58-.62-.87a3.15,3.15,0,0,0-.22-.29c-.28-.36-.57-.73-.88-1.09l-.21-.23c-.26-.3-.54-.6-.82-.89l-.32-.33c-.35-.36-.71-.72-1.1-1.08l-.19-.17c-.34-.31-.68-.62-1-.93l-.42-.36-1.08-.88-.28-.21c-.43-.35-.89-.69-1.35-1l-.52-.38-1.09-.75-.46-.32c-.49-.33-1-.65-1.5-1l-.59-.36-1.13-.69-.61-.35c-.53-.31-1.07-.61-1.62-.91l-.62-.33c-.4-.22-.81-.43-1.22-.64l-.71-.36c-.57-.29-1.15-.57-1.74-.85l-.57-.26L93.78,138l-.74-.32-1.6-.68-.6-.24,4.5,23.52h22.94A8.72,8.72,0,0,0,118.21,159.31Z" transform="translate(-4 -3)"/><path class="cls-10" d="M90.84,136.8l-.18-.94c-1.59-.82-6.18-2.58-6.18-2.58v27H95.34l-4.5-23.52Z" transform="translate(-4 -3)"/></svg>