<svg id="Layer_1" data-name="Layer 1" xmlns="http://www.w3.org/2000/svg" viewBox="0 0 75.86 75.86"><defs><style>.cls-1{fill:#4a4a4a;}.cls-2{fill:none;}.cls-3{fill:#b2b2b2;}.cls-4{fill:#3b53a4;}</style></defs><title>chart-25pc</title><path class="cls-1" d="M107.47,131.2v-1.4a10.38,10.38,0,0,1,1.29-2.14,14.89,14.89,0,0,1,2-2.07q.53-.47,1.71-1.33a13.2,13.2,0,0,0,1.64-1.33,6,6,0,0,0,1-1.43,3,3,0,0,0,.33-1.36,2.72,2.72,0,0,0-.76-2,2.86,2.86,0,0,0-2.09-.75,3.26,3.26,0,0,0-2.27.83,4.26,4.26,0,0,0-1.23,2.37l-1.44-.3a5.4,5.4,0,0,1,1.71-3.13,4.93,4.93,0,0,1,3.27-1.06,4.59,4.59,0,0,1,3.22,1.08,3.79,3.79,0,0,1,1.18,2.94,5,5,0,0,1-.19,1.42,3.94,3.94,0,0,1-.59,1.19,15.16,15.16,0,0,1-3.18,2.88l-.8.58a15,15,0,0,0-2.1,1.87,6.71,6.71,0,0,0-1.21,1.79h8.07v1.38Z" transform="translate(-87.07 -87.07)"/><path class="cls-1" d="M119.24,128.54l1.36-.79a5,5,0,0,0,1.5,1.79,3.29,3.29,0,0,0,1.93.61,3.2,3.2,0,0,0,2.57-1.11,4.47,4.47,0,0,0,.95-3,3.84,3.84,0,0,0-.91-2.67,3.32,3.32,0,0,0-4.29-.41,3.46,3.46,0,0,0-1.16,1.72l-1.34-.33.63-8h7.64v1.39h-6.36l-.39,4.67a4.58,4.58,0,0,1,6.48.08,5.17,5.17,0,0,1,1.28,3.66,5.39,5.39,0,0,1-1.41,3.86,4.8,4.8,0,0,1-3.65,1.49,5.5,5.5,0,0,1-2.91-.74A5.06,5.06,0,0,1,119.24,128.54Z" transform="translate(-87.07 -87.07)"/><path class="cls-1" d="M130.29,119.48a3.39,3.39,0,1,1,1,2.42A3.3,3.3,0,0,1,130.29,119.48Zm1.28,0a2.11,2.11,0,1,0,.62-1.52A2.05,2.05,0,0,0,131.57,119.47Zm1.56,12,8.53-15.39h1.15l-8.51,15.39Zm5.68-3.43a3.35,3.35,0,0,1,3.4-3.41,3.33,3.33,0,0,1,2.43,1,3.43,3.43,0,0,1-4.85,4.85A3.31,3.31,0,0,1,138.82,128Zm1.28,0a2.08,2.08,0,0,0,.62,1.52,2,2,0,0,0,1.51.63A2.16,2.16,0,1,0,140.1,128Z" transform="translate(-87.07 -87.07)"/><path class="cls-2" d="M127,95.17c-.66,0-1.33-.07-2-.07a30.06,30.06,0,1,0,2,.07Z" transform="translate(-87.07 -87.07)"/><path class="cls-3" d="M154,117.54a29.91,29.91,0,1,1-29-22.45c.67,0,1.34,0,2,.07v-8q-1-.05-2-.05a37.92,37.92,0,1,0,36.7,28.33Z" transform="translate(-87.07 -87.07)"/><path class="cls-4" d="M154,117.54l7.73-2.14A38,38,0,0,0,127,87.12v8A30,30,0,0,1,154,117.54Z" transform="translate(-87.07 -87.07)"/></svg>