<svg id="Layer_1" data-name="Layer 1" xmlns="http://www.w3.org/2000/svg" viewBox="0 0 75.86 75.86"><defs><style>.cls-1{fill:#4a4a4a;}.cls-2{fill:none;}.cls-3{fill:#b2b2b2;}.cls-4{fill:#3b53a4;}</style></defs><title>chart-13pc</title><path class="cls-1" d="M113.46,116.06v13.8h2.46v1.34h-6.44v-1.34H112v-12l-2.77.31v-1q.88-.23,1.64-.49t1.4-.53Z" transform="translate(-87.07 -87.07)"/><path class="cls-1" d="M118.54,128.48l1.28-.89a5.06,5.06,0,0,0,1.68,1.87,4.12,4.12,0,0,0,2.26.63,3.53,3.53,0,0,0,2.44-.79,3.16,3.16,0,0,0-.21-4.58,5.38,5.38,0,0,0-3.23-.81h-.57l-.56,0v-1.42h.24l.87,0a4.87,4.87,0,0,0,2.9-.73,2.46,2.46,0,0,0,1-2.12,2.14,2.14,0,0,0-.74-1.72,3,3,0,0,0-2-.63,3.58,3.58,0,0,0-1.87.49,5.28,5.28,0,0,0-1.57,1.57l-1.18-.89a6.22,6.22,0,0,1,2.09-1.88,5.46,5.46,0,0,1,2.6-.62,4.66,4.66,0,0,1,3.11,1,3.27,3.27,0,0,1,1.16,2.63,3.8,3.8,0,0,1-.58,2.13,3.66,3.66,0,0,1-1.71,1.36,4.41,4.41,0,0,1,2.06,1.5,3.87,3.87,0,0,1,.7,2.32,4.24,4.24,0,0,1-1.31,3.26,5,5,0,0,1-3.55,1.22,6.21,6.21,0,0,1-3.1-.75A5.78,5.78,0,0,1,118.54,128.48Z" transform="translate(-87.07 -87.07)"/><path class="cls-1" d="M130.29,119.48a3.39,3.39,0,1,1,1,2.42A3.3,3.3,0,0,1,130.29,119.48Zm1.28,0a2.11,2.11,0,1,0,.62-1.52A2.05,2.05,0,0,0,131.57,119.47Zm1.56,12,8.53-15.39h1.15l-8.51,15.39Zm5.68-3.43a3.35,3.35,0,0,1,3.4-3.41,3.33,3.33,0,0,1,2.43,1,3.43,3.43,0,0,1-4.85,4.85A3.31,3.31,0,0,1,138.82,128Zm1.28,0a2.08,2.08,0,0,0,.62,1.52,2,2,0,0,0,1.51.63A2.16,2.16,0,1,0,140.1,128Z" transform="translate(-87.07 -87.07)"/><path class="cls-2" d="M125,95.09a30,30,0,1,0,23.46,11.39A29.94,29.94,0,0,0,125,95.09Z" transform="translate(-87.07 -87.07)"/><path class="cls-3" d="M148.46,106.48A29.89,29.89,0,1,1,125,95.09v-8a38,38,0,1,0,29.75,14.44Z" transform="translate(-87.07 -87.07)"/><path class="cls-4" d="M148.46,106.48l6.29-5A37.87,37.87,0,0,0,125,87.07v8A29.86,29.86,0,0,1,148.46,106.48Z" transform="translate(-87.07 -87.07)"/></svg>