<svg id="Layer_1" data-name="Layer 1" xmlns="http://www.w3.org/2000/svg" viewBox="0 0 75.86 75.86"><defs><style>.cls-1{fill:#4a4a4a;}.cls-2{fill:none;}.cls-3{fill:#e9a913;}</style></defs><title>chart-reports</title><path class="cls-1" d="M135.082,129.388H118.861V113.081a.793.793,0,0,0-1.586,0v16.307H115.01a.793.793,0,0,0,0,1.587h2.265v2.178a.793.793,0,1,0,1.586,0v-2.178h16.221a.768.768,0,0,0,.794-.794A.8.8,0,0,0,135.082,129.388Z" transform="translate(-87.116 -87.132)"/><path class="cls-1" d="M120.383,123.44h0a.981.981,0,0,0,.7-.355l4.951-5.349,4.2,4.558-1.4,1.479-2.295-2.88a.989.989,0,0,0-.715-.345,1.074,1.074,0,0,0-.758.3l-5.43,5.344a1,1,0,0,0,0,1.434,1.053,1.053,0,0,0,.718.3.967.967,0,0,0,.711-.3l4.659-4.58,2.31,2.937a1,1,0,0,0,1.487.034l2.107-2.214,1.875,2.051a1,1,0,0,0,1.436,0,1.064,1.064,0,0,0,.063-1.416l-1.957-2.137,1.939-2.048a1.014,1.014,0,1,0-1.446-1.421l-1.854,1.957-4.886-5.242a1.052,1.052,0,0,0-.717-.3.993.993,0,0,0-.731.314l-5.755,6.144a.972.972,0,0,0-.3.753.944.944,0,0,0,.339.683A1.037,1.037,0,0,0,120.383,123.44Z" transform="translate(-87.116 -87.132)"/><path class="cls-2" d="M140.381,99.4l-.011-.006q-.6-.363-1.228-.7l-.042-.022q-.608-.325-1.231-.624l-.1-.045c-.4-.188-.8-.37-1.208-.541-.056-.024-.114-.044-.17-.067-.387-.159-.777-.314-1.172-.457-.077-.028-.156-.052-.233-.079-.377-.133-.755-.263-1.138-.381-.109-.034-.221-.062-.331-.094-.355-.105-.711-.209-1.071-.3-.14-.036-.282-.064-.423-.1-.334-.08-.668-.161-1.007-.23-.178-.036-.36-.063-.539-.1-.305-.056-.61-.116-.919-.163-.223-.034-.449-.057-.674-.086-.269-.035-.536-.074-.807-.1-.293-.03-.589-.046-.885-.068-.207-.015-.412-.036-.621-.047q-.759-.038-1.527-.039a29.727,29.727,0,0,0-12.954,2.954q-1.307.631-2.542,1.382a30.127,30.127,0,0,0-6.632,5.473q-.966,1.063-1.829,2.216-.431.576-.835,1.173a29.851,29.851,0,0,0,0,33.418q.4.6.835,1.173.862,1.152,1.829,2.216a30.127,30.127,0,0,0,6.632,5.473q1.233.75,2.542,1.382a29.727,29.727,0,0,0,12.954,2.954c.493,0,.982-.014,1.469-.037.16-.008.318-.023.478-.033.326-.021.651-.043.974-.074.189-.018.376-.043.564-.065.29-.034.581-.068.868-.111.2-.029.395-.063.591-.1.275-.046.55-.094.823-.147.2-.039.4-.081.594-.124q.4-.087.8-.185.3-.073.588-.151.4-.106.786-.224c.191-.057.381-.114.57-.174.264-.085.526-.175.787-.267.18-.063.361-.125.54-.192.273-.1.542-.211.811-.32.162-.066.325-.129.485-.2.305-.131.606-.27.907-.41.119-.056.241-.108.36-.165q.624-.3,1.232-.632c.079-.043.156-.09.235-.134.324-.18.646-.363.963-.554.141-.085.279-.176.419-.264.25-.157.5-.314.744-.478.154-.1.305-.211.458-.317.225-.156.449-.314.669-.476.156-.115.31-.234.464-.352.211-.162.42-.325.626-.492q.23-.186.455-.377.3-.255.6-.517.221-.2.438-.4c.2-.181.387-.365.577-.55.138-.135.277-.269.412-.407.192-.194.379-.393.565-.593.127-.136.255-.27.379-.408.2-.218.386-.441.575-.664.107-.126.216-.249.321-.377.23-.28.452-.566.672-.855.058-.076.12-.15.177-.227q.411-.55.8-1.12c.072-.106.139-.216.209-.323.182-.276.363-.553.536-.836.091-.148.176-.3.264-.448.146-.248.292-.5.431-.748.091-.165.177-.333.265-.5.127-.242.254-.485.375-.73.086-.176.17-.353.253-.531q.171-.365.333-.735.119-.273.232-.549.153-.373.3-.751c.071-.186.141-.372.208-.56.092-.257.178-.516.263-.776.061-.186.122-.372.18-.559.083-.272.159-.547.234-.822.049-.179.1-.357.146-.538.078-.306.146-.616.214-.926.034-.153.071-.3.1-.457q.139-.686.248-1.383l0-.024V129.6c.1-.655.171-1.32.228-1.989q.022-.254.039-.509c.046-.674.077-1.352.077-2.037v0c0-.069,0-.136-.005-.2,0-.449-.012-.9-.034-1.34-.009-.178-.028-.353-.04-.53-.023-.333-.043-.667-.077-1-.017-.169-.044-.335-.064-.5-.04-.336-.078-.673-.13-1.005-.023-.147-.054-.292-.079-.439-.06-.35-.118-.7-.19-1.046-.026-.127-.06-.251-.087-.378-.08-.363-.161-.725-.254-1.083-.027-.1-.06-.206-.088-.309-.1-.377-.208-.754-.325-1.125-.025-.08-.055-.158-.081-.238-.127-.392-.258-.783-.4-1.167-.022-.06-.048-.119-.071-.179-.152-.4-.31-.8-.478-1.195-.018-.042-.038-.082-.056-.123-.178-.41-.363-.817-.559-1.218-.011-.023-.024-.045-.035-.068q-.308-.626-.643-1.236l-.017-.03q-.346-.626-.721-1.235l0-.007a30.149,30.149,0,0,0-4.524-5.665h0A30.138,30.138,0,0,0,140.381,99.4Z" transform="translate(-87.116 -87.132)"/><path class="cls-3" d="M150.513,109.4l0,.007Z" transform="translate(-87.116 -87.132)"/><path class="cls-3" d="M151.238,110.646l.017.03Z" transform="translate(-87.116 -87.132)"/><path class="cls-3" d="M151.9,111.912c.011.023.024.045.035.068C151.922,111.957,151.91,111.935,151.9,111.912Z" transform="translate(-87.116 -87.132)"/><path class="cls-3" d="M157.777,144.194a37.655,37.655,0,0,0,5.116-16.739q-.072,1.084-.2,2.152A37.681,37.681,0,0,1,157.777,144.194Z" transform="translate(-87.116 -87.132)"/><path class="cls-3" d="M152.493,113.2c.018.042.038.082.056.123C152.531,113.28,152.511,113.24,152.493,113.2Z" transform="translate(-87.116 -87.132)"/><path class="cls-3" d="M162.324,118.094c.075.4.154.8.216,1.212C162.478,118.9,162.4,118.5,162.324,118.094Z" transform="translate(-87.116 -87.132)"/><path class="cls-3" d="M153.5,115.863c.026.08.055.158.081.238C153.554,116.02,153.525,115.942,153.5,115.863Z" transform="translate(-87.116 -87.132)"/><path class="cls-3" d="M153.027,114.516c.023.06.048.119.071.179C153.075,114.635,153.05,114.576,153.027,114.516Z" transform="translate(-87.116 -87.132)"/><path class="cls-3" d="M162.867,122.326c.019.264.047.526.06.791C162.914,122.852,162.886,122.59,162.867,122.326Z" transform="translate(-87.116 -87.132)"/><path class="cls-3" d="M162.656,120.218c.042.326.091.65.124.978C162.747,120.868,162.7,120.544,162.656,120.218Z" transform="translate(-87.116 -87.132)"/><path class="cls-3" d="M162.976,125.062c0,.757-.026,1.508-.073,2.253C162.948,126.569,162.976,125.818,162.976,125.062Z" transform="translate(-87.116 -87.132)"/><path class="cls-3" d="M156.824,145.732q-.4.614-.826,1.211Q156.422,146.346,156.824,145.732Z" transform="translate(-87.116 -87.132)"/><path class="cls-3" d="M157.749,144.244c-.263.447-.537.888-.818,1.323Q157.352,144.914,157.749,144.244Z" transform="translate(-87.116 -87.132)"/><path class="cls-3" d="M155.836,147.172q-.411.571-.843,1.127Q155.425,147.743,155.836,147.172Z" transform="translate(-87.116 -87.132)"/><path class="cls-3" d="M154.246,118.618c.028.126.061.251.087.378C154.307,118.869,154.274,118.745,154.246,118.618Z" transform="translate(-87.116 -87.132)"/><path class="cls-3" d="M153.9,117.226c.028.1.061.205.088.309C153.965,117.431,153.932,117.329,153.9,117.226Z" transform="translate(-87.116 -87.132)"/><path class="cls-3" d="M153.479,134.318c-.085.26-.171.519-.263.776C153.308,134.837,153.394,134.578,153.479,134.318Z" transform="translate(-87.116 -87.132)"/><path class="cls-3" d="M151.894,138.22c-.121.246-.247.488-.375.73C151.647,138.708,151.773,138.465,151.894,138.22Z" transform="translate(-87.116 -87.132)"/><path class="cls-3" d="M153.008,135.654q-.144.378-.3.751Q152.865,136.032,153.008,135.654Z" transform="translate(-87.116 -87.132)"/><path class="cls-3" d="M152.48,136.953q-.161.371-.333.735Q152.318,137.323,152.48,136.953Z" transform="translate(-87.116 -87.132)"/><path class="cls-3" d="M149.814,141.8q-.386.569-.8,1.12Q149.428,142.374,149.814,141.8Z" transform="translate(-87.116 -87.132)"/><path class="cls-3" d="M150.56,140.646c-.173.283-.354.56-.536.836C150.206,141.206,150.386,140.928,150.56,140.646Z" transform="translate(-87.116 -87.132)"/><path class="cls-3" d="M151.254,139.45c-.139.252-.285.5-.431.748C150.97,139.95,151.115,139.7,151.254,139.45Z" transform="translate(-87.116 -87.132)"/><path class="cls-3" d="M154.872,122.987c.012.177.031.352.04.53C154.9,123.339,154.885,123.164,154.872,122.987Z" transform="translate(-87.116 -87.132)"/><path class="cls-3" d="M154.523,120.042c.025.147.056.291.079.439C154.579,120.333,154.548,120.189,154.523,120.042Z" transform="translate(-87.116 -87.132)"/><path class="cls-3" d="M154.875,127.1q-.017.255-.039.509Q154.858,127.358,154.875,127.1Z" transform="translate(-87.116 -87.132)"/><path class="cls-3" d="M153.893,132.937c-.075.275-.151.55-.234.822C153.741,133.487,153.817,133.212,153.893,132.937Z" transform="translate(-87.116 -87.132)"/><path class="cls-3" d="M154.731,121.486c.02.168.047.334.064.5C154.778,121.82,154.751,121.654,154.731,121.486Z" transform="translate(-87.116 -87.132)"/><path class="cls-3" d="M154.253,131.473c-.068.31-.137.62-.214.926C154.116,132.092,154.185,131.783,154.253,131.473Z" transform="translate(-87.116 -87.132)"/><path class="cls-3" d="M154.6,129.632q-.107.7-.248,1.383Q154.495,130.329,154.6,129.632Z" transform="translate(-87.116 -87.132)"/><polygon class="cls-3" points="67.491 42.475 67.492 42.469 67.491 42.477 67.491 42.475"/><path class="cls-3" d="M148.84,143.151c-.22.288-.442.575-.672.855C148.4,143.726,148.62,143.44,148.84,143.151Z" transform="translate(-87.116 -87.132)"/><path class="cls-3" d="M158.436,107.083q.428.791.819,1.6Q158.864,107.873,158.436,107.083Z" transform="translate(-87.116 -87.132)"/><path class="cls-3" d="M159.277,108.736q.384.8.732,1.622Q159.663,109.536,159.277,108.736Z" transform="translate(-87.116 -87.132)"/><path class="cls-3" d="M161.9,116.111c.108.443.216.887.308,1.336C162.116,117,162.008,116.554,161.9,116.111Z" transform="translate(-87.116 -87.132)"/><path class="cls-3" d="M160.073,110.519c.214.513.42,1.03.612,1.555C160.493,111.549,160.287,111.032,160.073,110.519Z" transform="translate(-87.116 -87.132)"/><path class="cls-3" d="M161.387,114.213c.139.466.277.933.4,1.407C161.664,115.146,161.527,114.679,161.387,114.213Z" transform="translate(-87.116 -87.132)"/><path class="cls-3" d="M160.765,112.311c.18.5.354,1.005.512,1.516C161.119,113.316,160.945,112.812,160.765,112.311Z" transform="translate(-87.116 -87.132)"/><path class="cls-3" d="M147.846,144.383c-.189.223-.379.446-.575.664C147.467,144.829,147.657,144.606,147.846,144.383Z" transform="translate(-87.116 -87.132)"/><path class="cls-3" d="M154.952,125.066v0c0-.069,0-.136-.005-.2,0,.069.005.136.005.2Z" transform="translate(-87.116 -87.132)"/><path class="cls-3" d="M146.892,145.455c-.186.2-.373.4-.565.593C146.519,145.853,146.706,145.654,146.892,145.455Z" transform="translate(-87.116 -87.132)"/><path class="cls-3" d="M145.915,146.454c-.19.186-.382.37-.577.55C145.533,146.824,145.725,146.64,145.915,146.454Z" transform="translate(-87.116 -87.132)"/><path class="cls-3" d="M144.9,147.4q-.3.263-.6.517Q144.605,147.663,144.9,147.4Z" transform="translate(-87.116 -87.132)"/><path class="cls-3" d="M162.927,123.117c-.013-.266-.041-.527-.06-.791-.027-.377-.048-.756-.086-1.13-.033-.329-.083-.652-.124-.978-.039-.3-.07-.61-.116-.911-.062-.407-.141-.809-.216-1.212-.04-.215-.072-.434-.116-.648-.092-.449-.2-.893-.308-1.336-.04-.163-.072-.329-.114-.491-.122-.473-.259-.94-.4-1.407-.038-.128-.07-.258-.11-.386-.159-.511-.333-1.015-.512-1.516-.028-.079-.052-.159-.081-.237-.192-.524-.4-1.041-.612-1.555-.022-.053-.041-.108-.064-.161q-.347-.821-.732-1.622c-.008-.016-.015-.033-.023-.05q-.391-.813-.819-1.6l-.014-.027a38.165,38.165,0,0,0-6.489-8.719l-.006-.006h0a38.167,38.167,0,0,0-8.739-6.569l-.02-.012q-.778-.425-1.578-.813l-.063-.033c-.515-.249-1.037-.485-1.564-.711-.041-.018-.081-.038-.122-.055-.5-.215-1.017-.415-1.533-.608-.066-.025-.13-.053-.2-.077-.5-.183-1-.35-1.5-.512-.088-.028-.174-.061-.263-.089-.5-.155-1-.294-1.5-.429-.1-.027-.2-.06-.3-.086-.474-.123-.955-.229-1.436-.334-.136-.029-.269-.066-.4-.094-.473-.1-.952-.178-1.431-.257-.147-.024-.292-.056-.44-.079-.475-.073-.956-.129-1.436-.184-.156-.018-.309-.043-.465-.059-.468-.048-.941-.078-1.414-.108-.172-.011-.342-.03-.515-.039q-.97-.049-1.953-.05a37.93,37.93,0,0,0,0,75.86c.63,0,1.257-.017,1.88-.048.211-.01.418-.031.628-.044.41-.027.821-.054,1.228-.094.249-.024.5-.058.743-.088.364-.043.727-.085,1.088-.139.263-.039.523-.086.784-.13.34-.058.681-.116,1.018-.182.268-.053.535-.113.8-.171.325-.072.648-.145.97-.224.272-.068.542-.14.812-.214.309-.084.617-.171.923-.263q.411-.123.818-.256.444-.144.884-.3c.274-.1.547-.2.818-.3s.562-.219.841-.332.55-.224.822-.343.527-.236.789-.357c.279-.129.558-.257.833-.392.243-.12.482-.246.723-.371.287-.149.575-.3.857-.452.211-.116.417-.24.625-.36.3-.175.609-.348.908-.532.14-.086.276-.179.415-.267a38.142,38.142,0,0,0,4.851-3.637c.071-.063.144-.123.215-.186.339-.3.669-.616,1-.932.087-.084.176-.166.262-.25.32-.314.631-.635.94-.959.087-.091.174-.181.26-.273q.459-.493.9-1c.08-.092.16-.183.239-.276q.444-.521.868-1.059l.206-.262q.432-.555.843-1.127l.162-.228q.423-.6.826-1.211l.106-.166c.281-.435.555-.876.818-1.323l.029-.05a37.681,37.681,0,0,0,4.917-14.587q.128-1.068.2-2.152c0-.047.008-.094.011-.141.047-.745.073-1.5.073-2.253Q162.976,124.083,162.927,123.117Zm-7.975,1.949c0,.685-.032,1.363-.077,2.037q-.017.255-.039.509c-.057.669-.127,1.333-.228,1.989v.008l0,.024q-.107.7-.248,1.383c-.031.153-.069.3-.1.457-.068.31-.137.62-.214.926-.046.18-.1.359-.146.538-.075.275-.151.55-.234.822-.057.188-.119.373-.18.559-.085.26-.171.519-.263.776-.067.188-.137.374-.208.56q-.144.378-.3.751-.113.276-.232.549-.161.371-.333.735c-.083.178-.166.355-.253.531-.121.246-.247.488-.375.73-.088.167-.174.335-.265.5-.139.252-.284.5-.431.748-.088.149-.173.3-.264.448-.173.283-.354.56-.536.836-.071.107-.138.217-.209.323q-.386.569-.8,1.12c-.057.077-.119.151-.177.227-.22.288-.442.575-.672.855-.1.128-.214.251-.321.377-.189.223-.379.446-.575.664-.124.138-.252.272-.379.408-.186.2-.373.4-.565.593-.136.138-.274.272-.412.407-.19.186-.382.37-.577.55q-.217.2-.438.4-.3.263-.6.517-.226.191-.455.377c-.206.167-.415.33-.626.492-.154.118-.308.237-.464.352-.22.162-.444.319-.669.476-.152.106-.3.214-.458.317-.245.164-.494.321-.744.478-.14.088-.278.179-.419.264-.317.191-.639.375-.963.554-.079.044-.155.091-.235.134q-.607.33-1.232.632c-.119.057-.24.109-.36.165-.3.141-.6.28-.907.41-.16.069-.323.131-.485.2-.269.11-.538.219-.811.32-.179.067-.36.129-.54.192-.261.092-.523.182-.787.267-.189.061-.379.117-.57.174q-.391.117-.786.224-.293.079-.588.151-.4.1-.8.185c-.2.043-.4.085-.594.124-.273.054-.548.1-.823.147-.2.033-.393.067-.591.1-.288.042-.578.077-.868.111-.188.022-.375.047-.564.065-.323.031-.648.053-.974.074-.159.01-.318.025-.478.033-.487.024-.977.037-1.469.037a29.727,29.727,0,0,1-12.954-2.954q-1.307-.631-2.542-1.382a30.127,30.127,0,0,1-6.632-5.473q-.966-1.063-1.829-2.216-.431-.576-.835-1.173a29.851,29.851,0,0,1,0-33.418q.4-.6.835-1.173.862-1.152,1.829-2.216a30.127,30.127,0,0,1,6.632-5.473q1.233-.75,2.542-1.382a29.727,29.727,0,0,1,12.954-2.954q.768,0,1.527.039c.208.011.414.032.621.047.3.021.592.038.885.068.271.027.538.067.807.1.225.029.451.052.674.086.309.047.613.106.919.163.179.033.361.06.539.1.339.069.673.15,1.007.23.14.034.283.062.423.1.36.092.716.2,1.071.3.11.033.222.06.331.094.383.118.761.248,1.138.381.077.027.156.051.233.079.395.143.785.3,1.172.457.056.023.114.044.17.067.408.171.81.352,1.208.541l.1.045q.624.3,1.231.624l.042.022q.623.335,1.228.7l.011.006a30.138,30.138,0,0,1,5.606,4.339h0a30.149,30.149,0,0,1,4.524,5.665l0,.007q.375.608.721,1.235l.017.03q.336.609.643,1.236c.011.023.024.045.035.068.2.4.381.807.559,1.218.018.041.038.082.056.123.169.393.326.793.478,1.195.023.06.048.119.071.179.143.385.274.775.4,1.167.026.08.055.158.081.238.117.371.222.748.325,1.125.028.1.061.205.088.309.093.358.174.72.254,1.083.028.126.061.251.087.378.072.346.13.7.19,1.046.025.147.056.291.079.439.051.333.089.669.13,1.005.02.168.047.334.064.5.034.33.054.664.077,1,.012.177.031.352.04.53.023.444.031.891.034,1.34,0,.069.005.136.005.2Z" transform="translate(-87.116 -87.132)"/></svg>