<svg id="Layer_1" data-name="Layer 1" xmlns="http://www.w3.org/2000/svg" viewBox="0 0 75.86 75.86"><defs><style>.cls-1{fill:#4a4a4a;}.cls-2{fill:none;}.cls-3{fill:#b2b2b2;}.cls-4{fill:#3b53a4;}</style></defs><title>chart-39pc</title><path class="cls-1" d="M107.15,128.48l1.28-.89a5.06,5.06,0,0,0,1.68,1.87,4.12,4.12,0,0,0,2.26.63,3.53,3.53,0,0,0,2.44-.79,3.16,3.16,0,0,0-.21-4.58,5.38,5.38,0,0,0-3.23-.81h-.57l-.56,0v-1.42h.24l.87,0a4.87,4.87,0,0,0,2.9-.73,2.46,2.46,0,0,0,1-2.12,2.14,2.14,0,0,0-.74-1.72,3,3,0,0,0-2-.63,3.58,3.58,0,0,0-1.87.49,5.28,5.28,0,0,0-1.57,1.57l-1.18-.89a6.22,6.22,0,0,1,2.09-1.88,5.46,5.46,0,0,1,2.6-.62,4.66,4.66,0,0,1,3.11,1,3.27,3.27,0,0,1,1.16,2.63,3.8,3.8,0,0,1-.58,2.13,3.66,3.66,0,0,1-1.71,1.36,4.41,4.41,0,0,1,2.06,1.5,3.87,3.87,0,0,1,.7,2.32,4.24,4.24,0,0,1-1.31,3.26,5,5,0,0,1-3.55,1.22,6.21,6.21,0,0,1-3.1-.75A5.78,5.78,0,0,1,107.15,128.48Z" transform="translate(-87.07 -87.07)"/><path class="cls-1" d="M127.45,123.82a5.65,5.65,0,0,1-1.78,1.44,4.56,4.56,0,0,1-2.06.48,4.34,4.34,0,0,1-3.33-1.33,5,5,0,0,1-1.24-3.58,4.56,4.56,0,0,1,1.37-3.42,4.83,4.83,0,0,1,3.52-1.33,4.55,4.55,0,0,1,3.88,1.75,8.56,8.56,0,0,1,1.31,5.18,10.39,10.39,0,0,1-1.63,6.17,5.16,5.16,0,0,1-4.41,2.27,7,7,0,0,1-1.84-.23,4.71,4.71,0,0,1-1.45-.66l.65-1.28a4.26,4.26,0,0,0,1.24.58,5.18,5.18,0,0,0,1.44.19,3.66,3.66,0,0,0,3.16-1.68A7.85,7.85,0,0,0,127.45,123.82Zm0-2.23a4.86,4.86,0,0,0-1-3.07,3.17,3.17,0,0,0-2.54-1.12,3.1,3.1,0,0,0-2.35,1,3.46,3.46,0,0,0-.94,2.48,3.7,3.7,0,0,0,.87,2.58,3,3,0,0,0,2.33,1,3.33,3.33,0,0,0,2.09-.72A5.41,5.41,0,0,0,127.47,121.59Z" transform="translate(-87.07 -87.07)"/><path class="cls-1" d="M130.29,119.48a3.39,3.39,0,1,1,1,2.42A3.3,3.3,0,0,1,130.29,119.48Zm1.28,0a2.11,2.11,0,1,0,.62-1.52A2.05,2.05,0,0,0,131.57,119.47Zm1.56,12,8.53-15.39h1.15l-8.51,15.39Zm5.68-3.43a3.35,3.35,0,0,1,3.4-3.41,3.33,3.33,0,0,1,2.43,1,3.43,3.43,0,0,1-4.85,4.85A3.31,3.31,0,0,1,138.82,128Zm1.28,0a2.08,2.08,0,0,0,.62,1.52,2,2,0,0,0,1.51.63A2.16,2.16,0,1,0,140.1,128Z" transform="translate(-87.07 -87.07)"/><path class="cls-2" d="M95.09,125A29.91,29.91,0,1,0,125,95.09,29.94,29.94,0,0,0,95.09,125Z" transform="translate(-87.07 -87.07)"/><path class="cls-3" d="M125,154.91a29.91,29.91,0,0,1,0-59.81v-8a37.93,37.93,0,1,0,32.05,58.17L150.27,141A29.9,29.9,0,0,1,125,154.91Z" transform="translate(-87.07 -87.07)"/><path class="cls-4" d="M125,87.07v8A29.88,29.88,0,0,1,150.27,141l6.78,4.28A37.9,37.9,0,0,0,125,87.07Z" transform="translate(-87.07 -87.07)"/></svg>