<svg id="Layer_1" data-name="Layer 1" xmlns="http://www.w3.org/2000/svg" viewBox="0 0 75.86 75.86"><defs><style>.cls-1{fill:#4a4a4a;}.cls-2{fill:none;}.cls-3{fill:#b2b2b2;}.cls-4{fill:#3b53a4;}</style></defs><title>chart-23</title><path class="cls-1" d="M115.73,131.2v-1.4a10.38,10.38,0,0,1,1.29-2.14,14.89,14.89,0,0,1,2-2.07q.53-.47,1.71-1.33a13.2,13.2,0,0,0,1.64-1.33,6,6,0,0,0,1-1.43,3,3,0,0,0,.33-1.36,2.72,2.72,0,0,0-.76-2,2.86,2.86,0,0,0-2.09-.75,3.26,3.26,0,0,0-2.27.83,4.26,4.26,0,0,0-1.23,2.37l-1.44-.3a5.4,5.4,0,0,1,1.71-3.13,4.93,4.93,0,0,1,3.27-1.06,4.59,4.59,0,0,1,3.22,1.08,3.79,3.79,0,0,1,1.18,2.94,5,5,0,0,1-.19,1.42,3.94,3.94,0,0,1-.59,1.19,15.16,15.16,0,0,1-3.18,2.88l-.8.58a15,15,0,0,0-2.1,1.87,6.71,6.71,0,0,0-1.21,1.79h8.07v1.38Z" transform="translate(-87.07 -87.07)"/><path class="cls-1" d="M126.79,128.48l1.28-.89a5.06,5.06,0,0,0,1.68,1.87,4.12,4.12,0,0,0,2.26.63,3.53,3.53,0,0,0,2.44-.79,3.16,3.16,0,0,0-.21-4.58,5.38,5.38,0,0,0-3.23-.81h-.57l-.56,0v-1.42h.24l.87,0a4.87,4.87,0,0,0,2.9-.73,2.46,2.46,0,0,0,1-2.12,2.14,2.14,0,0,0-.74-1.72,3,3,0,0,0-2-.63,3.58,3.58,0,0,0-1.87.49,5.28,5.28,0,0,0-1.57,1.57l-1.18-.89a6.22,6.22,0,0,1,2.09-1.88,5.46,5.46,0,0,1,2.6-.62,4.66,4.66,0,0,1,3.11,1,3.27,3.27,0,0,1,1.16,2.63,3.8,3.8,0,0,1-.58,2.13,3.66,3.66,0,0,1-1.71,1.36,4.41,4.41,0,0,1,2.06,1.5,3.87,3.87,0,0,1,.7,2.32,4.24,4.24,0,0,1-1.31,3.26,5,5,0,0,1-3.55,1.22,6.21,6.21,0,0,1-3.1-.75A5.78,5.78,0,0,1,126.79,128.48Z" transform="translate(-87.07 -87.07)"/><path class="cls-2" d="M127,95.17c-.66,0-1.33-.07-2-.07a30.06,30.06,0,1,0,2,.07Z" transform="translate(-87.07 -87.07)"/><path class="cls-3" d="M154,117.54a29.91,29.91,0,1,1-29-22.45c.67,0,1.34,0,2,.07v-8q-1-.05-2-.05a37.92,37.92,0,1,0,36.7,28.33Z" transform="translate(-87.07 -87.07)"/><path class="cls-4" d="M154,117.54l7.73-2.14A38,38,0,0,0,127,87.12v8A30,30,0,0,1,154,117.54Z" transform="translate(-87.07 -87.07)"/></svg>