<svg id="Layer_1" data-name="Layer 1" xmlns="http://www.w3.org/2000/svg" viewBox="0 0 75.86 75.86"><defs><style>.cls-1{fill:#4a4a4a;}.cls-2{fill:none;}.cls-3{fill:#b2b2b2;}.cls-4{fill:#3b53a4;}</style></defs><title>chart-29</title><path class="cls-1" d="M115.73,131.2v-1.4a10.38,10.38,0,0,1,1.29-2.14,14.89,14.89,0,0,1,2-2.07q.53-.47,1.71-1.33a13.2,13.2,0,0,0,1.64-1.33,6,6,0,0,0,1-1.43,3,3,0,0,0,.33-1.36,2.72,2.72,0,0,0-.76-2,2.86,2.86,0,0,0-2.09-.75,3.26,3.26,0,0,0-2.27.83,4.26,4.26,0,0,0-1.23,2.37l-1.44-.3a5.4,5.4,0,0,1,1.71-3.13,4.93,4.93,0,0,1,3.27-1.06,4.59,4.59,0,0,1,3.22,1.08,3.79,3.79,0,0,1,1.18,2.94,5,5,0,0,1-.19,1.42,3.94,3.94,0,0,1-.59,1.19,15.16,15.16,0,0,1-3.18,2.88l-.8.58a15,15,0,0,0-2.1,1.87,6.71,6.71,0,0,0-1.21,1.79h8.07v1.38Z" transform="translate(-87.07 -87.07)"/><path class="cls-1" d="M135.7,123.82a5.65,5.65,0,0,1-1.78,1.44,4.56,4.56,0,0,1-2.06.48,4.34,4.34,0,0,1-3.33-1.33,5,5,0,0,1-1.24-3.58,4.56,4.56,0,0,1,1.37-3.42,4.83,4.83,0,0,1,3.52-1.33,4.55,4.55,0,0,1,3.88,1.75,8.56,8.56,0,0,1,1.31,5.18,10.39,10.39,0,0,1-1.63,6.17,5.16,5.16,0,0,1-4.41,2.27,7,7,0,0,1-1.84-.23,4.71,4.71,0,0,1-1.45-.66l.65-1.28a4.26,4.26,0,0,0,1.24.58,5.18,5.18,0,0,0,1.44.19,3.66,3.66,0,0,0,3.16-1.68A7.85,7.85,0,0,0,135.7,123.82Zm0-2.23a4.86,4.86,0,0,0-1-3.07,3.17,3.17,0,0,0-2.54-1.12,3.1,3.1,0,0,0-2.35,1,3.46,3.46,0,0,0-.94,2.48,3.7,3.7,0,0,0,.87,2.58,3,3,0,0,0,2.33,1,3.33,3.33,0,0,0,2.09-.72A5.41,5.41,0,0,0,135.72,121.59Z" transform="translate(-87.07 -87.07)"/><path class="cls-2" d="M95.09,125A29.91,29.91,0,1,0,125,95.09,29.94,29.94,0,0,0,95.09,125Z" transform="translate(-87.07 -87.07)"/><path class="cls-3" d="M125,154.91a29.91,29.91,0,0,1,0-59.81v-8a37.93,37.93,0,1,0,37.28,44.86l-7.92-1.26A30,30,0,0,1,125,154.91Z" transform="translate(-87.07 -87.07)"/><path class="cls-4" d="M125,87.07v8a29.89,29.89,0,0,1,29.36,35.58l7.92,1.26A37.89,37.89,0,0,0,125,87.07Z" transform="translate(-87.07 -87.07)"/></svg>