<svg id="Layer_1" data-name="Layer 1" xmlns="http://www.w3.org/2000/svg" viewBox="0 0 22.26 22.27"><defs><style>.cls-1{fill:#757575;}</style></defs><title>ico-settings</title><path class="cls-1" d="M23.1,10.38l-1.38-.23a8.49,8.49,0,0,0-.51-1.24L22,7.77a1.58,1.58,0,0,0-.17-2L20.49,4.37a1.59,1.59,0,0,0-2-.18L17.31,5A9.59,9.59,0,0,0,16,4.47l-.23-1.36a1.59,1.59,0,0,0-1.57-1.33H12.29a1.59,1.59,0,0,0-1.57,1.33l-.24,1.4A9.57,9.57,0,0,0,9.24,5L8.12,4.22a1.62,1.62,0,0,0-2,.17L4.7,5.75A1.59,1.59,0,0,0,4.53,7.8L5.35,9a10.51,10.51,0,0,0-.5,1.25l-1.36.23A1.59,1.59,0,0,0,2.16,12v1.92a1.59,1.59,0,0,0,1.33,1.57l1.4.24A8.35,8.35,0,0,0,5.41,17L4.6,18.09a1.59,1.59,0,0,0,.17,2.05L6.13,21.5a1.62,1.62,0,0,0,2.05.17l1.15-.82a9.13,9.13,0,0,0,1.2.49l.23,1.38a1.58,1.58,0,0,0,1.57,1.33h1.92a1.59,1.59,0,0,0,1.57-1.33l.24-1.38a9,9,0,0,0,1.24-.52l1.13.82a1.62,1.62,0,0,0,2.06-.18l1.35-1.35A1.59,1.59,0,0,0,22,18.05l-.81-1.14a8.82,8.82,0,0,0,.52-1.24l1.37-.22a1.6,1.6,0,0,0,1.33-1.58V12A1.56,1.56,0,0,0,23.1,10.38Zm-.39,3.38-1.81.3a.89.89,0,0,0-.69.64,7.07,7.07,0,0,1-.76,1.84.87.87,0,0,0,0,.94L20.55,19l-1.2,1.2-1.49-1.06a.87.87,0,0,0-.94,0,7.1,7.1,0,0,1-1.84.77.83.83,0,0,0-.64.69l-.3,1.8h-1.7l-.3-1.8a.83.83,0,0,0-.63-.69,7.59,7.59,0,0,1-1.8-.74.87.87,0,0,0-.93,0L7.27,20.21,6.07,19l1.06-1.48a.9.9,0,0,0,0-1,7,7,0,0,1-.78-1.83.86.86,0,0,0-.69-.63l-1.81-.31v-1.7l1.79-.3a.87.87,0,0,0,.69-.64,7,7,0,0,1,.75-1.84.87.87,0,0,0,0-.94L6,6.89l1.2-1.2L8.69,6.75a.87.87,0,0,0,.94,0A7.56,7.56,0,0,1,11.47,6a.86.86,0,0,0,.63-.69l.31-1.82h1.7l.3,1.79a.86.86,0,0,0,.64.7,7.52,7.52,0,0,1,1.88.77.87.87,0,0,0,.94,0l1.48-1.06,1.2,1.2L19.49,8.35a.86.86,0,0,0,0,.94,7.1,7.1,0,0,1,.77,1.84.83.83,0,0,0,.69.63l1.8.31Z" transform="translate(-2.16 -1.78)"/><path class="cls-1" d="M13.29,8a4.95,4.95,0,1,0,4.95,4.94A4.94,4.94,0,0,0,13.29,8Zm0,8.16a3.22,3.22,0,1,1,3.22-3.22A3.22,3.22,0,0,1,13.29,16.13Z" transform="translate(-2.16 -1.78)"/></svg>