<svg id="Layer_1" data-name="Layer 1" xmlns="http://www.w3.org/2000/svg" viewBox="0 0 426.7 426.7"><defs><style>.cls-1{fill:#f7931e;}</style></defs><title>ico-warning-orange</title><path class="cls-1" d="M213.35,0C95.52,0,0,95.52,0,213.35S95.52,426.7,213.35,426.7,426.7,331.18,426.7,213.35,331.28,0,213.35,0ZM192.1,114.94a10.44,10.44,0,0,1,5.15-4.16,24.57,24.57,0,0,1,6.81-1.58,96.18,96.18,0,0,1,18.61.06,28.15,28.15,0,0,1,6.66,1.64,11.27,11.27,0,0,1,5,3.8,10.08,10.08,0,0,1,1.73,5.73l-3.42,119.63a10.61,10.61,0,0,1-1.52,4.78,9.37,9.37,0,0,1-4.51,3.67,21.79,21.79,0,0,1-5.7,1.47,56.57,56.57,0,0,1-7.56.43,53.4,53.4,0,0,1-7.65-.45,21.15,21.15,0,0,1-5.7-1.49,9.28,9.28,0,0,1-4.42-3.63,10.39,10.39,0,0,1-1.5-4.4l-3.44-119.88A10.67,10.67,0,0,1,192.1,114.94Zm43.62,189.14a16.84,16.84,0,0,1-4.23,8.14,17,17,0,0,1-7.93,4.53,45.35,45.35,0,0,1-20.51,0,16.59,16.59,0,0,1-7.93-4.53A17.37,17.37,0,0,1,191,304a44.62,44.62,0,0,1-1-10.15,45.33,45.33,0,0,1,1-10.38,17.6,17.6,0,0,1,4.1-8.22,16.65,16.65,0,0,1,8-4.68,46.06,46.06,0,0,1,20.51,0,17,17,0,0,1,8,4.64,17.33,17.33,0,0,1,4.23,8.31,45.87,45.87,0,0,1,1,10.32A44,44,0,0,1,235.72,304.08Z"/></svg>