<svg id="Layer_1" data-name="Layer 1" xmlns="http://www.w3.org/2000/svg" viewBox="0 0 125.8 28.3"><defs><style>.cls-1{fill:#fff;}.cls-2{fill:#3b53a4;}</style></defs><title>logo-skillshub-white</title><path class="cls-1" d="M13.9,18a8,8,0,0,1-.6,3,6.84,6.84,0,0,1-1.7,2.1,7.45,7.45,0,0,1-2.5,1.3,10.55,10.55,0,0,1-3.1.4,14.92,14.92,0,0,1-2.1-.2c-.6-.1-1.1-.3-1.7-.4A6.12,6.12,0,0,1,1,23.7a1.79,1.79,0,0,1-.7-.5.86.86,0,0,1-.3-.6V20.4c0-.2.1-.4.1-.6s.1-.2.2-.3a.37.37,0,0,1,.3-.1,1.08,1.08,0,0,1,.7.3,2.66,2.66,0,0,0,1,.6c.5.2,1,.4,1.6.6a7.61,7.61,0,0,0,2.1.3A5.9,5.9,0,0,0,7.4,21a5.36,5.36,0,0,0,1.1-.5,2.18,2.18,0,0,0,.7-.9,2.15,2.15,0,0,0,.2-1.1A1.75,1.75,0,0,0,9,17.3a2.84,2.84,0,0,0-1-.9c-.5-.3-.9-.5-1.4-.8l-1.7-.8c-.6-.3-1.1-.6-1.7-.9a5.26,5.26,0,0,1-1.4-1.2,6,6,0,0,1-1.4-4A6.6,6.6,0,0,1,1,6,5.75,5.75,0,0,1,2.5,4.1,7,7,0,0,1,4.8,3a8.63,8.63,0,0,1,2.8-.4,7.57,7.57,0,0,1,1.5.1c.5.1,1,.2,1.4.3s.8.3,1.2.4a2.51,2.51,0,0,1,.7.4c.1.1.2.2.2.3s.1.2.1.3.1.3.1.5V6.4a.75.75,0,0,1-.1.5c0,.1-.1.2-.2.3a.37.37,0,0,1-.3.1,1.42,1.42,0,0,1-.6-.2,9.29,9.29,0,0,0-1-.5,6.94,6.94,0,0,0-1.3-.5C8.7,6.1,8.2,6,7.6,6a2.54,2.54,0,0,0-1.2.2,2,2,0,0,0-.9.5,1.28,1.28,0,0,0-.5.7,2.92,2.92,0,0,0-.2.9,1.75,1.75,0,0,0,.4,1.2,2.84,2.84,0,0,0,1,.9c.5.3,1,.5,1.5.8l1.6.8c.6.3,1.1.6,1.7.9a7.89,7.89,0,0,1,1.5,1.2,4.78,4.78,0,0,1,1,1.7A5.09,5.09,0,0,1,13.9,18Z" transform="translate(0)"/><path class="cls-1" d="M30.6,23.8a.37.37,0,0,1-.1.3c-.1.1-.2.2-.3.2a1.48,1.48,0,0,1-.7.1H27.3c-.2,0-.5-.1-.7-.1a.52.52,0,0,1-.4-.2,1.38,1.38,0,0,1-.3-.4L21.1,16v7.8a.37.37,0,0,1-.1.3c-.1.1-.2.2-.3.2a1.27,1.27,0,0,1-.6.1h-2c-.2,0-.4-.1-.6-.1s-.2-.1-.3-.2-.2-.2-.2-.3V2.1a.37.37,0,0,1,.1-.3c.1-.1.2-.2.3-.2a1.27,1.27,0,0,1,.6-.1,6.7,6.7,0,0,1,2,0c.2,0,.4.1.6.1s.2.1.3.2a.37.37,0,0,1,.1.3V15l4.3-5.8.3-.3a.76.76,0,0,1,.4-.2,1.7,1.7,0,0,1,.7-.1h2c.2,0,.5.1.7.1s.3.1.3.2c.3,0,.3.1.3.2a.75.75,0,0,1-.1.5,2.09,2.09,0,0,1-.4.6l-4.3,4.9,5,7.7.3.6A.6.6,0,0,1,30.6,23.8Z" transform="translate(0)"/><path class="cls-1" d="M37.6,4.1a2.16,2.16,0,0,1-.5,1.7,4.24,4.24,0,0,1-3.8,0,2.16,2.16,0,0,1-.5-1.7,2.66,2.66,0,0,1,.6-1.6,4.24,4.24,0,0,1,3.8,0A2.15,2.15,0,0,1,37.6,4.1Zm-.3,19.7a.37.37,0,0,1-.1.3c-.1.1-.2.2-.3.2a1.27,1.27,0,0,1-.6.1h-2c-.2,0-.4-.1-.6-.1s-.2-.1-.3-.2a.37.37,0,0,1-.1-.3V9.1a.37.37,0,0,1,.1-.3c.1-.1.2-.2.3-.2a1.27,1.27,0,0,1,.6-.1,6.7,6.7,0,0,1,2,0c.2,0,.4.1.6.1s.2.1.3.2a.37.37,0,0,1,.1.3Z" transform="translate(0)"/><path class="cls-1" d="M45.6,23.8a.37.37,0,0,1-.1.3c-.1.1-.2.2-.3.2a1.27,1.27,0,0,1-.6.1h-2c-.2,0-.4-.1-.6-.1s-.2-.1-.3-.2a.37.37,0,0,1-.1-.3V2.1a.37.37,0,0,1,.1-.3c.1-.1.2-.2.3-.2a1.27,1.27,0,0,1,.6-.1,6.7,6.7,0,0,1,2,0c.2,0,.4.1.6.1s.2.1.3.2a.37.37,0,0,1,.1.3Z" transform="translate(0)"/><path class="cls-1" d="M53.9,23.8a.37.37,0,0,1-.1.3c-.1.1-.2.2-.3.2a1.27,1.27,0,0,1-.6.1h-2c-.2,0-.4-.1-.6-.1s-.2-.1-.3-.2a.37.37,0,0,1-.1-.3V2.1a.37.37,0,0,1,.1-.3c.1-.1.2-.2.3-.2a1.27,1.27,0,0,1,.6-.1,6.7,6.7,0,0,1,2,0c.2,0,.4.1.6.1s.2.1.3.2a.37.37,0,0,1,.1.3Z" transform="translate(0)"/><path class="cls-1" d="M68.3,19.6a4.19,4.19,0,0,1-.5,2.2,5.09,5.09,0,0,1-1.3,1.6,5.38,5.38,0,0,1-2,1,10.68,10.68,0,0,1-2.5.3,9.25,9.25,0,0,1-2.9-.4,4.18,4.18,0,0,1-1-.4,2.09,2.09,0,0,1-.6-.4c-.1-.2-.2-.3-.3-.5a4.1,4.1,0,0,1-.1-1.1v-.8a.9.9,0,0,1,.1-.5.22.22,0,0,1,.2-.2c.1,0,.2-.1.3-.1a.76.76,0,0,1,.5.2,3.92,3.92,0,0,0,.9.4c.4.2.8.3,1.2.5a8.75,8.75,0,0,0,1.6.2,3.4,3.4,0,0,0,1-.1c.3-.1.5-.2.8-.3a1.21,1.21,0,0,0,.5-.5,1.88,1.88,0,0,0,.2-.8,1.14,1.14,0,0,0-.3-.8,1.56,1.56,0,0,0-.8-.6,5.36,5.36,0,0,0-1.1-.5c-.4-.2-.9-.3-1.3-.5s-.9-.4-1.3-.6a3.13,3.13,0,0,1-1.1-.9,5.67,5.67,0,0,1-.8-1.3,5.66,5.66,0,0,1-.3-1.8,4.06,4.06,0,0,1,.4-1.9A4.43,4.43,0,0,1,59,9.5a5,5,0,0,1,1.9-1,6.88,6.88,0,0,1,2.5-.3,5.7,5.7,0,0,1,1.3.1,5.27,5.27,0,0,1,1.2.3l.9.3a2.19,2.19,0,0,1,.5.3c.1.1.2.2.2.3s.1.2.1.3a.6.6,0,0,0,.1.4c.1.1,0,.4,0,.6v.7a.6.6,0,0,1-.1.4.22.22,0,0,1-.2.2c-.1,0-.1.1-.2.1s-.3-.1-.5-.2-.5-.3-.8-.4-.7-.3-1.1-.4a6.75,6.75,0,0,0-1.4-.2,3.4,3.4,0,0,0-1,.1c-.2.1-.5.2-.7.3a1,1,0,0,0-.4.5,1.27,1.27,0,0,0-.1.6,1.61,1.61,0,0,0,.3.9,1.56,1.56,0,0,0,.8.6,6.12,6.12,0,0,0,1.2.5c.4.2.9.3,1.3.5s.9.4,1.3.6a4.7,4.7,0,0,1,1.2.9,5.67,5.67,0,0,1,.8,1.3A14.05,14.05,0,0,1,68.3,19.6Z" transform="translate(0)"/><rect class="cls-1" x="72" width="53.8" height="28.3"/><path class="cls-2" d="M78.8,21.9V6h1.7v6.8h8V6h1.7V21.9H88.5V14.3h-8v7.6Z" transform="translate(0)"/><path class="cls-2" d="M93.9,6h1.7V16.3a8.6,8.6,0,0,0,.1,1.6c.1.3.2.7.3,1a3,3,0,0,0,1.4,1.3,5.45,5.45,0,0,0,2.2.5,4.19,4.19,0,0,0,2.2-.5,3,3,0,0,0,1.4-1.3,1.93,1.93,0,0,0,.3-1,11.48,11.48,0,0,0,.1-1.9V6h1.7V16.5a5.48,5.48,0,0,1-1.5,4.2,7.2,7.2,0,0,1-8.6,0,5.53,5.53,0,0,1-1.4-4.2V6Z" transform="translate(0)"/><path class="cls-2" d="M109,21.9V6h4.3A8.52,8.52,0,0,1,118,7a3.5,3.5,0,0,1,1.5,3.1,3.6,3.6,0,0,1-.7,2.2,5.22,5.22,0,0,1-1.9,1.4,5.33,5.33,0,0,1,2.3,1.6,4.38,4.38,0,0,1,.8,2.5,3.56,3.56,0,0,1-1.5,3.2,8.26,8.26,0,0,1-4.6,1.1Zm4.7-14.4h-2.9v5.4h3.4a4,4,0,0,0,2.6-.7,2.43,2.43,0,0,0,.9-2.1,2.06,2.06,0,0,0-1-1.9,4.62,4.62,0,0,0-3-.7Zm.3,6.8h-3.3v6.1H114a5.47,5.47,0,0,0,3.1-.7,2.51,2.51,0,0,0,1-2.3,2.39,2.39,0,0,0-1.1-2.3,5,5,0,0,0-3-.8Z" transform="translate(0)"/></svg>