<svg id="Layer_1" data-name="Layer 1" xmlns="http://www.w3.org/2000/svg" viewBox="0 0 467.38 84.5"><defs><style>.cls-1{isolation:isolate;}</style></defs><title>logo-gov</title><path d="M-76.47,149.32a.74.74,0,0,1-.3.3" transform="translate(115.33 -81.6)"/><path d="M-73.77,128.21a.57.57,0,0,0,.57-.57.57.57,0,0,0-.57-.57.57.57,0,0,0-.56.57.57.57,0,0,0,.56.57Z" transform="translate(115.33 -81.6)"/><path d="M-47.63,104.38H-68V120.8a3.73,3.73,0,0,0,1.6,3.4l7.82,4.67a1,1,0,0,0,.71.32.94.94,0,0,0,.64-.25l7.94-4.74a3.73,3.73,0,0,0,1.6-3.4l0-16.42Zm-13.58,4.75H-63v-4.21h1.76v4.21Zm-1.28,1.47.25-.26-.16-.29.33,0,.2-.35.19.34.33,0-.15.29.25.26-.32.06V111l-.3-.23-.3.23v-.36l-.32-.06Zm-4.91,5.23v-4h2.13v4ZM-67,110l.33,0,.2-.35.19.34.33,0-.15.29.25.26-.32.06V111l-.3-.23-.3.23v-.36l-.32-.06.25-.26L-67,110Zm2.41,4.06.33,0,.2-.35.19.34.33,0-.16.29.25.26-.32.06v.36l-.3-.23-.3.23v-.36l-.32-.06.25-.26-.15-.29Zm1.42-3.21c0-.11-.15-.14-.22-.14s-.27.32-.42.33-.2,0-.2-.13.24-.19.33-.28c-1.32,0-1.35.61-1.55.61s.29-.64.47-.82c-.27,0-.42-.37-.71-.54.14-.2.22-.11.39,0,0-.14.1-.3.41-.3.59,0,.42.57.52.57s0-.57.39-.57c.58,0,1.32,1.5.66,1.5-.29,0-.06-.21-.06-.25Zm-1.51-4.4.25-.26-.15-.28.33,0,.2-.35.19.34.33,0-.16.28.25.26-.32.06v.36l-.3-.23-.3.23v-.36l-.32-.06Zm-.53-1.58v4.21h-2.13v-4.21Zm4,21.7-4.87-2.91A3.49,3.49,0,0,1-67.39,121v-4.62h6.18v10.24ZM-63,115.82v-4h1.76v4Zm8,11.13-2.25,1.34h0a1,1,0,0,1-.59.21.93.93,0,0,1-.6-.22L-60.65,127V116.38h5.71V127Zm0-11.13h-5.71v-10.9h5.71v10.9ZM-48.2,121a3.49,3.49,0,0,1-1.32,2.71l-4.87,2.91V116.38h6.18V121Zm0-5.18h-6.18v-10.9h6.18v10.9Z" transform="translate(115.33 -81.6)"/><path d="M-61.53,120.14c0-.07-.77.25-.56.22a2.19,2.19,0,0,1,.62-.83c0-.26-.37,0-.72.16,1.16-1.66.41-1-.23-.86,1-1.11.76-1.1,0-.75.6-.47.72-1,.63-1.21-.56.75-1.08.64-1.08,1.33a2.79,2.79,0,0,1-.4,1.46c-.3.33-.07-1.22-.86-1.22-.25,0-.85,0-1,.29.16,0,.4.41.4.58s.15.61-.12.61-.59-.57-.59-.84,0-.21,0-.6A2.2,2.2,0,0,0-67,116.9c0,.46.6.57.6,1.15-.25,0-.62-.47-.62-.18s.38.35.38.6-.44-.09-.44.18.24.2.29.44c-.18,0-.33,0-.37.06s.05.19.18.26c-.06.06-.11.19-.11.58,0,1.3.81,1.9,1.41,1.9.43,0,.36-.3.41-.44,0,.22.23-.11.23.27s-.41.23-.41.57.65,0,.65.5a5.92,5.92,0,0,1-.08.84c0,.16.68-.23.64-.3.16.06.16.54.46.53s.24-.5.4-.54c-.09,0,.61.46.61.24,0-.61-.25-.35-.25-.76s.84-.31.7-.5-.19-.07-.28-.35c0,.05-.66-1,.14-.44s.93-1.27.89-1.37Z" transform="translate(115.33 -81.6)"/><path d="M-39.84,124.44a.63.63,0,0,0,.67-.59.63.63,0,0,0-.67-.59.63.63,0,0,0-.67.59.63.63,0,0,0,.67.59Z" transform="translate(115.33 -81.6)"/><path d="M-42.54,126a.63.63,0,0,0,.67-.59.63.63,0,0,0-.67-.59.63.63,0,0,0-.67.59.63.63,0,0,0,.67.59Z" transform="translate(115.33 -81.6)"/><path d="M-74.68,129.75a.63.63,0,0,0,.67-.59.63.63,0,0,0-.67-.59.63.63,0,0,0-.67.59.63.63,0,0,0,.67.59Z" transform="translate(115.33 -81.6)"/><path d="M-72.6,129.93a.63.63,0,0,0,.67-.59.63.63,0,0,0-.67-.59.63.63,0,0,0-.67.59.63.63,0,0,0,.67.59Z" transform="translate(115.33 -81.6)"/><path d="M-14.74,101.89a4.19,4.19,0,0,1,.5,4.43c-.39,0-.32-.53-.39-.82a5.31,5.31,0,0,1-.64-4.5c.46.07.28.64.53.89Z" transform="translate(115.33 -81.6)"/><path d="M-99.64,103.49a6.33,6.33,0,0,0,0,2.82c-.18.18-.14-.18-.32-.14-1.38-1-.75-3-1.1-4.36a.27.27,0,0,1,.35-.07,2.53,2.53,0,0,1,1.06,1.75Z" transform="translate(115.33 -81.6)"/><path d="M-11.69,103.6c.21.39-.18.78-.46,1a.91.91,0,0,1-.89-.39.82.82,0,0,1,.42-.93.92.92,0,0,1,.92.36Z" transform="translate(115.33 -81.6)"/><path d="M-101.8,105.17a1.07,1.07,0,0,1-.46.79c-.21,0-.53,0-.67-.18a.66.66,0,0,1-.14-.75.84.84,0,0,1,.67-.32c.25.11.5.18.61.46Z" transform="translate(115.33 -81.6)"/><path d="M-10.31,105.78a.8.8,0,0,1,0,.57.8.8,0,0,1-1,.32,1,1,0,0,1-.39-.61,1.08,1.08,0,0,1,.6-.64,1.12,1.12,0,0,1,.74.36Z" transform="translate(115.33 -81.6)"/><path d="M-12.33,105.82c.28.14.07.5,0,.71s-.43.46-.75.36-.39-.18-.46-.43a.79.79,0,0,1,.5-.82.87.87,0,0,1,.67.18Z" transform="translate(115.33 -81.6)"/><path d="M-14.92,106.35c0,.39,0,.89-.42,1a.68.68,0,0,1-.82-.5.85.85,0,0,1,.53-.86,1,1,0,0,1,.71.39Z" transform="translate(115.33 -81.6)"/><path d="M-97.94,106.53c.11.36-.25.57-.46.75a.72.72,0,0,1-.71-.39c-.25-.25.07-.47.14-.68a.66.66,0,0,1,1,.32Z" transform="translate(115.33 -81.6)"/><path d="M-100.07,106.64a.74.74,0,0,1-.39.68.65.65,0,0,1-.71-.32.61.61,0,0,1,.32-.82c.39-.14.64.21.78.47Z" transform="translate(115.33 -81.6)"/><path d="M-23.5,106.78a7.52,7.52,0,0,1,.71,2.57c-.14.68.11,1.57-.39,2-.5-.18-.53-.79-.85-1.11-.64-1.25-.07-2.72.14-3.93.28-.11.28.25.39.42Z" transform="translate(115.33 -81.6)"/><path d="M-101.73,107.21c.1.43-.21.64-.46.89a.83.83,0,0,1-.89-.5.9.9,0,0,1,.46-.86.92.92,0,0,1,.89.46Z" transform="translate(115.33 -81.6)"/><path d="M-17.9,108.25a5.13,5.13,0,0,1,.18,3.43l-.21.18A13.84,13.84,0,0,1-19.39,109a4.75,4.75,0,0,1,.43-2c.25-.18.39,0,.5.25a1.41,1.41,0,0,0,.57,1.07Z" transform="translate(115.33 -81.6)"/><path d="M-13.43,107.6a.92.92,0,0,1-.53.86.64.64,0,0,1-.82-.43.77.77,0,0,1,.39-.86c.39-.22.78.14,1,.43Z" transform="translate(115.33 -81.6)"/><path d="M-100,108.71a.77.77,0,0,1-.53.68c-.28.21-.49-.14-.74-.25a.83.83,0,0,1,0-.82c.11-.22.35-.22.57-.29.32.18.64.32.71.68Z" transform="translate(115.33 -81.6)"/><path d="M-98.47,108.53c.14.36-.25.54-.39.71-.43.14-.64-.18-.81-.43s.14-.57.39-.79c.43-.11.64.18.82.5Z" transform="translate(115.33 -81.6)"/><path d="M-12.44,108.42c0,.47-.75.93-.82,1.39a3.59,3.59,0,0,1-2.2,2,1.72,1.72,0,0,1-.81.47c-.07-.71.57-1.36,1-2a5.24,5.24,0,0,1,2.87-1.86Z" transform="translate(115.33 -81.6)"/><path d="M-100.74,109.92a13.09,13.09,0,0,0,1.45,1.68.29.29,0,0,1-.25.36c-1.74-.11-2.91-1.89-3.76-3.14.11-.4.57-.07.82-.11.6.47,1.27.61,1.74,1.22Z" transform="translate(115.33 -81.6)"/><path d="M-11.94,110.42a4.59,4.59,0,0,1-2.2,3.86c-.39.14-.82.54-1.21.29a17.85,17.85,0,0,1,3.12-4.15Z" transform="translate(115.33 -81.6)"/><path d="M-18.75,111.46a.87.87,0,0,1-.6,1c-.39,0-.64-.29-.82-.57a.75.75,0,0,1,.5-.79.6.6,0,0,1,.43-.1c.21.07.32.25.5.43Z" transform="translate(115.33 -81.6)"/><path d="M-102.69,111.78a20.88,20.88,0,0,1,1.92,1.68c-.46.32-1,0-1.56,0-1.21-.43-2-1.47-3.26-1.82,0-.39.49-.25.75-.36a6.51,6.51,0,0,1,2.16.46Z" transform="translate(115.33 -81.6)"/><path d="M-64.71,101.21c-2-.79-3.3,1.29-5.32,1-.25.14-.18.4-.32.57s-.28,0-.39,0c-.11-.85-.39-1.64-.5-2.46-.21-.36-.11-.86-.28-1.21-1.14-3.11,2.77-.75,3.55-2.57.68-1.57-1.31-1.75-1.91-2.86v-.47c-.57-.57-1.17-.75-1.52-1.5A5.18,5.18,0,0,0-71.31,89c0-.21-.18-.5-.49-.39-.68.93-1.17,1.68-1.81,2.57a19.31,19.31,0,0,0-2.09-1.57c-.53-.07-1-.61-1.63-.39a.49.49,0,0,0,.11.53,5.12,5.12,0,0,0,1.74,3.5l.11.54c-.64,1.46-.46,3.14-.64,4.72a26.17,26.17,0,0,1-7.69,10.82c-2,2.29-4.43,4.5-4.75,7.65-.11.5.07,1.11-.32,1.47a12.35,12.35,0,0,1-3.3-1.75c-1.63-1.15-4-1-5-3.08-.43-.82.11-1.64.5-2.25,1.2-1.14,1-3.18.39-4.57-.14,0-.18.14-.28.18-.11,2.11-1.77,3.57-1.14,5.89.14.68.5,1.11.67,1.75a6.49,6.49,0,0,1-.82-.18,8.86,8.86,0,0,0-2.38-.32c-1.63.75-3.87-.18-5.18,1.32-.21,0-.5.07-.43.39.78,0,1.52.21,2.31.18,1.24.21,2.05-.82,2.91-1.29h.21c.35-.36,1-.14,1.42-.21a14.23,14.23,0,0,1,5.82,2.43V117c-.71.32-1.53.53-2.24.93a4.83,4.83,0,0,0-2,2.4c-.57.89.18,1.68.53,2.43,0,.36.07.79.39.93,1.14-1.22.07-2.72.25-4.11a2.91,2.91,0,0,1,2.31-1.86c2-.86,3.48.79,5.1,1.71a24.2,24.2,0,0,1-.17,4.82,4.41,4.41,0,0,1-1.67.25c-2.8.21-5,1.75-7.52,2.61-1.13.39-2.48.36-3.62.78a8.72,8.72,0,0,0,2.73-.11c3.47-.5,6.14-3.18,9.89-2.72l.07.11a8.46,8.46,0,0,1-1.67,2.32c-.11-.39-.14-.72-.5-.93a.66.66,0,0,0-.82.28.49.49,0,0,0,0,.54,1.15,1.15,0,0,0,.78.5c-.07.33-.46.47-.68.75-1,1.68-3,1-4.19,2.18-.18.25-.81.4-.53.79a5.31,5.31,0,0,0,3.65-.93c1.31-1.47,2.7-2.86,4-4.26a4.27,4.27,0,0,1-.78,3.25,4.16,4.16,0,0,0-1-.53.87.87,0,0,0-.64.71,2.1,2.1,0,0,0,.53.72c-1.21.86-2.73.93-4.11,1.32a70.75,70.75,0,0,1-7.73.57c-1.24-.07-2.66.36-3.83,0-1.35.25-2.8-.18-3.9.57-.14.18,0,.36,0,.54,1.63,1.07,3.87.21,5.71.54h14a6.28,6.28,0,0,0,2.87-.54c1.81-1,2.8-2.89,3.73-4.72a7.34,7.34,0,0,0,.74-2.14,3.09,3.09,0,0,1,2.66-2.18,16.25,16.25,0,0,1-.6,5.43c-.21,1.15-1,2.25-.5,3.46.11.57.71.57,1.17.64,4.29-.07,8.58-.25,13.12.07a10.62,10.62,0,0,0,2.41.36c.07-.11.32-.14.21-.36a1.34,1.34,0,0,0-.85-1c-.07-.21-.39-.14-.5-.28-2.27-1.29-5-.61-7.66-.57-1.38.14-2.77.39-3.94-.39-.53-.64-.14-2.68-.14-2.68a51.37,51.37,0,0,1,2.2-6.89,6.11,6.11,0,0,0,.21-1.64,6.9,6.9,0,0,0,.21-2.43,16.68,16.68,0,0,1,1.1-3.32c.21-.53.39-1.11.6-1.64a5.31,5.31,0,0,1,.71-1.86c1.16.73,2.29.71,2.84,2l.49,3c0,.18.14.54.39.32.92-.61.64-2,.64-2.89.21-1.11-.57-1.65-.89-2.61a4.28,4.28,0,0,1-.66-1c-.14-.79-1.86-1.33-1.47-2.29a2.9,2.9,0,0,1,1.2-2,.37.37,0,0,1,.18.25l.42-.3,0-3c1.15,0,2.86.14,4,.14.32.11.57.36.92.39l.28-.39,2.87-.56c-1.22.14-2-1.27-3.12-1.27Z" transform="translate(115.33 -81.6)"/><path d="M-61.59,102.48l.27-.05-.27.05Z" transform="translate(115.33 -81.6)"/><path d="M-92.48,112.43a.79.79,0,0,1-.53.82c-.28-.1-.5-.14-.67-.43s.21-.68.5-.82c.28.07.64.11.71.43Z" transform="translate(115.33 -81.6)"/><path d="M-94.78,112.43a.77.77,0,0,1,.14.82c-.25.22-.64.4-.85.11s-.43-.47-.25-.75.67-.46,1-.18Z" transform="translate(115.33 -81.6)"/><path d="M-45.42,112.82l0,.05" transform="translate(115.33 -81.6)"/><path d="M-18.39,113.42c.14.39-.18.68-.46.82-.36-.11-.82-.18-.82-.64a.68.68,0,0,1,.53-.53.69.69,0,0,1,.75.36Z" transform="translate(115.33 -81.6)"/><path d="M-16.51,113.35c.1.18.35.46.07.64a1.46,1.46,0,0,0-.36.29.69.69,0,0,1-.85-.43c-.07-.39.25-.57.53-.75s.42.11.6.25Z" transform="translate(115.33 -81.6)"/><path d="M-103.68,113.78a.7.7,0,0,1-1,.46,1.5,1.5,0,0,1-.29-.46.66.66,0,0,1,.39-.61.85.85,0,0,1,.85.61Z" transform="translate(115.33 -81.6)"/><path d="M-91.73,114.39c0,.28-.36.54-.6.68a.91.91,0,0,1-.78-.5c0-.29.14-.65.42-.72a.79.79,0,0,1,1,.53Z" transform="translate(115.33 -81.6)"/><path d="M-93.82,114.14a.55.55,0,0,1,.11.57c-.21.18-.53.5-.89.29s-.46-.32-.39-.68a1.51,1.51,0,0,1,.53-.43c.28-.07.43.1.64.25Z" transform="translate(115.33 -81.6)"/><path d="M-11.09,114.57a1,1,0,0,1-.46.68.69.69,0,0,1-.78-.18c-.21-.07-.14-.36-.14-.53a1.24,1.24,0,0,1,.67-.47,1.3,1.3,0,0,1,.71.5Z" transform="translate(115.33 -81.6)"/><path d="M-8.82,114.89a.88.88,0,0,1-.67.64c-.21,0-.6-.11-.53-.43a.63.63,0,0,1,.32-.57.63.63,0,0,1,.89.36Z" transform="translate(115.33 -81.6)"/><path d="M-99.64,115.39a.69.69,0,0,1-.42.86c-.25.14-.5,0-.68-.18a.62.62,0,0,1-.18-.72c.07-.32.39-.25.6-.39a.88.88,0,0,1,.67.43Z" transform="translate(115.33 -81.6)"/><path d="M-97.91,115.71c.11.29-.21.39-.28.61a.6.6,0,0,1-.64.07c-.25-.21-.53-.54-.28-.86.28-.54,1-.25,1.21.18Z" transform="translate(115.33 -81.6)"/><path d="M-13.18,115.53c0,.36-.28.61-.5.82a.61.61,0,0,1-.71-.43.73.73,0,0,1,.39-.68.77.77,0,0,1,.82.29Z" transform="translate(115.33 -81.6)"/><path d="M-10.27,116.1c-.07.32,0,.68-.39.9a1,1,0,0,1-.85-.14.66.66,0,0,1-.14-.75.84.84,0,0,1,.85-.43c.25.14.32.32.53.43Z" transform="translate(115.33 -81.6)"/><path d="M-101,116.85c.14.29-.18.36-.28.5a.71.71,0,0,1-.71-.07c-.25-.14-.14-.5-.11-.68.32-.61,1-.18,1.1.25Z" transform="translate(115.33 -81.6)"/><path d="M-12.51,117.53c.14,0,.07.25,0,.32a2.69,2.69,0,0,1-2.87-.14,10.55,10.55,0,0,0-1.42-.79c.18-.46.82-.43,1.28-.53,1,.14,1.84,1.11,3,1.14Z" transform="translate(115.33 -81.6)"/><path d="M-99.29,117.21c.07.29-.14.4-.21.61s-.43.14-.6.07a.64.64,0,0,1-.25-.89.64.64,0,0,1,1.06.21Z" transform="translate(115.33 -81.6)"/><path d="M-96.17,117.43c.14.32-.07.6-.35.78s-.46-.07-.67-.11c-.18-.25-.5-.54-.18-.82.32-.54,1-.25,1.2.15Z" transform="translate(115.33 -81.6)"/><path d="M-55.16,118.94c-.07.71-1.25-.1-1.08.85a5.46,5.46,0,0,0,.71,2c.34.48.17,1.22.14,1.8a3.22,3.22,0,0,1-1.35,1.15c-1-.1-2.49.51-3-.75a5,5,0,0,1-.57-1.7c.1-.07.24-.07.34-.17s-.27-.38-.24-.61c1.15-.2-.47-1.22.51-1.29.81.85,2.12.58,2.83,1.49a3,3,0,0,0,.51.44c-.13-.85-.54-1.7-.67-2.61a1.19,1.19,0,0,1,.4-1.19c.61-.47,1.11.2,1.45.58Z" transform="translate(115.33 -81.6)"/><path d="M-93,118.71c.11.36-.18.57-.39.75s-.5-.21-.64-.39c-.11-.36.14-.53.35-.72a.77.77,0,0,1,.68.36Z" transform="translate(115.33 -81.6)"/><path d="M-71.17,119.07a4.89,4.89,0,0,1-.42,4c0,.28.07.75-.32.72-1-1.32-.25-3.18.15-4.57.07-.36.5-.5.6-.14Z" transform="translate(115.33 -81.6)"/><path d="M-40.81,119.75a4,4,0,0,1,.07,3.32l-.28.28a8.17,8.17,0,0,1-.82-2.53,8.6,8.6,0,0,0,.43-1.89c.5-.11.46.53.6.82Z" transform="translate(115.33 -81.6)"/><path d="M-90.28,120.14c-.21.43-.82.54-1.21.82a4.22,4.22,0,0,1-3.16.61,3.86,3.86,0,0,1,4-1.68c.07.14.25.07.32.25Z" transform="translate(115.33 -81.6)"/><path d="M-104.85,121.43c1.31.93,1.66,2.21,2.44,3.5.11.14.46.18.32.46s-.57-.22-1-.14a3.92,3.92,0,0,1-2.16-3.68c0-.14.21-.14.36-.14Z" transform="translate(115.33 -81.6)"/><path d="M-42.19,122.53c0,.36,0,.72-.32.82a.64.64,0,0,1-.82-.43c-.1-.25.11-.39.18-.57a.63.63,0,0,1,1,.18Z" transform="translate(115.33 -81.6)"/><path d="M-27.22,124.42a17.8,17.8,0,0,1,.25-2,1.31,1.31,0,0,0,.14-.75c.85-1.14,2.59-.78,3.94-.68a7.6,7.6,0,0,0,1.77.39,1.28,1.28,0,0,1,.89-.18c1.13-.61.39-1.93.46-3l-.43-1.07a4,4,0,0,1-.28-.71c-.21-.25-.35-.72-.57-1-.6-1.57-1.77-2.46-2.77-3.71-1.81-2.36-4.64-3.68-7.48-4.61s-5.64.29-8.16,1.18a2,2,0,0,1-1.38-1.5,7.09,7.09,0,0,1,.67-3.79,13.88,13.88,0,0,1,1-2.39,25.53,25.53,0,0,0,1.45-6.15,3.22,3.22,0,0,0-1.92-2.82,1.94,1.94,0,0,0-2,.39,5.18,5.18,0,0,1-2.3,2.07c-.07.61.67.21.92.43.78.14,1.67-.11,2.3.39a6.06,6.06,0,0,1-1.49,3.68,28.47,28.47,0,0,0-3.23,5.57l-.14-.14.17,8.73c1.13,1.88,2.54,4,4.65,4.74,1.13.93,2.55,2,4.08,1.21.82-.25.89.89,1.28,1.36.42,1.32-.53,2.25-.61,3.46l-.92,2a25.51,25.51,0,0,1-3.65,6c-.53,0-.85.57-1.38.61-.28.39-.85.11-1.2.25-1.1.46-2.66.18-3.41,1.21a.5.5,0,0,0,.29.18c2.16,0,4.57.18,6.88.07a.85.85,0,0,0,.56-.68c-.32-.61.11-1.14.39-1.61.18-.86.74-1.4,1-2.22.74-1.46,1.6-2.89,2.41-4.36l1.1-1.79a12.69,12.69,0,0,1,1.1-2,4.61,4.61,0,0,0,.64-1c0-.36-.14-.5-.36-.75.25-.25.64-.18,1-.25a4,4,0,0,1,2,2.36l.32.93.14.43-.07,1.18.14,1.11a25.6,25.6,0,0,1-.32,5.18c-.61,2.07-3,1.86-4.68,2.32-.42.29-1.24.14-1.24.86a31.72,31.72,0,0,0,6.67.14c.35-.14.43-.47.6-.79s.53-.86.39-1.36c-.39-.5,0-1.29-.14-2a1.08,1.08,0,0,0,0-.68c.28-1,.21-2.29.43-3.29l.14-1.36Z" transform="translate(115.33 -81.6)"/><path d="M-9.78,123c-1.14,1.61-2.34,3.43-4.33,4-.14,0-.28.07-.36-.11,1.21-1.29,1.85-3.29,3.73-3.75a1.15,1.15,0,0,1,1-.14Z" transform="translate(115.33 -81.6)"/><path d="M-106.59,124.78c-.18.14,0,.46-.35.5a.57.57,0,0,1-.74-.32.63.63,0,0,1,.46-.79c.28.14.57.25.64.61Z" transform="translate(115.33 -81.6)"/><path d="M-96.38,125.28c.11.32-.25.32-.43.39a3.86,3.86,0,0,1-4.08-1c0-.14,0-.29.14-.32,1.45.36,3.16.07,4.36,1Z" transform="translate(115.33 -81.6)"/><path d="M-104.64,124.82a1,1,0,0,1,.07.54.79.79,0,0,1-.89.32,1.16,1.16,0,0,1-.46-.46.85.85,0,0,1,.61-.68,1.07,1.07,0,0,1,.67.29Z" transform="translate(115.33 -81.6)"/><path d="M-71.41,125c.07.32-.21.54-.43.68a.7.7,0,0,1-.74-.29.52.52,0,0,1,.25-.68c.32-.07.82,0,.92.29Z" transform="translate(115.33 -81.6)"/><path d="M-8.43,125.14c.11.36-.21.53-.46.75a.77.77,0,0,1-.67-.11c0-.18-.25-.32-.18-.57a.76.76,0,0,1,.81-.43,4.28,4.28,0,0,1,.5.36Z" transform="translate(115.33 -81.6)"/><path d="M-6.09,125c.21.32,0,.57-.14.82a.48.48,0,0,1-.64.21c-.21-.21-.5-.32-.53-.64s.32-.5.53-.61.5.21.78.21Z" transform="translate(115.33 -81.6)"/><path d="M-108.08,126c0,.25-.18.39-.25.61s-.36.22-.57.14a1,1,0,0,1-.53-.57.93.93,0,0,1,.64-.72.91.91,0,0,1,.71.54Z" transform="translate(115.33 -81.6)"/><path d="M-33.4,126a1,1,0,0,1,0,.47c-.21.29-.5.54-.85.36s-.46-.43-.35-.75A.7.7,0,0,1-33.4,126Z" transform="translate(115.33 -81.6)"/><path d="M-102.37,126.57c-.07.25-.17.5-.49.54s-.43-.25-.6-.4c0-.32,0-.64.28-.82a.65.65,0,0,1,.81.68Z" transform="translate(115.33 -81.6)"/><path d="M-105.78,126.64a.75.75,0,0,1-.36.79.83.83,0,0,1-1-.5,1,1,0,0,1,.64-.82c.32,0,.5.36.68.54Z" transform="translate(115.33 -81.6)"/><path d="M-31.05,126.57a.71.71,0,0,1-.39.86c-.43.14-.78-.21-1-.5.18-.29.21-.68.64-.75a.81.81,0,0,1,.71.4Z" transform="translate(115.33 -81.6)"/><path d="M-104.11,126.71c.1.25-.11.36-.18.54-.18,0-.28.22-.5.14s-.43-.25-.46-.5.21-.53.46-.68a.66.66,0,0,1,.67.5Z" transform="translate(115.33 -81.6)"/><path d="M-10.38,127a1.08,1.08,0,0,1-.6.57c-.28.07-.46-.18-.67-.29s-.11-.46,0-.64a.71.71,0,0,1,1.31.36Z" transform="translate(115.33 -81.6)"/><path d="M-7.68,127.14a.91.91,0,0,1-.85.61c-.32-.14-.68-.39-.43-.82.14-.14.21-.29.43-.32a.68.68,0,0,1,.85.54Z" transform="translate(115.33 -81.6)"/><path d="M-24.53,127.39c.18.46-.25.61-.53.82a1.59,1.59,0,0,1-.67-.29.82.82,0,0,1,.5-.93.86.86,0,0,1,.71.39Z" transform="translate(115.33 -81.6)"/><path d="M-34.28,127.82c.18.07.11.32.07.43-.21.14-.49.5-.82.28a.6.6,0,0,1-.35-.68.66.66,0,0,1,1.1,0Z" transform="translate(115.33 -81.6)"/><path d="M-32.3,128.07a.49.49,0,0,1-.28.57c-.25.25-.53,0-.78-.11a.57.57,0,0,1,0-.53.77.77,0,0,1,.46-.28c.25.07.53.07.64.36Z" transform="translate(115.33 -81.6)"/><path d="M-92.48,128.11c.21.21,0,.46-.07.68a.69.69,0,0,1-.89.18c-.36-.14-.32-.61-.25-.89.21-.07.21-.32.5-.32a1.23,1.23,0,0,1,.71.36Z" transform="translate(115.33 -81.6)"/><path d="M-20.73,128.25c.07.35-.29.5-.53.57-.42.14-.64-.18-.82-.47,0-.21.21-.36.28-.54.5-.21.81.14,1.06.43Z" transform="translate(115.33 -81.6)"/><path d="M-22.65,128.25c.14.35-.25.53-.39.71a.72.72,0,0,1-.78-.14c-.18-.11-.18-.32-.18-.54.21-.18.32-.39.57-.47a.92.92,0,0,1,.78.43Z" transform="translate(115.33 -81.6)"/><path d="M-6.66,128.68c.07.5-.57.25-.82.39-1.49.89-3.4.21-4.82-.32.11-.46.64-.28.92-.46,1.53-1,3.09.21,4.61.28l.11.11Z" transform="translate(115.33 -81.6)"/><path d="M-103.72,128.25l-.14.25a5.75,5.75,0,0,1-4.58.82l-.14-.21a6.41,6.41,0,0,1,4.75-1l.11.11Z" transform="translate(115.33 -81.6)"/><path d="M-17.12,128.5a.82.82,0,0,1-.35.68.71.71,0,0,1-.92-.39c-.11-.29.18-.57.46-.68s.67,0,.82.39Z" transform="translate(115.33 -81.6)"/><path d="M-97.37,128.64c-.14.29-.07.57-.43.72a.77.77,0,0,1-.89-.46c-.11-.39.18-.5.36-.68.42-.22.75.1,1,.43Z" transform="translate(115.33 -81.6)"/><path d="M-99.89,128.82c.1.25-.11.39-.18.57a.65.65,0,0,1-.71.11c-.25-.21-.5-.46-.39-.86a2,2,0,0,1,.57-.39.8.8,0,0,1,.71.57Z" transform="translate(115.33 -81.6)"/><path d="M-14.63,129.64a.78.78,0,0,1-.57.65.82.82,0,0,1-.67-.36.56.56,0,0,1,.14-.68c.07-.1.32-.1.46-.18a.77.77,0,0,1,.64.57Z" transform="translate(115.33 -81.6)"/><path d="M-102.51,129.25c.1.29-.14.39-.18.61a5.31,5.31,0,0,1-.78,1.54c-.68.82-1.63.82-2.59,1.07l-.14-.28a9.29,9.29,0,0,1,3.58-3l.11.07Z" transform="translate(115.33 -81.6)"/><path d="M-16.41,130c.07.43-.28.5-.53.68a.81.81,0,0,1-.71-.43c-.11-.4.25-.54.46-.72a.71.71,0,0,1,.78.46Z" transform="translate(115.33 -81.6)"/><path d="M-98.44,130c0,.07,0,.14.11.18,0,.39-.32.5-.53.68a1,1,0,0,1-.78-.36.6.6,0,0,1,.35-.82c.32,0,.75,0,.85.32Z" transform="translate(115.33 -81.6)"/><path d="M-9.88,131.11c.35,0,.42-.47.81-.54a.87.87,0,0,1,.85.4c.14.43-.18.64-.46.82s-.78-.22-.75.25a1.1,1.1,0,0,1,.5.72c-.07.14-.32.11-.42,0a4.5,4.5,0,0,1-2.55-2.21c-.14-.32-.81-.57-.43-.86a3.27,3.27,0,0,1,2.45,1.4Z" transform="translate(115.33 -81.6)"/><path d="M-6.48,130a.55.55,0,0,1,0,.68c-.18.36-.71.21-1,.18s-.35-.35-.28-.64a1.14,1.14,0,0,1,.53-.46,1,1,0,0,1,.82.25Z" transform="translate(115.33 -81.6)"/><path d="M-19.35,131.93a5.15,5.15,0,0,1,.78,1.43c-.07.11-.25.07-.32.07-1.21-.68-2.76-1.43-3.23-2.86-.11-.14-.39-.32-.35-.57A3.3,3.3,0,0,1-20,131c.25.36.53.53.67.93Z" transform="translate(115.33 -81.6)"/><path d="M-100.42,130.57c.14.32-.14.57-.32.71a.82.82,0,0,1-.82-.28c-.25-.4.21-.72.5-.86s.46.25.64.43Z" transform="translate(115.33 -81.6)"/><path d="M-14.92,131.39c0,.21-.25.36-.35.5-.28,0-.57.14-.82-.11-.07-.18-.25-.46,0-.64.39-.5,1-.11,1.2.25Z" transform="translate(115.33 -81.6)"/><path d="M-6.09,131.89a.84.84,0,0,1-.5.89.92.92,0,0,1-.85-.32c-.18-.21,0-.43,0-.68a.89.89,0,0,1,.92-.25,1.83,1.83,0,0,1,.42.36Z" transform="translate(115.33 -81.6)"/><path d="M-30.63,136.82c0,.43-.78.32-1.1.64a7.6,7.6,0,0,1-3.72.54v-.22a5.27,5.27,0,0,1,4.82-1Z" transform="translate(115.33 -81.6)"/><path d="M-82.37,138.36a.69.69,0,0,1-.54.61.69.69,0,0,1-.6-.36c-.14-.43.21-.6.46-.78a.83.83,0,0,1,.68.53Z" transform="translate(115.33 -81.6)"/><path d="M-31.23,138.75a1,1,0,0,1-.53.82c-.32.07-.53-.11-.78-.25s-.07-.39-.11-.57a.76.76,0,0,1,1.42,0Z" transform="translate(115.33 -81.6)"/><path d="M-24.17,138.89a5.82,5.82,0,0,1-3.05,1.25l-1.91,0-.18-.14c1.17-1.43,3.3-1.43,5.14-1.29v.21Z" transform="translate(115.33 -81.6)"/><path d="M-92.09,139.75a.66.66,0,0,1-.46.68.65.65,0,0,1-.74-.32.65.65,0,0,1,.28-.82c.39-.25.78.18.92.46Z" transform="translate(115.33 -81.6)"/><path d="M-90.32,140.11c.11.18-.07.29-.14.46a.59.59,0,0,1-.67,0,.45.45,0,0,1-.21-.61c.11-.22.32-.18.43-.32a1,1,0,0,1,.6.46Z" transform="translate(115.33 -81.6)"/><path d="M-103.9,143.72c-.36.43-.92-.11-1.31-.32-1.24-.72-1.21-2.11-2.45-2.93.14-.43.46,0,.71,0a5,5,0,0,0,.74.39c1.21.68,1.49,1.82,2.3,2.89Z" transform="translate(115.33 -81.6)"/><path d="M-.52,129.86a2.83,2.83,0,0,0-2.66-1.47,2.45,2.45,0,0,0-2,1.47,1.81,1.81,0,0,0,.67,2,.54.54,0,0,0,.71-.18c.18-.46-.32-.46-.39-.82a1.18,1.18,0,0,1,.39-1.25c.35-.36,1-.18,1.38-.18a2.49,2.49,0,0,1,1.06,1,2.88,2.88,0,0,1,0,1.9,3.17,3.17,0,0,1-2.2,1.78c-2.95.43-35.25.29-35.25.29-3.79.36-8.12-.72-11.38,1.29a5.62,5.62,0,0,0-2.62,3.82,25.55,25.55,0,0,0-2.77,2.83l-.11-.11c.18-.86.57-1.61.74-2.47a14.82,14.82,0,0,0,.92-2.46c1.35-2.18,2.62-4.39,4.72-5.93.89-1.18,2.45-1,3.79-1a9.42,9.42,0,0,0,4.93.72.33.33,0,0,0,.1-.25c-.5-.46-1.31-.64-1.88-1.11-1.42-.68-2.77.21-4.25.11-.07-.07-.14-.11-.11-.22a21,21,0,0,1,4.4-2.36,30.08,30.08,0,0,1,3.86-1.53c.53,0,1-.47,1.53-.14l1.88-.5c.07,0,.14.14.28.11,1.6-.53,3.62,0,5.42-.07l.25.21,1.7.43c.64.07.92.83,1.6.86.35-.5-.39-.72-.57-1A3.89,3.89,0,0,1-24,126l-.35.39c-.21.39.11.68.42.82s.43-.11.6-.18c.46-.32,0-.64.11-.93a33.71,33.71,0,0,1,7.55,2.14,6.09,6.09,0,0,0,2.06.68,9.26,9.26,0,0,0-2.69-1.43c-.6-.36-1.46-.39-1.92-.89.11-.18.36-.11.46-.25a5.28,5.28,0,0,0,3.09-2c.07-.21.46-.14.42-.43-.32-.36-.85.11-1.28.07-1.49.28-2.13,2-3.62,2.35-1.81-.43-3.65-.86-5.46-1.32a11.06,11.06,0,0,1-2.66-.57l-2-.18h-3.62c0-.07-.14-.11-.11-.21,1.28-.32,2.38-1.07,3.65-1.39l9.51-4.36a23.27,23.27,0,0,0,2.69-2.93.68.68,0,0,0-.39-.68.6.6,0,0,0-.71.14c-.43.32,0,.71,0,1.11a6,6,0,0,1-1.63,1.39c-.14,0-9.79,4.39-9.79,4.39a24.19,24.19,0,0,1-4.33,1.61l-2.06.32a1.35,1.35,0,0,1-.89.82,8.43,8.43,0,0,1-1.63.47c-4.61,1.78-9.4,3.68-13.05,7.32a4.09,4.09,0,0,0,.36-1.5,3,3,0,0,0-.39-1.57c-.08-.2-.34-.77-.26-1l-.52.33a5,5,0,0,0-.28,3c.11.65.64,1.39.14,2-1.7,2.07-2.66,4.57-3.79,6.93-.43-.07-.64-.47-.82-.86a11.92,11.92,0,0,0,2.52-5.22c.25-.18.07-.64.32-.86-.07-.57.32-1.14,0-1.61.23-.78-1-1.5-.23-2l-.67.32c-1.53,2,.79,5-.95,6.93v.14A6.14,6.14,0,0,1-57.51,139c-.85-.36-1.17-1.32-1.67-2a3.17,3.17,0,0,1-.32-3.32c.32-1-.21-1.93-.32-2.86l-.35-.21a4.13,4.13,0,0,0-.5,4.18c.36.64.39,1.53.92,2.07a11.54,11.54,0,0,0,1.53,2.64c.14.36-.21.43-.39.61-.39-.25-.32-.82-.67-1.07a25.9,25.9,0,0,0-4.54-6.54c-.07-.32-.39-.61-.21-1a2.62,2.62,0,0,0,.46-2.71c-.07-.18-.28-.39-.25-.57l-.53-.43c.07,1.25-.74,2.36-.39,3.68v.07a67.66,67.66,0,0,0-11.81-7.14l-.33.91a24.45,24.45,0,0,1,3.8,1.94,24.26,24.26,0,0,1,3.55,1.9c4.82,2.68,8,7.11,10.18,12,0,.39.39.82.14,1.21a19.56,19.56,0,0,0-2.69-2.71,5.21,5.21,0,0,0-2.7-4c-.53-.78-1.67-.86-2.55-1.1l-12.91-.07c-10.5-.14-20.07.32-30.5.14-1.45-.14-3.23-.64-3.65-2.18a2.39,2.39,0,0,1,0-2,2.16,2.16,0,0,1,1.81-1,1.89,1.89,0,0,1,1.21,1c0,.46-.39.89-.57,1.29,0,.14.18.43.43.32a1.68,1.68,0,0,0,.92-1.14c0-.25.14-.61-.11-.79a2.37,2.37,0,0,0-1.67-1.46,3,3,0,0,0-2.41.82,3,3,0,0,0-.57,3,4.79,4.79,0,0,0,3.83,2.86l34.51.14c3.37.18,7.16-.39,10.57.29a4.08,4.08,0,0,1,2.87,2.71c0,.07-.14,0-.25,0a15.37,15.37,0,0,0-10.07-2.07,12.28,12.28,0,0,0-4,.82,2,2,0,0,1-1.74-.57c-1.27-1.14-3.51-1.07-5.14-.64,0,.11,0,.21,0,.25,1.74-.14,2.77,1.36,4.33,1.54.35.07.64-.33,1,0a32.4,32.4,0,0,1-4.93,2.21c-.53-.11-.82-.61-1.24-.89-.67-.75-1.92-.43-2.84-.5-.32.07-.6-.14-.82,0A3,3,0,0,0-87.55,140c.88.39,1.91,0,2.73.5a3.4,3.4,0,0,1-.74.5c-1.67.65-3.05,2.14-4.9,2a6.33,6.33,0,0,1-5.25-1.71,3.56,3.56,0,0,0-3.58-2.07c-.1.07-.25.07-.21.25.78.47,1.38,1.39,2.16,1.93.5.61,1.45,0,1.91.68a6.27,6.27,0,0,0,2.31,1,10,10,0,0,0,1.84.5l-.25.14a30.25,30.25,0,0,1-10.57,1c-1.06,0-2.09-.36-3.16-.32a2,2,0,0,0,.85.5,2.12,2.12,0,0,1-1,.29,6.29,6.29,0,0,0-1.35.36,3.6,3.6,0,0,0-1.52.36,7.13,7.13,0,0,1-2,1.64c0,.14,0,.36.14.36.67-.29,1.53-.07,2.2-.36,1.17-.1,1.85-1.39,2.77-1.93,1-.78,2.41-.6,3.62-.43.71.18-.07.46.14.93.28.26.53.54.92.43a.59.59,0,0,1,.25-.18.82.82,0,0,0,0-.89c.5-.32,1.17,0,1.7-.18,1.35,0,2.69-.32,4-.36.21,0,.46-.25.67,0-.11.29-.46.32-.32.71s.43.46.71.54c.36-.14.67-.39.53-.86-.07-.25-.36-.28-.53-.39.75-.36,1.59-.47,2.34-.82a6.6,6.6,0,0,0,1.49-.5c.46,0,.85-.46,1.28-.29A7.31,7.31,0,0,1-89,145c-.57,1.89-1,4.39,0,6.21.11,0,.14,0,.21-.07a8.52,8.52,0,0,1,.32-5.86c.5-3,3.62-3.93,5.85-5.07l.11.15c-.6,1.57-1.49,3.07-1.35,5,.07.32-.14.64,0,.86a3.77,3.77,0,0,0,1.31-1.64c.25-1.61-.67-3.61,1-4.79,2.91-1.14,5.64-2.64,9-2.68.11.11.36-.07.39.14-.71.79-1.74,1.54-2.06,2.5-1.13,1.57-1.1,4.25-.6,6.18.32,1.11-.64,1.72-1.1,2.57-.22.3-.28.82-.49,1.17l.7.08a3.81,3.81,0,0,0,1.21-2.36,1,1,0,0,0,.67.71c.25-.39-.21-.68-.25-1.07.57-.32.82.4,1.28.54a9,9,0,0,0,2.16.5l.25-.25c-.78-1.21-2.34-1.43-3.69-1.5a7.11,7.11,0,0,1-.64-4.07,6.26,6.26,0,0,1,.71-2.21,5.37,5.37,0,0,1,1-1.36,4.94,4.94,0,0,1,2.23-1.22h.11a.18.18,0,0,0,0,.11c-1,.75-1.06,1.78-1.63,2.71a3,3,0,0,0-.32,3.11c.22.46.11,1.18.6,1.5a7.85,7.85,0,0,0,.74-2.18c-.11-1.18-.81-2.28-.14-3.43a2.93,2.93,0,0,1,1.91-1.57c2-.18,3.66.82,5.35,1.57.36.25,1,.46,1,1a3,3,0,0,1-1.31,2.39,3,3,0,0,1-3.23,0,2.45,2.45,0,0,1-.57-2.18,1.47,1.47,0,0,1,1.56-.57c.35.18.67.54,1.14.32a.45.45,0,0,0,.14-.57c-.39-.21-.53-.75-1.07-.82a2.3,2.3,0,0,0-1.95.4,2.51,2.51,0,0,0-.82,2.5A3.05,3.05,0,0,0-67,144a4.11,4.11,0,0,0,4.36-1.5,4.78,4.78,0,0,0,.78-1.54,9.29,9.29,0,0,1,3.65,4.72,7.65,7.65,0,0,1,0,1.79l1.24.1a1.18,1.18,0,0,1,.11-.85,10.76,10.76,0,0,1,3.65-5.86c.6-.36.46.46.6.72a4.77,4.77,0,0,0,3.08,2.71A3.89,3.89,0,0,0-45.7,143c.46-.86,1-2.11.25-3a2.45,2.45,0,0,0-1.95-.93,2.41,2.41,0,0,0-2,1.32c0,.28,0,.61.21.75s.43,0,.53-.18c.07-.53.53-.78,1-1.07a1.1,1.1,0,0,1,1.13.22,1.87,1.87,0,0,1,.5,1.39,2.15,2.15,0,0,1-1.17,1.68,3.6,3.6,0,0,1-3.41-.32,7.82,7.82,0,0,1-1-1.57,2.61,2.61,0,0,1,0-1.64,12,12,0,0,1,5.07-1.79A3.63,3.63,0,0,1-44.64,139c1.63,1.68-.35,4.07.78,5.93.43-.07.43-.64.6-1,.53-1.29-.14-2.68-.46-3.93a7.33,7.33,0,0,0-1.35-2.11.89.89,0,0,1,.43-.07,8.86,8.86,0,0,1,2.16,1.86,9.6,9.6,0,0,1,1.38,5.86c-.28,1.07-1.42,1.57-2.3,2a3.34,3.34,0,0,0-1,1.15c.43.25,1,0,1.45-.18.67-.25,1.06-1.11,1.53-1.5.07,0,0,.14.07.21,0,.39-.18.93.18,1a12.92,12.92,0,0,0,.32-1.82,3.53,3.53,0,0,1,.67,1.78c.32.64.85,1.5,1.7,1.61.21-.32,0-.65-.1-.93-.11-.89-.85-1.36-1.35-2-1.24-1.71-.67-4.39-1.63-6.32a7.55,7.55,0,0,0-1.92-2.64l.14-.14a21.1,21.1,0,0,1,4.79.86c2,1,4.79.75,5.71,3.29a9.41,9.41,0,0,0,2,3.86l.11-.07a1.46,1.46,0,0,0,0-1.32c-.21-1.78-1.77-2.21-2.59-3.72l.11-.14a25.17,25.17,0,0,1,2.59.82,7.64,7.64,0,0,1,5.18,6.47,14,14,0,0,1-1.31,6.11c-.11.29-.6.61-.28.86.39-.29.46-.75.67-1.07a10,10,0,0,0,1.17-7.18c0-.47-.57-.82-.32-1.28a1.12,1.12,0,0,0,.61.32c.21-.14.53-.14.67-.39s.18-.46,0-.65a1,1,0,0,0-1-.25,1.77,1.77,0,0,0-.43.79,7.38,7.38,0,0,0-1.28-1.89l.07-.11c1.6.54,3,1.32,4.68,1.75a2.31,2.31,0,0,0,1.24.39,34.91,34.91,0,0,0,4.36,1.1c1.06-.1,2,.4,3,.14v-.07l0,0c-.39-.5-1.24,0-1.7-.39a26.67,26.67,0,0,1-7-1.75c0-.1.18-.07.28-.07a.92.92,0,0,0,.57-.89,1,1,0,0,0-.82-.39,1,1,0,0,0-.53.61.88.88,0,0,0,.53.68c-.07.07-.21,0-.32,0-1.1-.5-2.16-1-3.23-1.47-.39-.07-.71-.39-1.1-.46-.81-.4-1.63-.78-2.45-1.11a56,56,0,0,0-7.2-2.68l-1.52-.43c-.89-.25-1.78-.47-2.66-.72-3-.75-7.06-.82-9.68.82-.43-.14-.67.53-.89.11.75-2,2.91-2.61,4.86-2.68,14.22-.14,27.56-.25,41.56-.47a4.49,4.49,0,0,0,4.08-2,3.59,3.59,0,0,0,.25-3.29ZM-56.91,143a3.2,3.2,0,0,0-.39,1.25l-.14.08c.11-.54-.43-.86-.28-1.43-.28-.43-.28-1-.53-1.43s.28-.82.53-1.22c.5.22.67.68,1,1.11.21.61-.25,1.07-.21,1.64Z" transform="translate(115.33 -81.6)"/><path d="M-18.43,140.79c0,.1.21.14.14.32a7.43,7.43,0,0,1-4.75,1.5c-.14,0-.28.14-.46.11s-.14-.18-.07-.25a5.42,5.42,0,0,1,5.14-1.67Z" transform="translate(115.33 -81.6)"/><path d="M-24.14,141.36c.14.5-.18.79-.57,1a1,1,0,0,1-.78-.57c-.1-.29.14-.43.25-.61a.67.67,0,0,1,1.1.21Z" transform="translate(115.33 -81.6)"/><path d="M-91.56,141.43a.73.73,0,0,1-.18.75.72.72,0,0,1-.64.18c-.25,0-.39-.32-.46-.53a.77.77,0,0,1,.46-.68c.28,0,.6,0,.81.29Z" transform="translate(115.33 -81.6)"/><path d="M-97.91,143.75V144a2.78,2.78,0,0,1-2.3-.53,4.79,4.79,0,0,0-1.88-1.79c0-.11-.21-.25,0-.32,1.77,0,2.84,1.43,4.18,2.39Z" transform="translate(115.33 -81.6)"/><path d="M-13,141.39c-.82,1.22-1.53,2.72-3,3.25-.25,0-.46.36-.68.1a6.54,6.54,0,0,1,3.16-3.39,1.18,1.18,0,0,1,.5,0Z" transform="translate(115.33 -81.6)"/><path d="M-89.5,141.82c0,.39-.25.46-.5.68-.28,0-.42-.18-.6-.39s.18-.5.35-.68a.73.73,0,0,1,.75.39Z" transform="translate(115.33 -81.6)"/><path d="M-8.57,142c-.32.47-.18,1.14-.5,1.65-.71.82-1.31,1.75-2.45,1.93-.18-.35.25-.71.43-1a5.1,5.1,0,0,1,2.34-2.75l.18.21Z" transform="translate(115.33 -81.6)"/><path d="M-108.9,142.36a.7.7,0,0,1,0,.79.83.83,0,0,1-.82.14.67.67,0,0,1-.28-.86c.21-.32.85-.5,1.1-.07Z" transform="translate(115.33 -81.6)"/><path d="M-110.92,142.79c0,.18.14.32.1.5a.81.81,0,0,1-.49.43.74.74,0,0,1-.82-.46.7.7,0,0,1,.35-.75.72.72,0,0,1,.85.28Z" transform="translate(115.33 -81.6)"/><path d="M-106.74,143c.07.28.14.78-.28.86s-.78-.14-1.07-.43a.81.81,0,0,1,.43-.72,1,1,0,0,1,.92.29Z" transform="translate(115.33 -81.6)"/><path d="M-100.92,143.47c0,.25,0,.6-.25.68s-.5.11-.67.07c-.07-.21-.46-.39-.25-.64a1.34,1.34,0,0,1,.5-.39c.21.11.53,0,.67.29Z" transform="translate(115.33 -81.6)"/><path d="M-5.17,143.72c-.11.25-.25.57-.53.57s-.64-.07-.81-.39.18-.61.46-.71.82.14.89.53Z" transform="translate(115.33 -81.6)"/><path d="M-11.66,143.89c0,.29-.28.5-.43.61a.85.85,0,0,1-1.1-.54.93.93,0,0,1,.6-.64.94.94,0,0,1,.92.57Z" transform="translate(115.33 -81.6)"/><path d="M-7.26,143.82a.74.74,0,0,1-.32.61.82.82,0,0,1-.85-.14c-.32-.28-.07-.53.14-.75s.92-.14,1,.29Z" transform="translate(115.33 -81.6)"/><path d="M-109.82,144.43a.76.76,0,0,1-.43.89.81.81,0,0,1-.78-.5.68.68,0,0,1,.35-.75.82.82,0,0,1,.85.36Z" transform="translate(115.33 -81.6)"/><path d="M-13.43,144.82a.79.79,0,0,1-.5.93c-.29.07-.46-.07-.68-.25s-.32-.57,0-.75a.7.7,0,0,1,1.21.07Z" transform="translate(115.33 -81.6)"/><path d="M-90.74,145.22c.14.39-.28.46-.39.68s-.43.11-.53,0-.39-.43-.28-.75c.18-.14.25-.29.46-.36.39-.1.53.25.74.47Z" transform="translate(115.33 -81.6)"/><path d="M-5.81,145.47c.07.25-.14.36-.18.54a.94.94,0,0,1-.81.14c-.32-.18-.32-.46-.32-.78.21-.14.25-.32.49-.39a.81.81,0,0,1,.82.5Z" transform="translate(115.33 -81.6)"/><path d="M-8,145.57c.14.43-.25.64-.53.75s-.36-.07-.39.14a9.34,9.34,0,0,1,2.2,1.89v.28a4.8,4.8,0,0,1-3.51-1.35c-.25-.18-.67-.18-1-.43.46-.46,1.31-.28,2-.32.46-.5-.53-.86.07-1.28.21,0,.35-.25.64-.18a1.22,1.22,0,0,1,.53.5Z" transform="translate(115.33 -81.6)"/><path d="M-22.51,145.61c.07.18-.14.4-.18.57a.7.7,0,0,1-.78.14c-.18-.25-.46-.46-.36-.82a.74.74,0,0,1,1.31.1Z" transform="translate(115.33 -81.6)"/><path d="M-101.8,146.86c-.11.32-.25.53-.61.57A.7.7,0,0,1-103,147c0-.25.14-.39.18-.57.39-.33,1.1-.11,1.07.43Z" transform="translate(115.33 -81.6)"/><path d="M-98.93,146.4c0,.5-.53.78-.71,1.28a3.62,3.62,0,0,1-2.83,2.36c-.14-.32.46-.72.6-1a7.4,7.4,0,0,1,2.73-2.61Z" transform="translate(115.33 -81.6)"/><path d="M-23.36,146.89c0,.4-.32.68-.6.82s-.57-.14-.74-.28-.11-.57,0-.86c.43-.43,1-.07,1.31.32Z" transform="translate(115.33 -81.6)"/><path d="M-21.16,147.15a.89.89,0,0,1-.64.78c-.07-.11-.25,0-.35-.07a.79.79,0,0,1-.46-.64c.18-.18.25-.46.5-.5s.85,0,1,.43Z" transform="translate(115.33 -81.6)"/><path d="M-93.44,147.11a.78.78,0,0,1-.53.75.7.7,0,0,1-.67-.43c-.07-.32.25-.54.43-.71.43-.14.53.18.78.39Z" transform="translate(115.33 -81.6)"/><path d="M-91,147.25a.85.85,0,0,1-.67.61c-.25-.07-.53-.15-.64-.43s.25-.54.5-.71a.75.75,0,0,1,.82.53Z" transform="translate(115.33 -81.6)"/><path d="M-13.53,149.75c.18.14.5.32.42.57-.57.25-1-.4-1.56-.5A7.35,7.35,0,0,1-16.51,147c.32-.33.67.07,1,.18a7,7,0,0,1,2,2.61Z" transform="translate(115.33 -81.6)"/><path d="M-12.22,147.25a.89.89,0,0,1-.07.78c-.21.36-.67.29-1,.21s-.5-.5-.28-.82.43-.36.67-.46.42.18.67.28Z" transform="translate(115.33 -81.6)"/><path d="M-87.73,148.18c0,.28.11.71-.25.89a.69.69,0,0,1-.85-.43c-.18-.43.21-.5.42-.71s.46.07.67.25Z" transform="translate(115.33 -81.6)"/><path d="M-21.27,150.5a5.22,5.22,0,0,1,.92,2.54c-.11.25.18.5,0,.68h-.14c-1.59-1.14-1.95-2.75-2.55-4.36a.29.29,0,0,1-.14-.36c.36-.32.6.32,1,.43l1,1.07Z" transform="translate(115.33 -81.6)"/><path d="M-83.12,149.29s0,.07,0,.07c-1.42,1-3.4,1.61-5,.64a.28.28,0,0,1,.18-.32,7.35,7.35,0,0,1,3.12-.68l1.7.28Z" transform="translate(115.33 -81.6)"/><path d="M-91.2,149.47c-1.2.75-2.31,2.22-3.79,2.57-.28.11-.46.5-.82.28.64-1.93,2.73-3,4.61-3.14v.29Z" transform="translate(115.33 -81.6)"/><path d="M-23.36,151.07c.11.29,0,.68-.28.75a.49.49,0,0,1-.67,0c-.32-.14-.32-.46-.32-.71s.35-.28.53-.39c.32.07.57.07.74.36Z" transform="translate(115.33 -81.6)"/><path d="M-26.3,151.25a2,2,0,0,1-1.28.93c-1.21.43-2.3-.14-3.37-.43,0-.29.39-.18.57-.36a7.74,7.74,0,0,1,3.62-.18.38.38,0,0,1,.46,0Z" transform="translate(115.33 -81.6)"/><path d="M-91.2,152.29c-.1.14-.14.47-.43.57a.73.73,0,0,1-.71-.14c-.07-.22-.32-.39-.14-.64s.35-.32.57-.39a.75.75,0,0,1,.71.61Z" transform="translate(115.33 -81.6)"/><path d="M-89.11,152.61a1.33,1.33,0,0,1-.5.68.79.79,0,0,1-.71-.25.85.85,0,0,1-.11-.72c.07-.18.32-.21.5-.32.35,0,.67.32.82.61Z" transform="translate(115.33 -81.6)"/><path d="M-24,153a1,1,0,0,1-.25.68.61.61,0,0,1-.78.14c-.25,0-.32-.32-.43-.5s.14-.47.25-.72A.77.77,0,0,1-24,153Z" transform="translate(115.33 -81.6)"/><path d="M-22.47,152.9c0,.18.14.36.07.5s-.35.64-.78.46c-.21.07-.32-.21-.43-.28-.14-.36,0-.89.43-1s.53.18.71.28Z" transform="translate(115.33 -81.6)"/><path d="M-90.39,153.93a1,1,0,0,1-.35,1c-.39.07-.89.07-1-.39a1,1,0,0,1,.43-1,.85.85,0,0,1,1,.46Z" transform="translate(115.33 -81.6)"/><path d="M-88.36,153.79a3.26,3.26,0,0,1-1.28,2.78c-.57.11-1.14.64-1.7.29v-.18c.74-1.07,2.09-1.89,3-2.89Z" transform="translate(115.33 -81.6)"/><path d="M-29.6,154.61c.14.22-.11.4-.21.57s-.6.14-.85,0a.55.55,0,0,1-.18-.72.74.74,0,0,1,.46-.39c.32,0,.61.25.78.5Z" transform="translate(115.33 -81.6)"/><path d="M-84.82,156.25c.49.82.21,1.93.49,2.82-.6.07-.85-.61-1.24-1-.78-1.07-.68-2.5-1-3.75a.19.19,0,0,1,.25-.07,9,9,0,0,1,1.34,1.5c-.07.25.21.25.18.46Z" transform="translate(115.33 -81.6)"/><path d="M-27.83,154.9c0,.29-.32.36-.5.54a1.32,1.32,0,0,1-.67-.33c-.11-.36.18-.46.35-.64a.59.59,0,0,1,.82.43Z" transform="translate(115.33 -81.6)"/><path d="M-23.61,158.07c0,.11,0,.32-.21.25H-24c-1-.93-2.06-2-1.91-3.39l.21,0c1,.82,2,1.72,2.06,3.18Z" transform="translate(115.33 -81.6)"/><path d="M-26.27,156.93a.84.84,0,0,1-.32.68c-.39.11-1,.07-1.07-.47,0-.36.36-.53.53-.71a.73.73,0,0,1,.85.5Z" transform="translate(115.33 -81.6)"/><path d="M-28.61,157.68c-.5,1.32-1.84,2-2.77,3-.18-.11-.11-.4-.07-.54a4.94,4.94,0,0,1,2.73-3.22c.57.07,0,.46.1.75Z" transform="translate(115.33 -81.6)"/><path d="M-25.95,158.75c0,.32-.32.46-.5.64a1,1,0,0,1-.78-.39c0-.36.25-.46.46-.64a.73.73,0,0,1,.82.39Z" transform="translate(115.33 -81.6)"/><path d="M-52.34,93.9a.88.88,0,0,1,.88.88.88.88,0,0,1-.88.88H-62.85a.88.88,0,0,1-.88-.88.88.88,0,0,1,.88-.88Zm-7.44,1.53c1,0,.06-1.25-.5-1.25h-1c-1,0-.06,1.25.49,1.25Zm4.31,0c1,0,.06-1.25-.5-1.25h-1c-1,0-.06,1.25.5,1.25Zm3.18-1.25h-.39c-1,0-.15,1.25.4,1.25s.73-1.25,0-1.25Z" transform="translate(115.33 -81.6)"/><path d="M-53.26,106l2,.77,2-.77-.78,3,1.56-.32L-49,110.4l.53,1.72-1.39-.37.61,3.19-2-.77-2,.77.82-3.19-1.6.45.43-1.79-.43-1.72,1.53.25-.75-3Zm3,5.34c.45,0,.49-.62.49-1.16,0-1.22-1,0-1.46-1.15-.36,1-1.35.07-1.35,1.11,0,.72,0,1.2.71,1.2Zm-2-1.1c0,.47.62.15,1.09.15s1.08.31,1.08-.15c0-.66-.62-.43-1.08-.43s-1.09-.23-1.09.43Z" transform="translate(115.33 -81.6)"/><polygon points="57.37 28.72 57.37 28.34 57.03 28.28 57.29 28.01 57.13 27.7 57.47 27.74 57.68 27.38 57.89 27.74 58.24 27.7 58.07 28.01 58.34 28.28 58 28.34 58 28.72 57.68 28.48 57.37 28.72 57.37 28.72"/><polygon points="55.81 30.73 55.81 30.35 55.47 30.29 55.74 30.01 55.57 29.71 55.92 29.75 56.13 29.38 56.33 29.75 56.68 29.71 56.51 30.01 56.78 30.29 56.44 30.35 56.44 30.73 56.13 30.49 55.81 30.73 55.81 30.73"/><polygon points="58.45 30.47 58.45 30.1 58.12 30.03 58.38 29.76 58.22 29.46 58.56 29.5 58.77 29.13 58.98 29.49 59.33 29.46 59.16 29.76 59.43 30.03 59.09 30.1 59.09 30.47 58.77 30.24 58.45 30.47 58.45 30.47"/><polygon points="58.77 31.97 58.77 31.76 58.58 31.72 58.73 31.57 58.63 31.4 58.83 31.42 58.95 31.21 59.06 31.42 59.26 31.4 59.17 31.57 59.31 31.72 59.13 31.76 59.13 31.97 58.95 31.84 58.77 31.97 58.77 31.97"/><polygon points="56.31 33.69 56.31 33.05 55.73 32.94 56.18 32.47 55.9 31.95 56.49 32.01 56.85 31.39 57.2 32 57.8 31.95 57.52 32.47 57.97 32.94 57.4 33.05 57.4 33.69 56.85 33.28 56.31 33.69 56.31 33.69"/><polygon points="57.56 0 58.81 3.07 61.97 2.14 60.37 5.04 63.06 6.95 59.81 7.49 60.01 10.8 57.56 8.58 55.11 10.8 55.31 7.49 52.06 6.95 54.75 5.04 53.15 2.14 56.31 3.07 57.56 0 57.56 0"/><path d="M-69.21,150.48c-.38.14-.52.24-.43.63l.45,1.88a1.68,1.68,0,0,1-.12,1.23,2.27,2.27,0,0,1-1.29.76,2.56,2.56,0,0,1-1.52,0,1.12,1.12,0,0,1-.74-1l-.47-2c-.12-.49-.3-.46-.7-.4l0-.15,2.38-.57,0,.14c-.46.13-.68.19-.55.71l.47,2c.08.34.27,1.15,1.29.91a1.15,1.15,0,0,0,1-1.58l-.43-1.8c-.09-.36-.22-.54-.83-.42l0-.15,1.55-.37,0,.15Z" transform="translate(115.33 -81.6)"/><path d="M-65.69,150.88a1.51,1.51,0,0,0-1.63-.79c-.37.08-.72.34-.63.73s.23.42.88.54l1.13.2a1.26,1.26,0,0,1,1,.92c.12.52-.18,1.34-1.48,1.63a6.34,6.34,0,0,1-1.25.07c-.15,0-.16.15-.16.25l-.21,0-.32-1.47.2,0a1.51,1.51,0,0,0,1.73.94c.85-.19.75-.78.73-.86-.09-.4-.45-.47-.95-.54l-.51-.09c-1.31-.22-1.43-.73-1.49-1s0-1.21,1.3-1.51a6.31,6.31,0,0,1,1.15-.05c.16,0,.18-.14.19-.26l.21,0,.28,1.29-.2,0Z" transform="translate(115.33 -81.6)"/><path d="M-61,153.22l-2.57.25v-.15c.52-.09.69-.11.65-.62l-.3-3.18c-.5.07-1.24.17-1.29,1.16l-.21,0-.09-1.22,4.32-.42.13,1.22-.21,0c-.23-.95-1-.91-1.48-.88l.3,3.18c.05.52.22.51.76.49v.16Z" transform="translate(115.33 -81.6)"/><path d="M-55,153.22l-1.48,0-1.46-1.93h-.2l0,1.19c0,.49.15.51.63.57v.15l-2.44,0V153c.49,0,.64-.05.65-.55l.05-2.68c0-.52-.21-.54-.62-.57V149l2.33,0c.51,0,2,.08,2,1.11,0,.75-.76.92-1.16,1l1.42,1.76a.35.35,0,0,0,.29.12v.16Zm-3.13-2.16c.95,0,1.32-.11,1.34-.91a.76.76,0,0,0-.86-.89c-.4,0-.41.06-.45.25l0,1.55Z" transform="translate(115.33 -81.6)"/><path d="M-50.25,153.83l-2.32-.29,0-.15c.45,0,.58,0,.6-.17a3,3,0,0,0-.23-.84l-1.61-.2a3.73,3.73,0,0,0-.41.74c0,.23.31.29.56.33l0,.15-1.46-.18,0-.15c.39,0,.52-.19.79-.62l2-3.1.2,0,1.21,3.37c.24.69.33.9.68.94l0,.15Zm-2-1.7-.54-1.55-.86,1.38,1.4.18Z" transform="translate(115.33 -81.6)"/><path d="M-46,154.68l-4.11-.76,0-.15c.41,0,.62.05.69-.31l.52-2.89c.07-.39-.22-.46-.54-.53l0-.15,2.48.45,0,.15c-.5-.07-.72-.11-.82.42l-.51,2.82c-.05.29.1.36.57.45a1.78,1.78,0,0,0,2-.84l.21,0-.54,1.3Z" transform="translate(115.33 -81.6)"/><path d="M-43.31,155.29l-2.48-.52,0-.15c.39.05.67.08.74-.28l.6-2.88c.08-.39-.25-.47-.57-.56l0-.15,2.48.52,0,.15c-.34-.06-.68-.12-.76.28l-.6,2.88c-.08.38.2.46.59.56l0,.15Z" transform="translate(115.33 -81.6)"/><path d="M-38.28,155.94l-2.33-.24v-.15c.45,0,.58,0,.6-.18a3.07,3.07,0,0,0-.25-.84l-1.62-.17a3.4,3.4,0,0,0-.4.74c0,.23.32.29.56.32v.15l-1.46-.15v-.15c.4,0,.52-.2.78-.63l1.93-3.14.2,0,1.28,3.34c.26.68.35.9.7.92v.15Zm-2.05-1.65-.58-1.54-.83,1.4,1.4.15Z" transform="translate(115.33 -81.6)"/><path d="M-56.77,107c0-1.46-.82-.09-1.27-1.33-.33,1-1.31.17-1.31,1.29a.89.89,0,0,0,.32.82v.43a.2.2,0,0,0,.2.2h1.55a.2.2,0,0,0,.2-.2v-.47a1,1,0,0,0,.31-.74Zm-1.26.28c-.42,0-1,.29-1-.21,0-.71.48-.56.91-.56S-57,106.3-57,107c0,.51-.57.21-1,.21Z" transform="translate(115.33 -81.6)"/><path d="M-44.08,124.85a.63.63,0,0,0,.67-.59.63.63,0,0,0-.67-.59.63.63,0,0,0-.67.59.63.63,0,0,0,.67.59Z" transform="translate(115.33 -81.6)"/><path d="M-47.22,103.25a3.7,3.7,0,0,0-.32.63.34.34,0,0,0,.32.35.34.34,0,0,0,.32-.35s-.32-.63-.32-.63Z" transform="translate(115.33 -81.6)"/><path d="M-68.65,103.25a3.71,3.71,0,0,0-.31.63.33.33,0,0,0,.32.35.33.33,0,0,0,.32-.35s-.32-.63-.32-.63Z" transform="translate(115.33 -81.6)"/><path d="M-63.29,103.25a3.7,3.7,0,0,0-.31.63.33.33,0,0,0,.32.35.33.33,0,0,0,.32-.35s-.32-.63-.32-.63Z" transform="translate(115.33 -81.6)"/><path d="M-57.94,103.25a3.71,3.71,0,0,0-.31.63.33.33,0,0,0,.32.35.33.33,0,0,0,.32-.35s-.32-.63-.32-.63Z" transform="translate(115.33 -81.6)"/><path d="M-52.58,103.25a3.7,3.7,0,0,0-.31.63.33.33,0,0,0,.32.35.33.33,0,0,0,.32-.35s-.32-.63-.32-.63Z" transform="translate(115.33 -81.6)"/><path d="M-68.63,110.6a3.67,3.67,0,0,1,.31.62.33.33,0,0,1-.32.35.33.33,0,0,1-.32-.35s.32-.62.32-.62Z" transform="translate(115.33 -81.6)"/><path d="M-68.63,117.74a3.71,3.71,0,0,1,.31.63.33.33,0,0,1-.32.35.33.33,0,0,1-.32-.35s.32-.63.32-.63Z" transform="translate(115.33 -81.6)"/><path d="M-67.78,123.4a3.76,3.76,0,0,1,.31.63.33.33,0,0,1-.32.35.34.34,0,0,1-.32-.35s.32-.63.32-.63Z" transform="translate(115.33 -81.6)"/><path d="M-63.29,126.4A3.7,3.7,0,0,1-63,127a.33.33,0,0,1-.32.35.33.33,0,0,1-.32-.35l.32-.63Z" transform="translate(115.33 -81.6)"/><path d="M-47,110.6a3.66,3.66,0,0,0-.31.62.33.33,0,0,0,.32.35.33.33,0,0,0,.32-.35s-.32-.62-.32-.62Z" transform="translate(115.33 -81.6)"/><path d="M-47,117.74a3.7,3.7,0,0,0-.31.63.33.33,0,0,0,.32.35.33.33,0,0,0,.32-.35s-.32-.63-.32-.63Z" transform="translate(115.33 -81.6)"/><path d="M-47.81,123.4a3.77,3.77,0,0,0-.31.63.33.33,0,0,0,.32.35.33.33,0,0,0,.32-.35s-.32-.63-.32-.63Z" transform="translate(115.33 -81.6)"/><path d="M-52.3,126.4a3.71,3.71,0,0,0-.31.63.33.33,0,0,0,.32.35A.33.33,0,0,0-52,127l-.32-.63Z" transform="translate(115.33 -81.6)"/><path d="M-57.77,129.59a3.73,3.73,0,0,0-.31.63.34.34,0,0,0,.32.35.34.34,0,0,0,.32-.35s-.32-.63-.32-.63Z" transform="translate(115.33 -81.6)"/><path d="M-49.06,118.93c.07.1.24.13.45.06l.2-.58s-.23-.27-.38-.23c-.57.14-1.18.2-1.52.75a1.12,1.12,0,0,0,.54.88c.2-.07.23.14.37.24a.24.24,0,0,1-.23.31c-.4-.41-1.11.14-1.41-.38.13-.51.4-1.09,0-1.56,0-.1.2-.2.1-.31-.17-.47-.68-.1-1-.1a1.29,1.29,0,0,0-1.21.61.94.94,0,0,0,.27.51c.14,0,.2,0,.24.14l-.34.2a.74.74,0,0,1,.13.37c-.23.1-.47-.24-.57-.41s0-.75-.34-.82a1.46,1.46,0,0,0-.29.1,1,1,0,0,0-.14.56,2.31,2.31,0,0,0,.13.6,5.85,5.85,0,0,1,1.28,1.25c-.3.61-.3,1.46-1,1.8a.57.57,0,0,0-.2.54l.17.14c.44-.24,1.28-.31,1.21-1.05a2.71,2.71,0,0,1,.64-.88.7.7,0,0,1,.78.37,1.33,1.33,0,0,1-.91,1c-.07.07,0,.17,0,.27s.51.14.71.1c.57-.37.81-1.05,1.31-1.26.07.34-.67.44-.2.78.3-.07.71,0,.91-.37-.24-.58.81-.85.17-1.36,0-.51.54-.71.5-1.26-.2-.54-.84-.54-1-1.05a.75.75,0,0,1,.71,0Z" transform="translate(115.33 -81.6)"/><path d="M-73.66,125.11a.64.64,0,0,0,.67-.59.63.63,0,0,0-.67-.59.63.63,0,0,0-.67.59.63.63,0,0,0,.67.59Z" transform="translate(115.33 -81.6)"/><path d="M-108.39,145.4a.65.65,0,0,0,.66-.63.64.64,0,0,0-.66-.63.64.64,0,0,0-.66.63.65.65,0,0,0,.66.63Z" transform="translate(115.33 -81.6)"/><path d="M-86.29,150.33h0l0-.06h0v0s0,0,0,0h-.07s0,0,0,0v-.08s0,0,0,0h.07s.06,0,.06,0,0,0,0,0l0,0h0Zm-.09-.06s0,0,0,0a0,0,0,0,0,0,0h0v0Z" transform="translate(115.33 -81.6)"/><path d="M-86.2,150.25a0,0,0,0,0,0,0,0,0,0,0,0,0,0s0,0,0,0h0s0,0,0,0,0,0-.05,0h0v0h0a0,0,0,0,0,0,0s0,0,0,0,0,0,0,0h0s0,0,0,0,0,0,0,0h0v0Z" transform="translate(115.33 -81.6)"/><path d="M-86,150.21h0l0,.1h0l0-.08h0l0,.08h0l0-.1h0l0,.06h0l0,0v0h0l0,.06h0l0-.06h0Z" transform="translate(115.33 -81.6)"/><path d="M-86,150.32a.06.06,0,0,0,.06,0h0a0,0,0,0,1,0,0,0,0,0,0,1,0,0,0,0,0,0,1,.05.05s0,.06-.1.07Zm.05,0h0s0,0,0,0,0,0,0,0,0,0,0,0Z" transform="translate(115.33 -81.6)"/><path d="M-85.85,150.25h0a0,0,0,0,1,0,0s0,0-.06,0h0s0,0,0,0,0,0,0,0h0l0-.06h.07v0h-.06v0Z" transform="translate(115.33 -81.6)"/><path d="M-45.45,102.4v0H-70.16v0h0l0,18.89c0,1.93.82,3.61,1.94,4.13l9.5,6a1.16,1.16,0,0,0,.87.39,1.15,1.15,0,0,0,.77-.3l9.65-6.13c1.13-.52,1.94-2.2,1.94-4.13l0-18.89Zm-.7,19.14a4.23,4.23,0,0,1-1.6,3.29l-9.32,5.93h-.05a1.16,1.16,0,0,1-.72.26,1.15,1.15,0,0,1-.73-.26l-9.3-5.92a4.23,4.23,0,0,1-1.6-3.29V103.06h23.32v18.47Z" transform="translate(115.33 -81.6)"/><path d="M-54.48,129.93l.3-.14a1.65,1.65,0,0,0-.3.14Z" transform="translate(115.33 -81.6)"/><path d="M-73.12,155.75l-2.33.27,0-.15c.44-.08.57-.1.55-.3a3.16,3.16,0,0,0-.42-.77L-77,155a3.42,3.42,0,0,0-.23.81c0,.23.37.21.62.19l0,.15-1.46.17,0-.15c.38-.09.46-.31.63-.79l1.21-3.49.2,0,2,3c.4.61.54.8.88.75l0,.15Zm-2.36-1.17-.9-1.38-.51,1.54,1.4-.17Z" transform="translate(115.33 -81.6)"/><path d="M-32.19,146.89a3.74,3.74,0,0,0-2.41-2.22,3.11,3.11,0,0,0-3.09.79c-1.28,1-.39,2.75-.35,4.14,0,.29,0,.5-.25.64-5.14-.47-9.93-1.75-15-2.29-1.18-.2-2.35-.15-3.47-.39l-1.43-.15a60,60,0,0,0-13,1.46c-.89.29-1.88.36-2.77.68-.64-.11-1.17.36-1.77.18l-1.17.27a1,1,0,0,1-.39,0c-.57-1.47,1.14-2.36.6-3.79a2.6,2.6,0,0,0-2.45-1.47A3,3,0,0,0-82,146.22c-.81,1.78.21,3.64.53,5.4-.07.57.57,1.21,0,1.68a4.85,4.85,0,0,0-4-.83c-.43.22-1.21-.07-1.42.43,1.52.82,3.47.71,5.18.64.21-.07.36-.11.53,0,.14.93-.18,2.18.39,3a3.63,3.63,0,0,0,2.73,1.18c3.26-.11,6.17-1.07,9.15-1.82a13.08,13.08,0,0,1,1.31-.29,25.86,25.86,0,0,1,5-.68,8.9,8.9,0,0,0-1.49,3.22c-.43,1,.74,1.11,1.1,1.64a27.88,27.88,0,0,0-2.91,1.5c-2.27-.07-4.19.79-6.32,1,0,.47.75.32.82.79-.11.32-.42.36-.67.54,0,.21,0,.25.21.29.21-.25.67-.07.89-.32.71,0,1.31-.21,2-.25a6.55,6.55,0,0,0,1.81-.72c.74-.21,1.21-.71,2-.93,1.06,0,2-.35,3-.43v.22c-.82,1.32-1.67,2.68-2.52,3.93a.4.4,0,0,0,.25.57,1.83,1.83,0,0,0,1.38-.21c.74-1.29,1.42-2.5,2-3.82.25-1.21,1.13-1.86,2-2.68.14-.07.36-.28.5-.07a16.13,16.13,0,0,0-1.7,2.5,3,3,0,0,0,.53,3.11c.43.36,1.06.25,1.63.28,1.38-.71,3.16.43,4.22-.93.64-.11.74.64,1.1,1,.6.18,1.24.78,1.84.35,0-.39-.46-.75-.67-1.11-.43-.75-1-1.36-1.35-2a6.94,6.94,0,0,1-.57-1.32,11.49,11.49,0,0,0,1.92.75,11.62,11.62,0,0,1,1.92.57,6.54,6.54,0,0,0,1.77,1.36c.88.43,1.88.5,2.8.86.35,0,.89.32,1.13,0a1.49,1.49,0,0,0-.53-.39c-.11-.46.64-.21.89-.57a.5.5,0,0,0-.41-.27c-.51-.27-1.77-.36-2.11-.55a8.37,8.37,0,0,1-1.24-.39c-2.13,0-3.3-1.93-5-2.64.39-.36,1-.64,1.24-1.18a2,2,0,0,0,.11-1.89c-.32-1.11-1.74-1-2.55-1.57l.11-.11a14.7,14.7,0,0,1,3.83.5c3.4.46,6.56,1.75,10.11,1.82,2,0,4.4.11,5.36-1.78.18-1.11.39-2.22.57-3.32.42-1.79,1.59-3.43,1.42-5.39Zm-38.3,16.29-.5-.47c.25-.32.78-.14,1.17-.36a6.19,6.19,0,0,1,3-.43,8.63,8.63,0,0,1-3.69,1.25Zm22.14-.57a15.54,15.54,0,0,0,3.78.9c-.11.49-1,0-.87.71-1.1-.43-2.38-.64-3.19-1.5.07,0,.14-.14.28-.11Zm-33.27-15.18a2.58,2.58,0,0,1,.85-1.79,3,3,0,0,1,2.8.11,1.34,1.34,0,0,1,.57.68,1.59,1.59,0,0,1-.53,1.6h-.35a3.92,3.92,0,0,1,.21-1.6c0-.43-.39-.47-.67-.65a2.07,2.07,0,0,0-1.6.36,1.61,1.61,0,0,0-.46,1.57c.25.39,0,.93.18,1.36l-.11.15c-.42-.46-1-1-.88-1.79Zm1.66,1c.53.39,1.28.21,1.91.32a1.34,1.34,0,0,1-.18,1.22c-.6-.15-1.38-.07-1.7-.65.07-.25-.11-.61,0-.89Zm-.11-1.2c.11-.28,0-.71.39-.79s.64-.07.67.22a7.1,7.1,0,0,1-.18,1.25.82.82,0,0,1-.89-.68Zm16.63,11.47a3.89,3.89,0,0,1,1.14-3.22,2,2,0,0,1,1.53.07c-.92.25-2.09.46-2.31,1.64,0,.47-.11.71.11,1.11.39.68,1.28.39,1.77.93a.46.46,0,0,1-.32.42,13.4,13.4,0,0,1-1.92-1Zm-1.27,2.47c.85-.36,1.74-1.11,2.7-.79a4.92,4.92,0,0,1-2.7.79Zm3.37.36a27.39,27.39,0,0,1-1.74,3.36c-.07.18-.36.22-.57.25,0-.5.5-.89.71-1.32.74-1,1-2,1.81-2.93.21.21-.21.36-.21.64Zm.89-2.07v.14h-.07v-.18h.14a.21.21,0,0,0-.14,0Zm-.32-1a8.42,8.42,0,0,1-1.7-.43c-.36-.35,0-.75,0-1.14a1.81,1.81,0,0,1,2.59-.46,3.82,3.82,0,0,1-.89,2Zm.78,0a6,6,0,0,1,.57-1.5,3,3,0,0,1-.57,1.5Zm.39-2.89c-.46-.11-.71-.65-1.21-.65a2.85,2.85,0,0,1,1.35,0c.18.25-.11.47-.14.68Zm.43,1.07h0v-.39h0v.39Zm0,1.64c0-.14.07-.32.1-.5s.36.14.43.25a.52.52,0,0,1-.53.25Zm.53-2.21a4,4,0,0,1,.53-1.32,2.08,2.08,0,0,1,1,.14c.07.71,1,1.68,0,2.29-.32.14-.78.47-1.13.14a1,1,0,0,1-.35-1.25Zm2.59-1c-.07-.32.32-.07.46-.21l1.1.07c-.57-.07-1.28,1.25-1.56.14Zm1.77.47c-.43.14-.75.64-1.17.75a1.45,1.45,0,0,1,1.17-.75Zm-1.49,2.21v.11h0v-.11Zm.07,2.18c0,.07,0,.18-.07.25l-.81-.64a.86.86,0,0,1,.89.39Zm-1-1.1a.26.26,0,0,1,.32,0Zm-.5-.54c.14-.21.32-.54.57-.54,0,0,0,.07.07.11a1.82,1.82,0,0,1-.64.43Zm-.81-.07h-.14l.21-.22c.11.07,0,.14-.07.22Zm.11,1.36c.46-.5.89.29,1.06.68.53.79,1.91,1.5,1.38,2.58-.68.61-1.74,0-2.48.5-.39,0-1.06.07-1.28-.32a20.87,20.87,0,0,1,1.31-3.43Zm-1,.68.18-.28a15.11,15.11,0,0,1-1.17,2.57c-.21-.86.68-1.54,1-2.29Zm1.56,4.25c-.67,0-1.7.43-2.34-.14,0-.29-.28-.43-.25-.72.57-.21,1.06.47,1.6,0a14.14,14.14,0,0,1,2.48.07c.39.11,1-.64,1.07.11-.28,1.18-1.7.35-2.55.71Zm2.06-5.14v-.1h.07v.1Zm.21,2.25c0,.36.39.5.18.82a1.09,1.09,0,0,1-.18-.82Zm1,2.14-.18.07c-.18-.15-.11-.54-.07-.75.21.18.39.43.25.68Zm1.77.86c0,.11-.22.11-.28,0a19.08,19.08,0,0,1-2.24-4.29l.14,0c.85,1.39,1.53,2.93,2.38,4.29Zm1.31-3.29a.14.14,0,0,0-.07.14,4.06,4.06,0,0,1-2.48-1.11l0-.18a6.69,6.69,0,0,1,2.59,1.14Zm-.92-4.75c.43.1.46.57.5.93a1.91,1.91,0,0,1-1.2,1.75,1.92,1.92,0,0,1-1.39.14,2.27,2.27,0,0,0,2.13-1.21l0-1.61Zm-.78-.14c.17.5.5,1,.32,1.57-.35.68-1.06.68-1.7.83a1.12,1.12,0,0,1-.82-.25.37.37,0,0,0-.14-.36c.11-.47-.82-.93-.18-1.32s1.92-1.75,2.52-.46Zm18-2.61c-.28.36,0,.93-.39,1.25,0,.65-.53,1-1,1.22-4.22.93-8.37-.5-12.45-1.22a43.37,43.37,0,0,0-18.19-.28c-2.73.5-5.39,1.14-8,1.89a11.59,11.59,0,0,1-5,0c-1.27-.6-.74-2.25-1.14-3.39a18.31,18.31,0,0,0-.28-2.46,2.14,2.14,0,0,1-.14-.93c.53.07,1.06.46,1.63.61,3,.57,5.64-.39,8.41-.89a60.87,60.87,0,0,1,8.19-1.25,52.79,52.79,0,0,1,9.5.32c1,0,1.84.29,2.8.36,2,.25,3.83.79,5.85.93a10.31,10.31,0,0,0,1.06.18c3.19.5,6.77,1.4,9.82,0a26.06,26.06,0,0,1-.71,3.71Zm-1-4.36c0,.57-.5.43-.78.64h-.85a1.94,1.94,0,0,1-.11-1,7.38,7.38,0,0,1,1.74.36Zm-.39-.89c.39-.39-.1-2.64,1-1.18,0,.28,0,.72-.25.93s-.46.43-.75.25Zm2.87-.36a2,2,0,0,1-1.52,1.22c0-.86.82-1.47.53-2.43a2.14,2.14,0,0,0-2.23-.71c-.32.22-.18.57-.28.9l-.14,1.18c-.71,0-.74-.64-1-1.14a2.06,2.06,0,0,1,1.1-1.86,2.45,2.45,0,0,1,2.06.07,1.59,1.59,0,0,1,1.17.75c.53.5.39,1.39.28,2Z" transform="translate(115.33 -81.6)"/><line class="cls-1" x1="126.17" y1="53.14" x2="465.86" y2="53.14"/><rect x="126.17" y="52.57" width="339.69" height="1.13"/><path d="M20.31,119H15l-.63,1.47a3.26,3.26,0,0,0-.31,1.21,1,1,0,0,0,.51.93,4.31,4.31,0,0,0,1.48.27v.41H11v-.41a2.24,2.24,0,0,0,1.33-.67,8.91,8.91,0,0,0,1.29-2.27l5.39-12h.21l5.43,12.35A7.51,7.51,0,0,0,26,122.46a1.74,1.74,0,0,0,1.07.4v.41H19.73v-.41H20a2.28,2.28,0,0,0,1.23-.24.59.59,0,0,0,.24-.51,1.36,1.36,0,0,0-.07-.41q0-.1-.33-.83Zm-.38-.82L17.69,113l-2.31,5.19Z" transform="translate(115.33 -81.6)"/><path d="M38.07,112.89V121a3,3,0,0,0,.22,1.48,1.28,1.28,0,0,0,.9.37v.4H35v-1.39a5.35,5.35,0,0,1-1.49,1.29,3.43,3.43,0,0,1-1.67.41,2.45,2.45,0,0,1-1.56-.54,2.63,2.63,0,0,1-.92-1.26,9.28,9.28,0,0,1-.23-2.52v-4.12a3,3,0,0,0-.22-1.47,1.32,1.32,0,0,0-.9-.38v-.41H32.2V120a5.89,5.89,0,0,0,.11,1.43,1,1,0,0,0,.33.49.87.87,0,0,0,.53.17,1.29,1.29,0,0,0,.72-.21A4.6,4.6,0,0,0,35,120.69v-5.55a3,3,0,0,0-.22-1.47,1.32,1.32,0,0,0-.9-.38v-.41Z" transform="translate(115.33 -81.6)"/><path d="M47.25,112.6l.17,3.54H47a5.57,5.57,0,0,0-1.4-2.15,2.34,2.34,0,0,0-1.45-.58,1.09,1.09,0,0,0-.78.31.94.94,0,0,0-.32.71.91.91,0,0,0,.22.58,10.63,10.63,0,0,0,2,1.56,8.2,8.2,0,0,1,2.15,1.88,3,3,0,0,1,.52,1.73,3.65,3.65,0,0,1-.43,1.7,3,3,0,0,1-1.22,1.28,3.49,3.49,0,0,1-1.74.44,6.06,6.06,0,0,1-2-.47,1.66,1.66,0,0,0-.46-.12q-.37,0-.61.56h-.37L41,119.82h.38a4.84,4.84,0,0,0,1.37,2.2,2.63,2.63,0,0,0,1.65.73,1.2,1.2,0,0,0,.87-.33,1.06,1.06,0,0,0,.34-.79,1.37,1.37,0,0,0-.33-.92,8.73,8.73,0,0,0-1.49-1.18,11.68,11.68,0,0,1-2.2-1.8,3.13,3.13,0,0,1-.73-2,3.27,3.27,0,0,1,.83-2.17,3,3,0,0,1,2.39-1,3.49,3.49,0,0,1,1.63.41,1.08,1.08,0,0,0,.49.17.56.56,0,0,0,.32-.08,2.12,2.12,0,0,0,.39-.47Z" transform="translate(115.33 -81.6)"/><path d="M53.66,109.09v3.8h2.47V114H53.66v6.41a4.87,4.87,0,0,0,.08,1.16A.83.83,0,0,0,54,122a.66.66,0,0,0,.39.16q.72,0,1.37-1.1l.33.24a3,3,0,0,1-2.92,2.13,2.58,2.58,0,0,1-1.67-.55,2.43,2.43,0,0,1-.87-1.23,10.51,10.51,0,0,1-.11-2V114H49.19v-.39a14.31,14.31,0,0,0,2.38-2.08,12.65,12.65,0,0,0,1.72-2.43Z" transform="translate(115.33 -81.6)"/><path d="M61.42,112.89v2.35a7.6,7.6,0,0,1,1.81-2.14,2.68,2.68,0,0,1,1.5-.53,1.32,1.32,0,0,1,1,.38A1.49,1.49,0,0,1,66.1,114a1.69,1.69,0,0,1-.36,1.15,1.12,1.12,0,0,1-.87.41,1.5,1.5,0,0,1-1-.38,6.31,6.31,0,0,0-.51-.42.49.49,0,0,0-.26-.07.93.93,0,0,0-.61.24,2.3,2.3,0,0,0-.69,1.08,7.54,7.54,0,0,0-.36,2.38v3a2.56,2.56,0,0,0,.08.81.88.88,0,0,0,.39.44,2.29,2.29,0,0,0,.88.17v.4H57.18v-.4a1.22,1.22,0,0,0,.92-.37,3.45,3.45,0,0,0,.24-1.67v-5.74a4.31,4.31,0,0,0-.09-1.13.9.9,0,0,0-.32-.46,1.73,1.73,0,0,0-.74-.2v-.41Z" transform="translate(115.33 -81.6)"/><path d="M72.94,121.74a5.48,5.48,0,0,1-3.41,1.68,2,2,0,0,1-1.48-.58,2,2,0,0,1-.59-1.46,2.86,2.86,0,0,1,1-2.14,19.34,19.34,0,0,1,4.45-2.53v-1a5.06,5.06,0,0,0-.13-1.48,1.2,1.2,0,0,0-.48-.53,1.45,1.45,0,0,0-.8-.23,2,2,0,0,0-1.19.32.57.57,0,0,0-.29.47,1,1,0,0,0,.31.58,1.42,1.42,0,0,1,.42.92,1.23,1.23,0,0,1-.41.93,1.48,1.48,0,0,1-1.06.38,1.69,1.69,0,0,1-1.17-.42,1.29,1.29,0,0,1-.47-1,2.3,2.3,0,0,1,.63-1.53A4,4,0,0,1,70.07,113a7.2,7.2,0,0,1,2.35-.39,3.89,3.89,0,0,1,2.34.63,2.94,2.94,0,0,1,1.12,1.36,8.82,8.82,0,0,1,.16,2.14v4a4.18,4.18,0,0,0,.06.89.54.54,0,0,0,.17.27.4.4,0,0,0,.26.09q.29,0,.59-.41l.33.27A4.05,4.05,0,0,1,76.29,123a2.49,2.49,0,0,1-1.35.37,2.11,2.11,0,0,1-1.39-.42A1.89,1.89,0,0,1,72.94,121.74Zm0-.81v-3.48a6.49,6.49,0,0,0-2,1.69,2.06,2.06,0,0,0-.43,1.21,1.27,1.27,0,0,0,.37.9,1,1,0,0,0,.78.3A2.14,2.14,0,0,0,72.94,120.93Z" transform="translate(115.33 -81.6)"/><path d="M82.64,108.21v12.9a2.47,2.47,0,0,0,.26,1.4,1.38,1.38,0,0,0,1,.35v.4H78.29v-.4a1.35,1.35,0,0,0,1-.4,2.47,2.47,0,0,0,.22-1.35V110.37a2.45,2.45,0,0,0-.26-1.39,1.37,1.37,0,0,0-1-.35v-.41Z" transform="translate(115.33 -81.6)"/><path d="M89,112.89v8.23a2.47,2.47,0,0,0,.26,1.4,1.38,1.38,0,0,0,1,.35v.4H84.6v-.4a1.35,1.35,0,0,0,1-.4,2.48,2.48,0,0,0,.22-1.35v-6.06a2.48,2.48,0,0,0-.26-1.41,1.37,1.37,0,0,0-1-.35v-.41Zm-1.55-5a1.72,1.72,0,1,1-1.21.5A1.65,1.65,0,0,1,87.4,107.86Z" transform="translate(115.33 -81.6)"/><path d="M96.95,121.74a5.48,5.48,0,0,1-3.41,1.68,2,2,0,0,1-1.48-.58,2,2,0,0,1-.59-1.46,2.86,2.86,0,0,1,1-2.14,19.34,19.34,0,0,1,4.45-2.53v-1a5.06,5.06,0,0,0-.13-1.48,1.2,1.2,0,0,0-.48-.53,1.45,1.45,0,0,0-.8-.23,2,2,0,0,0-1.19.32.57.57,0,0,0-.29.47,1,1,0,0,0,.31.58,1.42,1.42,0,0,1,.42.92,1.23,1.23,0,0,1-.41.93,1.48,1.48,0,0,1-1.06.38,1.69,1.69,0,0,1-1.17-.42,1.29,1.29,0,0,1-.47-1,2.3,2.3,0,0,1,.63-1.53A4,4,0,0,1,94.08,113a7.2,7.2,0,0,1,2.35-.39,3.89,3.89,0,0,1,2.34.63,2.94,2.94,0,0,1,1.12,1.36,8.82,8.82,0,0,1,.16,2.14v4a4.18,4.18,0,0,0,.06.89.54.54,0,0,0,.17.27.4.4,0,0,0,.26.09q.29,0,.59-.41l.33.27a4.05,4.05,0,0,1-1.15,1.19,2.49,2.49,0,0,1-1.35.37,2.11,2.11,0,0,1-1.39-.42A1.89,1.89,0,0,1,96.95,121.74Zm0-.81v-3.48a6.49,6.49,0,0,0-2,1.69,2.06,2.06,0,0,0-.43,1.21,1.27,1.27,0,0,0,.37.9,1,1,0,0,0,.78.3A2.14,2.14,0,0,0,96.95,120.93Z" transform="translate(115.33 -81.6)"/><path d="M106.83,112.89v1.34a6.1,6.1,0,0,1,1.53-1.26,3.28,3.28,0,0,1,1.58-.39,2.52,2.52,0,0,1,1.68.56,2.69,2.69,0,0,1,.89,1.39,10.77,10.77,0,0,1,.18,2.43v4a3.08,3.08,0,0,0,.22,1.49,1.27,1.27,0,0,0,.91.37v.4h-5.25v-.4a1.1,1.1,0,0,0,.84-.49,3.18,3.18,0,0,0,.18-1.38v-4.62a7.53,7.53,0,0,0-.1-1.61,1,1,0,0,0-.34-.52.85.85,0,0,0-.53-.18q-1,0-1.78,1.37V121a3.09,3.09,0,0,0,.22,1.48,1.1,1.1,0,0,0,.81.39v.4H102.6v-.4a1.29,1.29,0,0,0,.93-.42,3.12,3.12,0,0,0,.19-1.44v-5.86a3,3,0,0,0-.22-1.47,1.32,1.32,0,0,0-.91-.38v-.41Z" transform="translate(115.33 -81.6)"/><path d="M135.85,107.87v5.31h-.41a6.77,6.77,0,0,0-2.23-3.31,5.26,5.26,0,0,0-3.25-1.13,4.2,4.2,0,0,0-2.81.95,5.14,5.14,0,0,0-1.59,2.65,13.13,13.13,0,0,0-.47,3.49,12.75,12.75,0,0,0,.51,3.8,4.31,4.31,0,0,0,1.65,2.4,4.72,4.72,0,0,0,2.7.77,5.56,5.56,0,0,0,1.12-.12,7.94,7.94,0,0,0,1.17-.34V119.2a3.32,3.32,0,0,0-.12-1.15,1.13,1.13,0,0,0-.51-.47,1.9,1.9,0,0,0-.93-.21h-.39V117h7.32v.41a3.19,3.19,0,0,0-1.16.23,1.13,1.13,0,0,0-.5.57,3.11,3.11,0,0,0-.1,1v3.13a14.83,14.83,0,0,1-3,1,15.73,15.73,0,0,1-3.24.33A9.4,9.4,0,0,1,126,123a8.88,8.88,0,0,1-2.5-1.53,7.23,7.23,0,0,1-1.69-2.14,7.47,7.47,0,0,1-.78-3.43,7.73,7.73,0,0,1,2.39-5.74,8.23,8.23,0,0,1,6-2.34,8.35,8.35,0,0,1,3.6.68,6.56,6.56,0,0,0,1.29.42.87.87,0,0,0,.58-.23,2,2,0,0,0,.49-.86Z" transform="translate(115.33 -81.6)"/><path d="M143.51,112.58a4.81,4.81,0,0,1,2.52.7,4.47,4.47,0,0,1,1.77,2,6.55,6.55,0,0,1,.6,2.82,6,6,0,0,1-1.12,3.7,4.42,4.42,0,0,1-3.74,1.8,4.29,4.29,0,0,1-3.61-1.64,6.07,6.07,0,0,1-1.27-3.81,6.15,6.15,0,0,1,1.29-3.89A4.25,4.25,0,0,1,143.51,112.58Zm0,.79a1.29,1.29,0,0,0-1,.43,3,3,0,0,0-.53,1.69q-.13,1.26-.13,3.5a15,15,0,0,0,.15,2.22,2.15,2.15,0,0,0,.52,1.2,1.24,1.24,0,0,0,.91.41,1.25,1.25,0,0,0,.83-.28,1.86,1.86,0,0,0,.58-1.06,25.57,25.57,0,0,0,.22-4.26,10.6,10.6,0,0,0-.21-2.59,2,2,0,0,0-.62-1A1.16,1.16,0,0,0,143.56,113.37Z" transform="translate(115.33 -81.6)"/><path d="M154.67,123.58l-3.5-8.05a7.91,7.91,0,0,0-1-1.84,1.32,1.32,0,0,0-.75-.39v-.41H155v.41a1,1,0,0,0-.71.19.76.76,0,0,0-.27.58,5,5,0,0,0,.49,1.54l1.71,3.9,1.37-3.37a6.5,6.5,0,0,0,.59-2,.71.71,0,0,0-.25-.56,1.45,1.45,0,0,0-.88-.24v-.41h3.4v.41a1.39,1.39,0,0,0-.8.37,6.81,6.81,0,0,0-.93,1.77l-3.46,8.15Z" transform="translate(115.33 -81.6)"/><path d="M170.15,117.71h-5.7a5.37,5.37,0,0,0,1.1,3.27,2.32,2.32,0,0,0,1.84.92,2.1,2.1,0,0,0,1.21-.37,4.68,4.68,0,0,0,1.17-1.34l.38.24a6.28,6.28,0,0,1-1.87,2.44,4,4,0,0,1-2.37.72,3.94,3.94,0,0,1-3.5-1.78,6.27,6.27,0,0,1-1-3.55,5.9,5.9,0,0,1,1.4-4.14,4.33,4.33,0,0,1,3.29-1.54,3.57,3.57,0,0,1,2.74,1.29A5.9,5.9,0,0,1,170.15,117.71Zm-2.73-.74a10.22,10.22,0,0,0-.19-2.45,2,2,0,0,0-.61-1,.92.92,0,0,0-.62-.2,1.09,1.09,0,0,0-.94.57,4.86,4.86,0,0,0-.66,2.71V117Z" transform="translate(115.33 -81.6)"/><path d="M175.76,112.89v2.35a7.59,7.59,0,0,1,1.81-2.14,2.68,2.68,0,0,1,1.5-.53,1.32,1.32,0,0,1,1,.38,1.49,1.49,0,0,1,.37,1.08,1.69,1.69,0,0,1-.36,1.15,1.12,1.12,0,0,1-.87.41,1.5,1.5,0,0,1-1-.38,6.21,6.21,0,0,0-.51-.42.49.49,0,0,0-.26-.07.93.93,0,0,0-.61.24,2.3,2.3,0,0,0-.69,1.08,7.54,7.54,0,0,0-.36,2.38v3a2.56,2.56,0,0,0,.08.81.88.88,0,0,0,.39.44,2.29,2.29,0,0,0,.88.17v.4h-5.61v-.4a1.22,1.22,0,0,0,.92-.37,3.46,3.46,0,0,0,.24-1.67v-5.74a4.35,4.35,0,0,0-.09-1.13.9.9,0,0,0-.32-.46,1.72,1.72,0,0,0-.74-.2v-.41Z" transform="translate(115.33 -81.6)"/><path d="M185.79,112.89v1.34a6.11,6.11,0,0,1,1.53-1.26,3.28,3.28,0,0,1,1.58-.39,2.52,2.52,0,0,1,1.68.56,2.69,2.69,0,0,1,.89,1.39,10.76,10.76,0,0,1,.18,2.43v4a3.08,3.08,0,0,0,.22,1.49,1.27,1.27,0,0,0,.9.37v.4h-5.25v-.4a1.1,1.1,0,0,0,.84-.49,3.19,3.19,0,0,0,.18-1.38v-4.62a7.49,7.49,0,0,0-.1-1.61,1,1,0,0,0-.34-.52.84.84,0,0,0-.53-.18q-1,0-1.78,1.37V121a3.09,3.09,0,0,0,.22,1.48,1.1,1.1,0,0,0,.81.39v.4h-5.25v-.4a1.29,1.29,0,0,0,.93-.42,3.13,3.13,0,0,0,.19-1.44v-5.86a3,3,0,0,0-.22-1.47,1.32,1.32,0,0,0-.91-.38v-.41Z" transform="translate(115.33 -81.6)"/><path d="M198.51,112.89v1.37a6,6,0,0,1,1.58-1.3,3.44,3.44,0,0,1,1.59-.37,2.89,2.89,0,0,1,1.68.47,2.93,2.93,0,0,1,1,1.42,6.6,6.6,0,0,1,1.71-1.44,3.52,3.52,0,0,1,1.7-.44,2.73,2.73,0,0,1,1.72.49,2.56,2.56,0,0,1,.89,1.25,8.5,8.5,0,0,1,.25,2.43V121a3,3,0,0,0,.22,1.49,1.32,1.32,0,0,0,.9.38v.4h-5.36v-.4a1.19,1.19,0,0,0,.93-.49,2.94,2.94,0,0,0,.2-1.38v-4.46a8.27,8.27,0,0,0-.11-1.77,1.07,1.07,0,0,0-.35-.56.9.9,0,0,0-.56-.18,1.66,1.66,0,0,0-1,.35,4.46,4.46,0,0,0-1,1V121a3.18,3.18,0,0,0,.19,1.41,1.15,1.15,0,0,0,1,.46v.4h-5.37v-.4a1.19,1.19,0,0,0,.68-.22.93.93,0,0,0,.33-.47,5,5,0,0,0,.08-1.18v-4.46a8.07,8.07,0,0,0-.11-1.77,1.09,1.09,0,0,0-.37-.56.9.9,0,0,0-.56-.2,1.49,1.49,0,0,0-.81.23,4.52,4.52,0,0,0-1.11,1.18V121a3.17,3.17,0,0,0,.22,1.45,1.13,1.13,0,0,0,.91.42v.4h-5.35v-.4a1.29,1.29,0,0,0,.93-.42,3.11,3.11,0,0,0,.19-1.44v-5.86a3,3,0,0,0-.22-1.47,1.32,1.32,0,0,0-.91-.38v-.41Z" transform="translate(115.33 -81.6)"/><path d="M221.94,117.71h-5.7a5.37,5.37,0,0,0,1.1,3.27,2.32,2.32,0,0,0,1.84.92,2.1,2.1,0,0,0,1.21-.37,4.71,4.71,0,0,0,1.17-1.34l.38.24a6.29,6.29,0,0,1-1.87,2.44,4,4,0,0,1-2.37.72,3.94,3.94,0,0,1-3.5-1.78,6.27,6.27,0,0,1-1-3.55,5.9,5.9,0,0,1,1.4-4.14,4.33,4.33,0,0,1,3.29-1.54,3.57,3.57,0,0,1,2.74,1.29A5.9,5.9,0,0,1,221.94,117.71Zm-2.73-.74a10.29,10.29,0,0,0-.19-2.45,2,2,0,0,0-.61-1,.93.93,0,0,0-.62-.2,1.09,1.09,0,0,0-.94.57,4.86,4.86,0,0,0-.65,2.71V117Z" transform="translate(115.33 -81.6)"/><path d="M227.48,112.89v1.34A6.11,6.11,0,0,1,229,113a3.28,3.28,0,0,1,1.58-.39,2.52,2.52,0,0,1,1.68.56,2.69,2.69,0,0,1,.89,1.39,10.76,10.76,0,0,1,.18,2.43v4a3.08,3.08,0,0,0,.22,1.49,1.27,1.27,0,0,0,.9.37v.4H229.2v-.4a1.1,1.1,0,0,0,.84-.49,3.19,3.19,0,0,0,.18-1.38v-4.62a7.49,7.49,0,0,0-.1-1.61,1,1,0,0,0-.34-.52.84.84,0,0,0-.53-.18q-1,0-1.78,1.37V121a3.09,3.09,0,0,0,.22,1.48,1.1,1.1,0,0,0,.81.39v.4h-5.25v-.4a1.29,1.29,0,0,0,.93-.42,3.13,3.13,0,0,0,.19-1.44v-5.86a3,3,0,0,0-.22-1.47,1.32,1.32,0,0,0-.91-.38v-.41Z" transform="translate(115.33 -81.6)"/><path d="M240,109.09v3.8h2.46V114H240v6.41a4.81,4.81,0,0,0,.08,1.16.82.82,0,0,0,.29.42.66.66,0,0,0,.39.16q.72,0,1.37-1.1l.33.24a3,3,0,0,1-2.92,2.13,2.58,2.58,0,0,1-1.67-.55,2.42,2.42,0,0,1-.87-1.23,10.45,10.45,0,0,1-.11-2V114h-1.36v-.39a14.3,14.3,0,0,0,2.38-2.08,12.67,12.67,0,0,0,1.72-2.43Z" transform="translate(115.33 -81.6)"/><path d="M11.12,159.66v-.37h.45a1.8,1.8,0,0,0,.9-.19,1.13,1.13,0,0,0,.46-.5,4.77,4.77,0,0,0,.09-1.26v-8.92a4.46,4.46,0,0,0-.11-1.3,1,1,0,0,0-.44-.46,1.8,1.8,0,0,0-.9-.19h-.45v-.37h6.07a9.72,9.72,0,0,1,3.91.66,5.78,5.78,0,0,1,2.74,2.45,7.8,7.8,0,0,1,.47,6.34,6.06,6.06,0,0,1-1.19,2,5.83,5.83,0,0,1-1.68,1.26,9,9,0,0,1-2.33.73,11,11,0,0,1-1.92.12Zm5.17-12.78v10.57a3.73,3.73,0,0,0,.08,1,.57.57,0,0,0,.27.29,1.62,1.62,0,0,0,.78.15A3,3,0,0,0,20,157.78a7.75,7.75,0,0,0,1.2-4.78,9,9,0,0,0-.82-4.17,3.5,3.5,0,0,0-1.67-1.66A6.49,6.49,0,0,0,16.28,146.88Z" transform="translate(115.33 -81.6)"/><path d="M34.23,154.65H29.11a4.83,4.83,0,0,0,1,2.94,2.09,2.09,0,0,0,1.66.83,1.88,1.88,0,0,0,1.09-.33,4.22,4.22,0,0,0,1-1.2l.34.22a5.65,5.65,0,0,1-1.68,2.19,3.62,3.62,0,0,1-2.13.64,3.55,3.55,0,0,1-3.15-1.6,5.64,5.64,0,0,1-.86-3.2,5.31,5.31,0,0,1,1.26-3.72,3.9,3.9,0,0,1,3-1.38,3.21,3.21,0,0,1,2.46,1.17A5.31,5.31,0,0,1,34.23,154.65ZM31.78,154a9.2,9.2,0,0,0-.18-2.21,1.8,1.8,0,0,0-.54-.91.83.83,0,0,0-.56-.18,1,1,0,0,0-.85.51,4.37,4.37,0,0,0-.59,2.44V154Z" transform="translate(115.33 -81.6)"/><path d="M39,158.71v3.48a2.78,2.78,0,0,0,.12,1,.75.75,0,0,0,.35.38,2.44,2.44,0,0,0,.94.12V164H35.1v-.37a1.24,1.24,0,0,0,.92-.35,2.15,2.15,0,0,0,.2-1.19v-9.86A2.23,2.23,0,0,0,36,151a1.23,1.23,0,0,0-.89-.32v-.37H39v1.23a3.58,3.58,0,0,1,1-1,2.88,2.88,0,0,1,1.59-.47,3,3,0,0,1,1.87.65,4,4,0,0,1,1.28,1.79,6.8,6.8,0,0,1,.44,2.46,7.13,7.13,0,0,1-.45,2.59,3.81,3.81,0,0,1-1.32,1.79,3.24,3.24,0,0,1-1.92.62,3.13,3.13,0,0,1-1.44-.34A3.79,3.79,0,0,1,39,158.71Zm0-1a2.35,2.35,0,0,0,1.84,1.22,1,1,0,0,0,.89-.57,10,10,0,0,0,0-6.51,1.16,1.16,0,0,0-1-.59q-1,0-1.66,1.46Z" transform="translate(115.33 -81.6)"/><path d="M51.95,158.28a4.93,4.93,0,0,1-3.07,1.51,1.81,1.81,0,0,1-1.33-.52A1.77,1.77,0,0,1,47,158a2.58,2.58,0,0,1,.92-1.92,17.4,17.4,0,0,1,4-2.27v-.94a4.54,4.54,0,0,0-.12-1.33,1.08,1.08,0,0,0-.43-.48,1.31,1.31,0,0,0-.72-.21,1.84,1.84,0,0,0-1.07.29.51.51,0,0,0-.26.42.87.87,0,0,0,.28.52,1.28,1.28,0,0,1,.38.83,1.11,1.11,0,0,1-.37.83,1.33,1.33,0,0,1-1,.34,1.52,1.52,0,0,1-1.05-.38,1.16,1.16,0,0,1-.42-.89,2.07,2.07,0,0,1,.57-1.37,3.6,3.6,0,0,1,1.59-1,6.5,6.5,0,0,1,2.12-.35,3.51,3.51,0,0,1,2.1.56,2.65,2.65,0,0,1,1,1.22,7.94,7.94,0,0,1,.14,1.93v3.63a3.78,3.78,0,0,0,0,.8.48.48,0,0,0,.15.24.35.35,0,0,0,.23.08q.26,0,.53-.37l.3.24a3.64,3.64,0,0,1-1,1.07,2.24,2.24,0,0,1-1.21.33,1.9,1.9,0,0,1-1.25-.37A1.69,1.69,0,0,1,51.95,158.28Zm0-.73v-3.13a5.84,5.84,0,0,0-1.8,1.52,1.85,1.85,0,0,0-.39,1.09,1.15,1.15,0,0,0,.33.81.91.91,0,0,0,.7.27A1.92,1.92,0,0,0,51.95,157.55Z" transform="translate(115.33 -81.6)"/><path d="M60.9,150.32v2.12a6.85,6.85,0,0,1,1.63-1.92,2.41,2.41,0,0,1,1.35-.47,1.19,1.19,0,0,1,.89.34,1.34,1.34,0,0,1,.33,1,1.53,1.53,0,0,1-.32,1,1,1,0,0,1-.78.37,1.35,1.35,0,0,1-.92-.34,5.7,5.7,0,0,0-.46-.38.44.44,0,0,0-.23-.06.84.84,0,0,0-.55.22,2.07,2.07,0,0,0-.62,1,6.79,6.79,0,0,0-.32,2.14V158a2.31,2.31,0,0,0,.07.73.79.79,0,0,0,.35.39,2.05,2.05,0,0,0,.79.16v.36h-5v-.36a1.11,1.11,0,0,0,.82-.33,3.11,3.11,0,0,0,.21-1.5v-5.17a3.87,3.87,0,0,0-.08-1,.8.8,0,0,0-.29-.41,1.55,1.55,0,0,0-.67-.18v-.37Z" transform="translate(115.33 -81.6)"/><path d="M69.82,146.9v3.42H72v1H69.82v5.77a4.41,4.41,0,0,0,.07,1,.75.75,0,0,0,.27.38.59.59,0,0,0,.35.14q.65,0,1.23-1l.3.22a2.73,2.73,0,0,1-2.63,1.92,2.33,2.33,0,0,1-1.5-.49,2.18,2.18,0,0,1-.78-1.1,9.4,9.4,0,0,1-.1-1.84v-5H65.8V151a12.89,12.89,0,0,0,2.14-1.87,11.43,11.43,0,0,0,1.54-2.19Z" transform="translate(115.33 -81.6)"/><path d="M76.8,150.32v1.23a5.37,5.37,0,0,1,1.42-1.17,3.11,3.11,0,0,1,1.43-.33,2.6,2.6,0,0,1,1.51.42,2.65,2.65,0,0,1,.94,1.28,5.94,5.94,0,0,1,1.53-1.3,3.17,3.17,0,0,1,1.53-.4,2.46,2.46,0,0,1,1.54.45,2.31,2.31,0,0,1,.8,1.13,7.64,7.64,0,0,1,.23,2.18v3.83a2.75,2.75,0,0,0,.19,1.34,1.19,1.19,0,0,0,.81.34v.36H83.93v-.36a1.07,1.07,0,0,0,.84-.44,2.66,2.66,0,0,0,.18-1.24v-4a7.43,7.43,0,0,0-.1-1.59,1,1,0,0,0-.31-.5.8.8,0,0,0-.5-.17,1.49,1.49,0,0,0-.87.31,4,4,0,0,0-.89.95v5a2.86,2.86,0,0,0,.17,1.27,1,1,0,0,0,.88.41v.36H78.48v-.36a1.07,1.07,0,0,0,.61-.2.83.83,0,0,0,.3-.42,4.58,4.58,0,0,0,.08-1.06v-4a7.29,7.29,0,0,0-.1-1.59,1,1,0,0,0-.33-.5.81.81,0,0,0-.5-.18,1.33,1.33,0,0,0-.73.21,4.07,4.07,0,0,0-1,1.06v5a2.84,2.84,0,0,0,.19,1.3,1,1,0,0,0,.81.38v.36H73v-.36a1.16,1.16,0,0,0,.84-.38,2.8,2.8,0,0,0,.17-1.3v-5.28a2.69,2.69,0,0,0-.19-1.32,1.19,1.19,0,0,0-.81-.34v-.37Z" transform="translate(115.33 -81.6)"/><path d="M97.89,154.65H92.76a4.83,4.83,0,0,0,1,2.94,2.09,2.09,0,0,0,1.66.83,1.88,1.88,0,0,0,1.09-.33,4.22,4.22,0,0,0,1-1.2l.34.22a5.65,5.65,0,0,1-1.68,2.19,3.62,3.62,0,0,1-2.13.64,3.55,3.55,0,0,1-3.15-1.6,5.64,5.64,0,0,1-.86-3.2,5.31,5.31,0,0,1,1.26-3.72,3.9,3.9,0,0,1,3-1.38,3.21,3.21,0,0,1,2.46,1.17A5.31,5.31,0,0,1,97.89,154.65ZM95.43,154a9.2,9.2,0,0,0-.18-2.21,1.8,1.8,0,0,0-.54-.91.83.83,0,0,0-.56-.18,1,1,0,0,0-.85.51,4.37,4.37,0,0,0-.59,2.44V154Z" transform="translate(115.33 -81.6)"/><path d="M102.88,150.32v1.21a5.49,5.49,0,0,1,1.38-1.13,2.94,2.94,0,0,1,1.42-.36,2.27,2.27,0,0,1,1.51.5,2.42,2.42,0,0,1,.8,1.25,9.68,9.68,0,0,1,.16,2.19v3.64a2.78,2.78,0,0,0,.19,1.34,1.14,1.14,0,0,0,.81.33v.36h-4.73v-.36a1,1,0,0,0,.76-.44,2.87,2.87,0,0,0,.16-1.24v-4.16a6.78,6.78,0,0,0-.09-1.45.88.88,0,0,0-.3-.46.76.76,0,0,0-.47-.17q-.86,0-1.6,1.23v5a2.79,2.79,0,0,0,.19,1.33,1,1,0,0,0,.72.35v.36H99.07v-.36a1.16,1.16,0,0,0,.84-.38,2.8,2.8,0,0,0,.17-1.3v-5.28a2.69,2.69,0,0,0-.19-1.32,1.19,1.19,0,0,0-.81-.34v-.37Z" transform="translate(115.33 -81.6)"/><path d="M114.15,146.9v3.42h2.22v1h-2.22v5.77a4.41,4.41,0,0,0,.07,1,.75.75,0,0,0,.27.38.59.59,0,0,0,.35.14q.65,0,1.23-1l.3.22a2.73,2.73,0,0,1-2.63,1.92,2.33,2.33,0,0,1-1.5-.49,2.18,2.18,0,0,1-.78-1.1,9.4,9.4,0,0,1-.1-1.84v-5h-1.22V151a12.89,12.89,0,0,0,2.14-1.87,11.43,11.43,0,0,0,1.54-2.19Z" transform="translate(115.33 -81.6)"/><path d="M126.79,150a4.33,4.33,0,0,1,2.27.63,4,4,0,0,1,1.59,1.79,5.91,5.91,0,0,1,.54,2.54,5.38,5.38,0,0,1-1,3.33,4,4,0,0,1-3.37,1.62,3.86,3.86,0,0,1-3.25-1.48,5.46,5.46,0,0,1-1.14-3.43,5.54,5.54,0,0,1,1.16-3.5A3.83,3.83,0,0,1,126.79,150Zm0,.71a1.16,1.16,0,0,0-.87.38,2.69,2.69,0,0,0-.48,1.52q-.11,1.13-.12,3.15a13.45,13.45,0,0,0,.14,2,1.93,1.93,0,0,0,.47,1.08,1.12,1.12,0,0,0,.82.37,1.14,1.14,0,0,0,.75-.25,1.68,1.68,0,0,0,.52-1,23.15,23.15,0,0,0,.2-3.84,9.47,9.47,0,0,0-.19-2.33,1.78,1.78,0,0,0-.56-.92A1,1,0,0,0,126.83,150.75Z" transform="translate(115.33 -81.6)"/><path d="M136.71,151.3v6.49a2.15,2.15,0,0,0,.2,1.18,1.44,1.44,0,0,0,1.18.34v.36h-5.51v-.36a2.19,2.19,0,0,0,.89-.15.74.74,0,0,0,.37-.37,3.16,3.16,0,0,0,.1-1V151.3h-1.36v-1h1.36v-1.16a3.11,3.11,0,0,1,1.05-2.4,4.08,4.08,0,0,1,2.85-1,3,3,0,0,1,1.82.46,1.3,1.3,0,0,1,.59,1,1,1,0,0,1-.37.78,1.42,1.42,0,0,1-1,.33,1.2,1.2,0,0,1-.82-.27.79.79,0,0,1-.3-.6,2.19,2.19,0,0,1,.06-.37,1.47,1.47,0,0,0,0-.32.38.38,0,0,0-.12-.31.55.55,0,0,0-.39-.15.6.6,0,0,0-.48.24,1.22,1.22,0,0,0-.2.77l0,1.75v1.19h1.38v1Z" transform="translate(115.33 -81.6)"/><path d="M149.44,146.89v5.52h.27a2.14,2.14,0,0,0,1.87-.81,5,5,0,0,0,.74-2.39h.38v7.1h-.38a5.31,5.31,0,0,0-.5-1.9,2.17,2.17,0,0,0-.89-1,3.4,3.4,0,0,0-1.48-.25V157a5.57,5.57,0,0,0,.09,1.37.82.82,0,0,0,.36.41,1.67,1.67,0,0,0,.84.16h.81a4.37,4.37,0,0,0,4.69-3.56h.37l-.61,4.31H144.27v-.37h.45a1.88,1.88,0,0,0,1-.21.92.92,0,0,0,.4-.48,4.07,4.07,0,0,0,.11-1.26v-8.92a7.12,7.12,0,0,0,0-1.13,1,1,0,0,0-.37-.54,1.72,1.72,0,0,0-1-.28h-.45v-.37h11.34v4h-.38a4.88,4.88,0,0,0-.81-2.11,3,3,0,0,0-1.48-.94,8,8,0,0,0-2.1-.18Z" transform="translate(115.33 -81.6)"/><path d="M167.29,146.11v10.75a7.25,7.25,0,0,0,.06,1.29.8.8,0,0,0,.3.49,1.61,1.61,0,0,0,.79.2v.33l-3.95.77v-1.48a4.92,4.92,0,0,1-1.26,1.17,2.53,2.53,0,0,1-1.25.31,3.21,3.21,0,0,1-2.83-1.6,5.75,5.75,0,0,1-.84-3.19,6.71,6.71,0,0,1,.52-2.7,4,4,0,0,1,1.42-1.8,3.41,3.41,0,0,1,1.94-.61,2.63,2.63,0,0,1,1.19.26,4,4,0,0,1,1.11.91v-2.82a5,5,0,0,0-.09-1.29.85.85,0,0,0-.36-.43,2,2,0,0,0-.9-.14v-.42Zm-2.8,6.34q-.74-1.42-1.81-1.42a.92.92,0,0,0-.61.2,2.25,2.25,0,0,0-.6,1.09,8.9,8.9,0,0,0-.24,2.39,9.68,9.68,0,0,0,.26,2.62,2.55,2.55,0,0,0,.71,1.23,1,1,0,0,0,.63.19q.88,0,1.66-1.38Z" transform="translate(115.33 -81.6)"/><path d="M178.61,150.32v7.32a2.68,2.68,0,0,0,.2,1.33,1.15,1.15,0,0,0,.81.33v.36h-3.81v-1.25a4.82,4.82,0,0,1-1.34,1.16,3.09,3.09,0,0,1-1.5.37,2.21,2.21,0,0,1-1.4-.49,2.36,2.36,0,0,1-.82-1.13,8.34,8.34,0,0,1-.21-2.27v-3.71a2.7,2.7,0,0,0-.19-1.32,1.19,1.19,0,0,0-.81-.34v-.37h3.81v6.39a5.27,5.27,0,0,0,.1,1.29.85.85,0,0,0,.3.44.78.78,0,0,0,.47.15,1.16,1.16,0,0,0,.65-.19,4.13,4.13,0,0,0,1-1v-5a2.7,2.7,0,0,0-.19-1.32,1.19,1.19,0,0,0-.82-.34v-.37Z" transform="translate(115.33 -81.6)"/><path d="M188.6,157.25l.31.24a4.66,4.66,0,0,1-1.64,1.84,3.94,3.94,0,0,1-2.09.6,3.62,3.62,0,0,1-3-1.41,5.28,5.28,0,0,1-1.12-3.39,5.69,5.69,0,0,1,1-3.36,3.92,3.92,0,0,1,3.39-1.75,3.43,3.43,0,0,1,2.3.73,2.12,2.12,0,0,1,.85,1.63,1.22,1.22,0,0,1-.34.91,1.23,1.23,0,0,1-.91.34,1.31,1.31,0,0,1-1-.39,2.27,2.27,0,0,1-.48-1.39,1.52,1.52,0,0,0-.29-.88.71.71,0,0,0-.54-.25,1,1,0,0,0-.82.51,4.26,4.26,0,0,0-.52,2.36,7.6,7.6,0,0,0,.42,2.52,3.87,3.87,0,0,0,1.15,1.79,2,2,0,0,0,1.3.43,2,2,0,0,0,.93-.23A4.31,4.31,0,0,0,188.6,157.25Z" transform="translate(115.33 -81.6)"/><path d="M195.21,158.28a4.93,4.93,0,0,1-3.07,1.51,1.81,1.81,0,0,1-1.33-.52,1.77,1.77,0,0,1-.53-1.31,2.58,2.58,0,0,1,.92-1.92,17.39,17.39,0,0,1,4-2.27v-.94a4.53,4.53,0,0,0-.12-1.33,1.08,1.08,0,0,0-.43-.48,1.3,1.3,0,0,0-.72-.21,1.84,1.84,0,0,0-1.07.29.51.51,0,0,0-.26.42.87.87,0,0,0,.28.52,1.28,1.28,0,0,1,.38.83,1.11,1.11,0,0,1-.37.83,1.34,1.34,0,0,1-1,.34,1.52,1.52,0,0,1-1.05-.38,1.16,1.16,0,0,1-.42-.89,2.07,2.07,0,0,1,.57-1.37,3.6,3.6,0,0,1,1.59-1,6.51,6.51,0,0,1,2.12-.35,3.5,3.5,0,0,1,2.1.56,2.65,2.65,0,0,1,1,1.22,8,8,0,0,1,.14,1.93v3.63a3.75,3.75,0,0,0,.05.8.47.47,0,0,0,.15.24.36.36,0,0,0,.23.08c.17,0,.35-.12.53-.37l.3.24a3.64,3.64,0,0,1-1,1.07,2.23,2.23,0,0,1-1.21.33,1.89,1.89,0,0,1-1.25-.37A1.69,1.69,0,0,1,195.21,158.28Zm0-.73v-3.13a5.85,5.85,0,0,0-1.8,1.52A1.85,1.85,0,0,0,193,157a1.15,1.15,0,0,0,.33.81.91.91,0,0,0,.7.27A1.92,1.92,0,0,0,195.21,157.55Z" transform="translate(115.33 -81.6)"/><path d="M204,146.9v3.42h2.22v1H204v5.77a4.35,4.35,0,0,0,.08,1,.75.75,0,0,0,.26.38.59.59,0,0,0,.35.14q.65,0,1.23-1l.3.22a2.73,2.73,0,0,1-2.63,1.92,2.32,2.32,0,0,1-1.5-.49,2.18,2.18,0,0,1-.78-1.1,9.34,9.34,0,0,1-.1-1.84v-5H200V151a12.87,12.87,0,0,0,2.14-1.87,11.43,11.43,0,0,0,1.54-2.19Z" transform="translate(115.33 -81.6)"/><path d="M210.75,150.32v7.41A2.23,2.23,0,0,0,211,159a1.24,1.24,0,0,0,.9.32v.36h-5v-.36a1.22,1.22,0,0,0,.92-.36,2.22,2.22,0,0,0,.2-1.22v-5.46a2.23,2.23,0,0,0-.23-1.26,1.23,1.23,0,0,0-.89-.32v-.37Zm-1.4-4.53a1.55,1.55,0,0,1,1.55,1.55,1.47,1.47,0,0,1-.46,1.09,1.5,1.5,0,0,1-1.09.45,1.54,1.54,0,0,1-1.54-1.54,1.5,1.5,0,0,1,.45-1.09A1.48,1.48,0,0,1,209.35,145.79Z" transform="translate(115.33 -81.6)"/><path d="M217.2,150a4.33,4.33,0,0,1,2.27.63,4,4,0,0,1,1.59,1.79,5.89,5.89,0,0,1,.54,2.54,5.37,5.37,0,0,1-1,3.33,4,4,0,0,1-3.37,1.62,3.86,3.86,0,0,1-3.25-1.48,5.47,5.47,0,0,1-1.14-3.43,5.54,5.54,0,0,1,1.16-3.5A3.83,3.83,0,0,1,217.2,150Zm0,.71a1.16,1.16,0,0,0-.87.38,2.69,2.69,0,0,0-.48,1.52q-.12,1.13-.12,3.15a13.52,13.52,0,0,0,.14,2,1.93,1.93,0,0,0,.47,1.08,1.11,1.11,0,0,0,.82.37,1.13,1.13,0,0,0,.75-.25,1.68,1.68,0,0,0,.52-1,23,23,0,0,0,.2-3.84,9.52,9.52,0,0,0-.19-2.33,1.79,1.79,0,0,0-.56-.92A1.05,1.05,0,0,0,217.24,150.75Z" transform="translate(115.33 -81.6)"/><path d="M226.85,150.32v1.21a5.47,5.47,0,0,1,1.38-1.13,2.94,2.94,0,0,1,1.42-.36,2.26,2.26,0,0,1,1.51.5,2.43,2.43,0,0,1,.8,1.25,9.75,9.75,0,0,1,.16,2.19v3.64a2.8,2.8,0,0,0,.19,1.34,1.15,1.15,0,0,0,.82.33v.36h-4.73v-.36a1,1,0,0,0,.76-.44,2.88,2.88,0,0,0,.16-1.24v-4.16a6.8,6.8,0,0,0-.09-1.45.88.88,0,0,0-.3-.46.76.76,0,0,0-.47-.17q-.86,0-1.6,1.23v5A2.79,2.79,0,0,0,227,159a1,1,0,0,0,.72.35v.36H223v-.36a1.17,1.17,0,0,0,.84-.38,2.8,2.8,0,0,0,.17-1.3v-5.28a2.68,2.68,0,0,0-.2-1.32,1.19,1.19,0,0,0-.81-.34v-.37Z" transform="translate(115.33 -81.6)"/><path d="M244.69,158.28a4.93,4.93,0,0,1-3.07,1.51,1.81,1.81,0,0,1-1.33-.52,1.78,1.78,0,0,1-.53-1.31,2.57,2.57,0,0,1,.92-1.92,17.4,17.4,0,0,1,4-2.27v-.94a4.53,4.53,0,0,0-.12-1.33,1.07,1.07,0,0,0-.43-.48,1.31,1.31,0,0,0-.72-.21,1.84,1.84,0,0,0-1.07.29.51.51,0,0,0-.26.42.87.87,0,0,0,.28.52,1.28,1.28,0,0,1,.38.83,1.11,1.11,0,0,1-.37.83,1.33,1.33,0,0,1-1,.34,1.52,1.52,0,0,1-1.05-.38,1.16,1.16,0,0,1-.42-.89,2.08,2.08,0,0,1,.57-1.37,3.61,3.61,0,0,1,1.59-1,6.5,6.5,0,0,1,2.12-.35,3.51,3.51,0,0,1,2.1.56,2.65,2.65,0,0,1,1,1.22,7.9,7.9,0,0,1,.14,1.93v3.63a3.78,3.78,0,0,0,0,.8.48.48,0,0,0,.15.24.36.36,0,0,0,.23.08q.26,0,.53-.37l.3.24a3.65,3.65,0,0,1-1,1.07,2.24,2.24,0,0,1-1.21.33,1.89,1.89,0,0,1-1.25-.37A1.69,1.69,0,0,1,244.69,158.28Zm0-.73v-3.13a5.83,5.83,0,0,0-1.8,1.52,1.85,1.85,0,0,0-.39,1.09,1.15,1.15,0,0,0,.33.81.91.91,0,0,0,.7.27A1.92,1.92,0,0,0,244.69,157.55Z" transform="translate(115.33 -81.6)"/><path d="M253.58,150.32v1.21a5.47,5.47,0,0,1,1.38-1.13,2.94,2.94,0,0,1,1.42-.36,2.26,2.26,0,0,1,1.51.5,2.43,2.43,0,0,1,.8,1.25,9.75,9.75,0,0,1,.16,2.19v3.64A2.8,2.8,0,0,0,259,159a1.15,1.15,0,0,0,.82.33v.36h-4.73v-.36a1,1,0,0,0,.76-.44,2.88,2.88,0,0,0,.16-1.24v-4.16A6.8,6.8,0,0,0,256,152a.88.88,0,0,0-.3-.46.76.76,0,0,0-.47-.17q-.86,0-1.6,1.23v5a2.79,2.79,0,0,0,.19,1.33,1,1,0,0,0,.72.35v.36h-4.73v-.36a1.17,1.17,0,0,0,.84-.38,2.8,2.8,0,0,0,.17-1.3v-5.28a2.68,2.68,0,0,0-.2-1.32,1.19,1.19,0,0,0-.81-.34v-.37Z" transform="translate(115.33 -81.6)"/><path d="M270.23,146.11v10.75a7.25,7.25,0,0,0,.06,1.29.8.8,0,0,0,.3.49,1.61,1.61,0,0,0,.79.2v.33l-3.95.77v-1.48a4.92,4.92,0,0,1-1.26,1.17,2.53,2.53,0,0,1-1.25.31,3.21,3.21,0,0,1-2.83-1.6,5.75,5.75,0,0,1-.84-3.19,6.71,6.71,0,0,1,.52-2.7,4,4,0,0,1,1.42-1.8,3.41,3.41,0,0,1,1.94-.61,2.63,2.63,0,0,1,1.19.26,4,4,0,0,1,1.11.91v-2.82a5,5,0,0,0-.09-1.29.85.85,0,0,0-.36-.43,2,2,0,0,0-.9-.14v-.42Zm-2.8,6.34q-.74-1.42-1.81-1.42a.92.92,0,0,0-.61.2,2.25,2.25,0,0,0-.6,1.09,8.9,8.9,0,0,0-.24,2.39,9.68,9.68,0,0,0,.26,2.62,2.55,2.55,0,0,0,.71,1.23,1,1,0,0,0,.63.19q.88,0,1.66-1.38Z" transform="translate(115.33 -81.6)"/><path d="M289.5,146.11v3.67h-.36a5.8,5.8,0,0,0-.71-1.82,2.74,2.74,0,0,0-1.07-.88,3.41,3.41,0,0,0-1.33-.18h-1v10.46a4.24,4.24,0,0,0,.12,1.3,1,1,0,0,0,.45.46,1.82,1.82,0,0,0,.91.2H287v.37h-7.1v-.37h.45a1.87,1.87,0,0,0,.95-.21,1,1,0,0,0,.41-.48,4.06,4.06,0,0,0,.11-1.26V146.89h-1a2.85,2.85,0,0,0-2,.58,3.83,3.83,0,0,0-1.1,2.31h-.38v-3.67Z" transform="translate(115.33 -81.6)"/><path d="M293.29,150.32v2.12a6.83,6.83,0,0,1,1.63-1.92,2.42,2.42,0,0,1,1.35-.47,1.19,1.19,0,0,1,.89.34,1.34,1.34,0,0,1,.33,1,1.53,1.53,0,0,1-.32,1,1,1,0,0,1-.79.37,1.35,1.35,0,0,1-.92-.34A5.7,5.7,0,0,0,295,152a.44.44,0,0,0-.23-.06.84.84,0,0,0-.55.22,2.06,2.06,0,0,0-.62,1,6.78,6.78,0,0,0-.32,2.14V158a2.29,2.29,0,0,0,.07.73.79.79,0,0,0,.35.39,2,2,0,0,0,.79.16v.36h-5v-.36a1.1,1.1,0,0,0,.82-.33,3.11,3.11,0,0,0,.21-1.5v-5.17a3.85,3.85,0,0,0-.08-1,.79.79,0,0,0-.29-.41,1.55,1.55,0,0,0-.67-.18v-.37Z" transform="translate(115.33 -81.6)"/><path d="M303.66,158.28a4.93,4.93,0,0,1-3.07,1.51,1.81,1.81,0,0,1-1.33-.52,1.77,1.77,0,0,1-.53-1.31,2.58,2.58,0,0,1,.92-1.92,17.39,17.39,0,0,1,4-2.27v-.94a4.56,4.56,0,0,0-.12-1.33,1.09,1.09,0,0,0-.44-.48,1.3,1.3,0,0,0-.72-.21,1.84,1.84,0,0,0-1.07.29.51.51,0,0,0-.26.42.87.87,0,0,0,.28.52,1.28,1.28,0,0,1,.38.83,1.11,1.11,0,0,1-.37.83,1.33,1.33,0,0,1-1,.34,1.52,1.52,0,0,1-1.05-.38,1.16,1.16,0,0,1-.42-.89,2.07,2.07,0,0,1,.57-1.37,3.59,3.59,0,0,1,1.59-1,6.5,6.5,0,0,1,2.12-.35,3.51,3.51,0,0,1,2.1.56,2.66,2.66,0,0,1,1,1.22,8,8,0,0,1,.14,1.93v3.63a3.78,3.78,0,0,0,0,.8.47.47,0,0,0,.15.24.35.35,0,0,0,.23.08q.26,0,.53-.37l.3.24a3.63,3.63,0,0,1-1,1.07,2.23,2.23,0,0,1-1.21.33,1.9,1.9,0,0,1-1.25-.37A1.69,1.69,0,0,1,303.66,158.28Zm0-.73v-3.13a5.85,5.85,0,0,0-1.8,1.52,1.85,1.85,0,0,0-.39,1.09,1.14,1.14,0,0,0,.33.81.91.91,0,0,0,.7.27A1.92,1.92,0,0,0,303.66,157.55Z" transform="translate(115.33 -81.6)"/><path d="M312.38,150.32v7.41a2.21,2.21,0,0,0,.23,1.26,1.24,1.24,0,0,0,.9.32v.36h-5v-.36a1.22,1.22,0,0,0,.92-.36,2.24,2.24,0,0,0,.2-1.22v-5.46a2.23,2.23,0,0,0-.23-1.26,1.23,1.23,0,0,0-.89-.32v-.37Zm-1.4-4.53a1.54,1.54,0,0,1,1.55,1.55,1.48,1.48,0,0,1-.46,1.09,1.5,1.5,0,0,1-1.09.45,1.54,1.54,0,0,1-1.54-1.54,1.5,1.5,0,0,1,.45-1.09A1.48,1.48,0,0,1,311,145.79Z" transform="translate(115.33 -81.6)"/><path d="M318.24,150.32v1.21a5.49,5.49,0,0,1,1.38-1.13A2.94,2.94,0,0,1,321,150a2.27,2.27,0,0,1,1.51.5,2.43,2.43,0,0,1,.8,1.25,9.67,9.67,0,0,1,.16,2.19v3.64a2.78,2.78,0,0,0,.19,1.34,1.14,1.14,0,0,0,.82.33v.36h-4.73v-.36a1,1,0,0,0,.76-.44,2.87,2.87,0,0,0,.16-1.24v-4.16a6.83,6.83,0,0,0-.09-1.45.89.89,0,0,0-.3-.46.76.76,0,0,0-.47-.17q-.86,0-1.6,1.23v5a2.78,2.78,0,0,0,.2,1.33,1,1,0,0,0,.72.35v.36h-4.73v-.36a1.16,1.16,0,0,0,.84-.38,2.8,2.8,0,0,0,.17-1.3v-5.28a2.67,2.67,0,0,0-.2-1.32,1.19,1.19,0,0,0-.81-.34v-.37Z" transform="translate(115.33 -81.6)"/><path d="M329.45,150.32v7.41a2.23,2.23,0,0,0,.23,1.26,1.25,1.25,0,0,0,.9.32v.36h-5v-.36a1.22,1.22,0,0,0,.92-.36,2.22,2.22,0,0,0,.2-1.22v-5.46a2.24,2.24,0,0,0-.23-1.26,1.24,1.24,0,0,0-.89-.32v-.37Zm-1.4-4.53a1.54,1.54,0,0,1,1.55,1.55,1.47,1.47,0,0,1-.46,1.09,1.54,1.54,0,0,1-2.18-2.18A1.48,1.48,0,0,1,328.05,145.79Z" transform="translate(115.33 -81.6)"/><path d="M335.31,150.32v1.21a5.51,5.51,0,0,1,1.38-1.13,3,3,0,0,1,1.42-.36,2.27,2.27,0,0,1,1.51.5,2.42,2.42,0,0,1,.8,1.25,9.61,9.61,0,0,1,.16,2.19v3.64a2.77,2.77,0,0,0,.2,1.34,1.14,1.14,0,0,0,.81.33v.36h-4.73v-.36a1,1,0,0,0,.76-.44,2.85,2.85,0,0,0,.16-1.24v-4.16a6.76,6.76,0,0,0-.09-1.45.88.88,0,0,0-.3-.46.76.76,0,0,0-.47-.17q-.86,0-1.6,1.23v5a2.79,2.79,0,0,0,.2,1.33,1,1,0,0,0,.72.35v.36H331.5v-.36a1.16,1.16,0,0,0,.84-.38,2.8,2.8,0,0,0,.17-1.3v-5.28a2.69,2.69,0,0,0-.19-1.32,1.19,1.19,0,0,0-.81-.34v-.37Z" transform="translate(115.33 -81.6)"/><path d="M348.87,150.43H352v1.1h-1.79a3.42,3.42,0,0,1,.68.89,2.91,2.91,0,0,1-.32,2.86,3.67,3.67,0,0,1-1.51,1.15,4.32,4.32,0,0,1-1.69.42l-1.2,0a1,1,0,0,0-.75.29.94.94,0,0,0-.31.7.74.74,0,0,0,.27.59,1.39,1.39,0,0,0,.89.23l1.73,0a6.29,6.29,0,0,1,2.89.46,2.11,2.11,0,0,1,1.13,2,2.52,2.52,0,0,1-.52,1.54,3.05,3.05,0,0,1-1.37,1,8.32,8.32,0,0,1-3,.49,10,10,0,0,1-2.3-.25,3.2,3.2,0,0,1-1.49-.68,1.28,1.28,0,0,1-.45-.91,1.17,1.17,0,0,1,.34-.83,2.77,2.77,0,0,1,1.28-.61,2,2,0,0,1-1.3-1.78,2.1,2.1,0,0,1,.53-1.34,4.23,4.23,0,0,1,1.68-1.13,4.11,4.11,0,0,1-1.94-1.29,3,3,0,0,1-.6-1.85,3.09,3.09,0,0,1,1.12-2.37,4.15,4.15,0,0,1,2.88-1A5.22,5.22,0,0,1,348.87,150.43ZM346.55,161a3.45,3.45,0,0,0-1.35.17.93.93,0,0,0-.57.84,1.15,1.15,0,0,0,.59.92,4.15,4.15,0,0,0,2.22.42,5.28,5.28,0,0,0,2.18-.37,1.15,1.15,0,0,0,.79-1,.61.61,0,0,0-.15-.42,1.44,1.44,0,0,0-.81-.41A21.44,21.44,0,0,0,346.55,161Zm.59-10.38a1.16,1.16,0,0,0-1,.58,4.83,4.83,0,0,0-.4,2.42,3.75,3.75,0,0,0,.39,2,1.14,1.14,0,0,0,.93.55,1.19,1.19,0,0,0,1-.55,3.93,3.93,0,0,0,.4-2.14,4.63,4.63,0,0,0-.45-2.44A1,1,0,0,0,347.14,150.66Z" transform="translate(115.33 -81.6)"/></svg>