<svg id="Layer_1" data-name="Layer 1" xmlns="http://www.w3.org/2000/svg" viewBox="0 0 125.82 28.25"><defs><style>.cls-1{fill:#007bff;}.cls-2{fill:#fff;}</style></defs><title>logo-skillshub</title><path d="M76.58,126.63a6.59,6.59,0,0,1-.63,2.95,6.11,6.11,0,0,1-1.7,2.12,7.39,7.39,0,0,1-2.5,1.28,10.66,10.66,0,0,1-3.06.43,11,11,0,0,1-2.05-.18,11.71,11.71,0,0,1-1.67-.44,7.29,7.29,0,0,1-1.21-.54,3.49,3.49,0,0,1-.7-.49,1.24,1.24,0,0,1-.3-.62,5.68,5.68,0,0,1-.09-1.16q0-.51,0-.86a2.46,2.46,0,0,1,.11-.56.62.62,0,0,1,.2-.3.47.47,0,0,1,.29-.09,1.36,1.36,0,0,1,.65.27A11.61,11.61,0,0,0,65,129a9.78,9.78,0,0,0,1.57.6,7.46,7.46,0,0,0,2.12.27,4.9,4.9,0,0,0,1.42-.19,3.17,3.17,0,0,0,1.06-.54,2.27,2.27,0,0,0,.67-.86,2.73,2.73,0,0,0,.23-1.14,2,2,0,0,0-.4-1.24,3.91,3.91,0,0,0-1-.92,10.73,10.73,0,0,0-1.44-.76l-1.66-.75a15.1,15.1,0,0,1-1.66-.9,6.71,6.71,0,0,1-1.44-1.2,5.66,5.66,0,0,1-1-1.66,6,6,0,0,1-.4-2.29,6.06,6.06,0,0,1,.57-2.69,5.52,5.52,0,0,1,1.53-1.93,6.51,6.51,0,0,1,2.27-1.14,9.94,9.94,0,0,1,2.77-.38,10.08,10.08,0,0,1,1.52.12,10.39,10.39,0,0,1,1.42.31,7.89,7.89,0,0,1,1.17.44,2.74,2.74,0,0,1,.68.41,1.2,1.2,0,0,1,.22.28,1.32,1.32,0,0,1,.1.3,3.15,3.15,0,0,1,.06.48q0,.29,0,.72t0,.81a3,3,0,0,1-.08.54.65.65,0,0,1-.16.31.41.41,0,0,1-.29.1,1.37,1.37,0,0,1-.58-.23q-.4-.23-1-.5a9.25,9.25,0,0,0-1.33-.49,5.88,5.88,0,0,0-1.66-.22,4,4,0,0,0-1.23.17,2.55,2.55,0,0,0-.88.48,1.88,1.88,0,0,0-.53.73,2.4,2.4,0,0,0-.17.91,2,2,0,0,0,.39,1.23,3.71,3.71,0,0,0,1,.92,11,11,0,0,0,1.47.76l1.68.75a16.48,16.48,0,0,1,1.68.9,6.76,6.76,0,0,1,1.47,1.2,5.6,5.6,0,0,1,1,1.65A5.76,5.76,0,0,1,76.58,126.63Z" transform="translate(-62.66 -108.66)"/><path d="M93.3,132.48a.48.48,0,0,1-.09.29.63.63,0,0,1-.33.2,3.49,3.49,0,0,1-.65.12q-.41,0-1.07,0c-.45,0-.81,0-1.1,0a3.75,3.75,0,0,1-.69-.11,1,1,0,0,1-.42-.21,1.24,1.24,0,0,1-.26-.35l-4.89-7.74v7.77a.45.45,0,0,1-.1.29.73.73,0,0,1-.34.21,2.89,2.89,0,0,1-.63.12q-.4,0-1,0t-1,0a2.88,2.88,0,0,1-.63-.12.73.73,0,0,1-.34-.21.45.45,0,0,1-.1-.29V110.81a.48.48,0,0,1,.1-.3.74.74,0,0,1,.34-.22,2.83,2.83,0,0,1,.63-.14,10.16,10.16,0,0,1,2,0,2.84,2.84,0,0,1,.63.14.74.74,0,0,1,.34.22.48.48,0,0,1,.1.3v12.9l4.35-5.85a1.83,1.83,0,0,1,.3-.35,1.14,1.14,0,0,1,.44-.23,3.69,3.69,0,0,1,.68-.12q.4,0,1,0t1,0a3.37,3.37,0,0,1,.68.12.74.74,0,0,1,.35.21.47.47,0,0,1,.1.3,1.31,1.31,0,0,1-.12.53,2.76,2.76,0,0,1-.37.59l-4.3,4.88,5,7.69a3.71,3.71,0,0,1,.29.57A1.25,1.25,0,0,1,93.3,132.48Z" transform="translate(-62.66 -108.66)"/><path d="M100.29,112.8a2.32,2.32,0,0,1-.51,1.73,4,4,0,0,1-3.78,0,2.25,2.25,0,0,1-.49-1.66,2.38,2.38,0,0,1,.5-1.74,4,4,0,0,1,3.78,0A2.26,2.26,0,0,1,100.29,112.8ZM100,132.46a.45.45,0,0,1-.1.29.73.73,0,0,1-.34.21,2.89,2.89,0,0,1-.63.12q-.4,0-1,0t-1,0a2.88,2.88,0,0,1-.63-.12.73.73,0,0,1-.34-.21.45.45,0,0,1-.1-.29V117.8a.45.45,0,0,1,.1-.29.78.78,0,0,1,.34-.21,2.83,2.83,0,0,1,.63-.14,10.26,10.26,0,0,1,2,0,2.84,2.84,0,0,1,.63.14.79.79,0,0,1,.34.21.45.45,0,0,1,.1.29Z" transform="translate(-62.66 -108.66)"/><path d="M108.27,132.46a.45.45,0,0,1-.1.29.73.73,0,0,1-.34.21,2.89,2.89,0,0,1-.63.12q-.4,0-1,0t-1,0a2.88,2.88,0,0,1-.63-.12.73.73,0,0,1-.34-.21.45.45,0,0,1-.1-.29V110.81a.48.48,0,0,1,.1-.3.74.74,0,0,1,.34-.22,2.83,2.83,0,0,1,.63-.14,10.16,10.16,0,0,1,2,0,2.84,2.84,0,0,1,.63.14.74.74,0,0,1,.34.22.48.48,0,0,1,.1.3Z" transform="translate(-62.66 -108.66)"/><path d="M116.55,132.46a.45.45,0,0,1-.1.29.73.73,0,0,1-.34.21,2.89,2.89,0,0,1-.63.12q-.4,0-1,0t-1,0a2.88,2.88,0,0,1-.63-.12.73.73,0,0,1-.34-.21.45.45,0,0,1-.1-.29V110.81a.48.48,0,0,1,.1-.3.74.74,0,0,1,.34-.22,2.83,2.83,0,0,1,.63-.14,10.16,10.16,0,0,1,2,0,2.84,2.84,0,0,1,.63.14.74.74,0,0,1,.34.22.48.48,0,0,1,.1.3Z" transform="translate(-62.66 -108.66)"/><path d="M131,128.31a5,5,0,0,1-.47,2.21,4.38,4.38,0,0,1-1.33,1.6,6,6,0,0,1-2,1,9.56,9.56,0,0,1-2.54.32,9.82,9.82,0,0,1-2.92-.44,7.11,7.11,0,0,1-1-.39,2.44,2.44,0,0,1-.58-.37,1.14,1.14,0,0,1-.28-.54,4.54,4.54,0,0,1-.1-1.09,6.91,6.91,0,0,1,0-.77,1.93,1.93,0,0,1,.1-.46.43.43,0,0,1,.16-.23.49.49,0,0,1,.25-.06,1.22,1.22,0,0,1,.54.21q.35.21.88.45a9.12,9.12,0,0,0,1.23.46,5.43,5.43,0,0,0,1.59.21,3.9,3.9,0,0,0,1-.12,2.5,2.5,0,0,0,.76-.33,1.39,1.39,0,0,0,.49-.54,1.67,1.67,0,0,0,.17-.76,1.26,1.26,0,0,0-.3-.85,2.7,2.7,0,0,0-.81-.62,9.37,9.37,0,0,0-1.14-.49q-.63-.23-1.3-.51a11.86,11.86,0,0,1-1.3-.64,4.93,4.93,0,0,1-1.14-.89,4,4,0,0,1-.81-1.27,4.66,4.66,0,0,1-.3-1.78,4.51,4.51,0,0,1,.41-1.94,4.2,4.2,0,0,1,1.19-1.51,5.62,5.62,0,0,1,1.89-1,8.38,8.38,0,0,1,2.49-.35,8.92,8.92,0,0,1,1.34.1,9.77,9.77,0,0,1,1.18.25,5.55,5.55,0,0,1,.89.32,2.9,2.9,0,0,1,.52.3.82.82,0,0,1,.22.25,1.06,1.06,0,0,1,.1.3c0,.12,0,.26.06.43s0,.38,0,.63,0,.54,0,.72a1.87,1.87,0,0,1-.08.44.4.4,0,0,1-.16.22.45.45,0,0,1-.23.06,1.12,1.12,0,0,1-.46-.17,8.37,8.37,0,0,0-.78-.37,9.29,9.29,0,0,0-1.09-.37,5.24,5.24,0,0,0-1.41-.17,3.63,3.63,0,0,0-1,.12,1.85,1.85,0,0,0-.68.33,1.39,1.39,0,0,0-.4.5,1.47,1.47,0,0,0-.13.62,1.23,1.23,0,0,0,.31.86,2.86,2.86,0,0,0,.82.61,9.24,9.24,0,0,0,1.16.49q.65.23,1.32.5a12,12,0,0,1,1.32.63,5,5,0,0,1,1.16.89,4.11,4.11,0,0,1,.82,1.26A4.4,4.4,0,0,1,131,128.31Z" transform="translate(-62.66 -108.66)"/><rect class="cls-1" x="72.02" width="53.8" height="28.25"/><path class="cls-2" d="M141.41,130.6V114.69h1.73v6.8h8v-6.8h1.74V130.6h-1.74V123h-8v7.57Z" transform="translate(-62.66 -108.66)"/><path class="cls-2" d="M156.54,114.69h1.73v10.26a10,10,0,0,0,.1,1.62,3.34,3.34,0,0,0,.32,1,3,3,0,0,0,1.38,1.33,4.79,4.79,0,0,0,2.19.47,4.84,4.84,0,0,0,2.21-.47,3,3,0,0,0,1.38-1.33,3.63,3.63,0,0,0,.32-1,12.46,12.46,0,0,0,.1-1.86v-10H168v10.54a5.63,5.63,0,0,1-1.47,4.2,7.1,7.1,0,0,1-8.55,0,5.67,5.67,0,0,1-1.44-4.22Z" transform="translate(-62.66 -108.66)"/><path class="cls-2" d="M171.68,130.6V114.69H176a8.89,8.89,0,0,1,4.71,1,3.38,3.38,0,0,1,1.46,3.06,3.51,3.51,0,0,1-.66,2.15,4.17,4.17,0,0,1-1.94,1.38,5,5,0,0,1,2.27,1.62,4,4,0,0,1,.79,2.48,3.67,3.67,0,0,1-1.53,3.21,7.94,7.94,0,0,1-4.57,1.08Zm4.64-14.48h-2.91v5.39h3.39a4.2,4.2,0,0,0,2.64-.72,2.5,2.5,0,0,0,.92-2.09,2.15,2.15,0,0,0-1-1.95A5.84,5.84,0,0,0,176.32,116.12Zm.38,6.86h-3.29v6.1h3.29a5.37,5.37,0,0,0,3.13-.72,2.63,2.63,0,0,0,1-2.28,2.72,2.72,0,0,0-1.05-2.31A5,5,0,0,0,176.69,123Z" transform="translate(-62.66 -108.66)"/></svg>