<?xml version="1.0" encoding="utf-8"?>
<!-- Generator: Adobe Illustrator 21.0.2, SVG Export Plug-In . SVG Version: 6.00 Build 0)  -->
<svg version="1.1" id="Layer_1" xmlns="http://www.w3.org/2000/svg" xmlns:xlink="http://www.w3.org/1999/xlink" x="0px" y="0px"
	 viewBox="0 0 125.8 28.3" style="enable-background:new 0 0 125.8 28.3;" xml:space="preserve">
<style type="text/css">
	.st0{fill:#3B53A4;}
	.st1{fill:#FFFFFF;}
</style>
<title>logo-skillshub</title>
<path d="M13.9,18c0,1-0.2,2-0.6,3c-0.4,0.8-1,1.5-1.7,2.1c-0.7,0.6-1.6,1-2.5,1.3c-1,0.3-2,0.4-3.1,0.4c-0.7,0-1.4-0.1-2.1-0.2
	c-0.6-0.1-1.1-0.3-1.7-0.4c-0.4-0.1-0.8-0.3-1.2-0.5c-0.3-0.1-0.5-0.3-0.7-0.5c-0.2-0.2-0.3-0.4-0.3-0.6C0,22.1,0,21.7,0,21.3
	c0-0.3,0-0.6,0-0.9c0-0.2,0.1-0.4,0.1-0.6c0-0.1,0.1-0.2,0.2-0.3c0.1-0.1,0.2-0.1,0.3-0.1c0.2,0,0.5,0.1,0.7,0.3
	C1.6,20,2,20.2,2.3,20.3c0.5,0.2,1,0.4,1.6,0.6c0.7,0.2,1.4,0.3,2.1,0.3c0.5,0,1-0.1,1.4-0.2c0.4-0.1,0.7-0.3,1.1-0.5
	C8.8,20.3,9,20,9.2,19.6c0.2-0.4,0.2-0.7,0.2-1.1c0-0.4-0.1-0.9-0.4-1.2c-0.3-0.4-0.6-0.7-1-0.9c-0.5-0.3-0.9-0.5-1.4-0.8l-1.7-0.8
	c-0.6-0.3-1.1-0.6-1.7-0.9c-0.5-0.3-1-0.7-1.4-1.2c-0.4-0.5-0.8-1.1-1-1.7c-0.3-0.7-0.4-1.5-0.4-2.3c0-0.9,0.2-1.8,0.6-2.7
	c0.4-0.8,0.9-1.4,1.5-1.9C3.2,3.6,4,3.2,4.8,3c0.9-0.3,1.8-0.4,2.8-0.4c0.5,0,1,0,1.5,0.1c0.5,0.1,1,0.2,1.4,0.3
	c0.4,0.1,0.8,0.3,1.2,0.4c0.2,0.1,0.5,0.2,0.7,0.4c0.1,0.1,0.2,0.2,0.2,0.3c0,0.1,0.1,0.2,0.1,0.3c0,0.2,0.1,0.3,0.1,0.5
	c0,0.2,0,0.4,0,0.7s0,0.6,0,0.8c0,0.2,0,0.4-0.1,0.5c0,0.1-0.1,0.2-0.2,0.3c-0.1,0.1-0.2,0.1-0.3,0.1c-0.2,0-0.4-0.1-0.6-0.2
	c-0.3-0.2-0.6-0.3-1-0.5c-0.4-0.2-0.9-0.4-1.3-0.5C8.7,6.1,8.2,6,7.6,6C7.2,6,6.8,6,6.4,6.2C6.1,6.3,5.8,6.4,5.5,6.7
	C5.3,6.8,5.1,7.1,5,7.4C4.9,7.7,4.8,8,4.8,8.3c0,0.4,0.1,0.9,0.4,1.2c0.3,0.4,0.6,0.7,1,0.9c0.5,0.3,1,0.5,1.5,0.8L9.3,12
	c0.6,0.3,1.1,0.6,1.7,0.9c0.5,0.3,1,0.7,1.5,1.2c0.4,0.5,0.8,1,1,1.7C13.8,16.4,13.9,17.2,13.9,18z"/>
<path d="M30.6,23.8c0,0.1,0,0.2-0.1,0.3c-0.1,0.1-0.2,0.2-0.3,0.2c-0.2,0.1-0.4,0.1-0.7,0.1c-0.3,0-0.6,0-1.1,0c-0.4,0-0.8,0-1.1,0
	c-0.2,0-0.5-0.1-0.7-0.1c-0.2,0-0.3-0.1-0.4-0.2c-0.1-0.1-0.2-0.2-0.3-0.4L21.1,16v7.8c0,0.1,0,0.2-0.1,0.3
	c-0.1,0.1-0.2,0.2-0.3,0.2c-0.2,0.1-0.4,0.1-0.6,0.1c-0.3,0-0.6,0-1,0s-0.7,0-1,0c-0.2,0-0.4-0.1-0.6-0.1c-0.1,0-0.2-0.1-0.3-0.2
	C17,24,17,23.9,17,23.8V2.1c0-0.1,0-0.2,0.1-0.3c0.1-0.1,0.2-0.2,0.3-0.2c0.2-0.1,0.4-0.1,0.6-0.1c0.7-0.1,1.3-0.1,2,0
	c0.2,0,0.4,0.1,0.6,0.1c0.1,0,0.2,0.1,0.3,0.2c0.1,0.1,0.1,0.2,0.1,0.3V15l4.3-5.8c0.1-0.1,0.2-0.2,0.3-0.3c0.1-0.1,0.3-0.2,0.4-0.2
	c0.2-0.1,0.5-0.1,0.7-0.1c0.3,0,0.6,0,1,0s0.7,0,1,0c0.2,0,0.5,0.1,0.7,0.1c0.1,0,0.3,0.1,0.3,0.2C30,8.9,30,9,30,9.1
	c0,0.2,0,0.4-0.1,0.5c-0.1,0.2-0.2,0.4-0.4,0.6l-4.3,4.9l5,7.7c0.1,0.2,0.2,0.4,0.3,0.6C30.6,23.5,30.6,23.7,30.6,23.8z"/>
<path d="M37.6,4.1c0.1,0.6-0.1,1.2-0.5,1.7c-1.2,0.6-2.6,0.6-3.8,0c-0.4-0.5-0.6-1.1-0.5-1.7C32.8,3.6,33,3,33.4,2.5
	c1.2-0.6,2.6-0.6,3.8,0C37.5,2.9,37.7,3.5,37.6,4.1z M37.3,23.8c0,0.1,0,0.2-0.1,0.3c-0.1,0.1-0.2,0.2-0.3,0.2
	c-0.2,0.1-0.4,0.1-0.6,0.1c-0.3,0-0.6,0-1,0s-0.7,0-1,0c-0.2,0-0.4-0.1-0.6-0.1c-0.1,0-0.2-0.1-0.3-0.2c-0.1-0.1-0.1-0.2-0.1-0.3
	V9.1c0-0.1,0-0.2,0.1-0.3c0.1-0.1,0.2-0.2,0.3-0.2c0.2-0.1,0.4-0.1,0.6-0.1c0.7-0.1,1.3-0.1,2,0c0.2,0,0.4,0.1,0.6,0.1
	c0.1,0,0.2,0.1,0.3,0.2c0.1,0.1,0.1,0.2,0.1,0.3V23.8z"/>
<path d="M45.6,23.8c0,0.1,0,0.2-0.1,0.3c-0.1,0.1-0.2,0.2-0.3,0.2c-0.2,0.1-0.4,0.1-0.6,0.1c-0.3,0-0.6,0-1,0c-0.4,0-0.7,0-1,0
	c-0.2,0-0.4-0.1-0.6-0.1c-0.1,0-0.2-0.1-0.3-0.2c-0.1-0.1-0.1-0.2-0.1-0.3V2.1c0-0.1,0-0.2,0.1-0.3c0.1-0.1,0.2-0.2,0.3-0.2
	c0.2-0.1,0.4-0.1,0.6-0.1c0.7-0.1,1.3-0.1,2,0c0.2,0,0.4,0.1,0.6,0.1c0.1,0,0.2,0.1,0.3,0.2c0.1,0.1,0.1,0.2,0.1,0.3V23.8z"/>
<path d="M53.9,23.8c0,0.1,0,0.2-0.1,0.3c-0.1,0.1-0.2,0.2-0.3,0.2c-0.2,0.1-0.4,0.1-0.6,0.1c-0.3,0-0.6,0-1,0s-0.7,0-1,0
	c-0.2,0-0.4-0.1-0.6-0.1c-0.1,0-0.2-0.1-0.3-0.2c-0.1-0.1-0.1-0.2-0.1-0.3V2.1c0-0.1,0-0.2,0.1-0.3c0.1-0.1,0.2-0.2,0.3-0.2
	c0.2-0.1,0.4-0.1,0.6-0.1c0.7-0.1,1.3-0.1,2,0c0.2,0,0.4,0.1,0.6,0.1c0.1,0,0.2,0.1,0.3,0.2c0.1,0.1,0.1,0.2,0.1,0.3V23.8z"/>
<path d="M68.3,19.6c0,0.8-0.1,1.5-0.5,2.2c-0.3,0.6-0.8,1.2-1.3,1.6c-0.6,0.5-1.3,0.8-2,1c-0.8,0.2-1.7,0.3-2.5,0.3
	c-1,0-2-0.1-2.9-0.4c-0.3-0.1-0.7-0.2-1-0.4c-0.2-0.1-0.4-0.2-0.6-0.4c-0.1-0.2-0.2-0.3-0.3-0.5c-0.1-0.4-0.1-0.7-0.1-1.1
	c0-0.3,0-0.5,0-0.8c0-0.2,0-0.3,0.1-0.5c0-0.1,0.1-0.2,0.2-0.2c0.1,0,0.2-0.1,0.3-0.1c0.2,0,0.4,0.1,0.5,0.2
	c0.2,0.1,0.5,0.3,0.9,0.4c0.4,0.2,0.8,0.3,1.2,0.5c0.5,0.1,1.1,0.2,1.6,0.2c0.3,0,0.7,0,1-0.1c0.3-0.1,0.5-0.2,0.8-0.3
	c0.2-0.1,0.4-0.3,0.5-0.5c0.1-0.2,0.2-0.5,0.2-0.8c0-0.3-0.1-0.6-0.3-0.8c-0.2-0.3-0.5-0.5-0.8-0.6c-0.4-0.2-0.7-0.4-1.1-0.5
	c-0.4-0.2-0.9-0.3-1.3-0.5c-0.4-0.2-0.9-0.4-1.3-0.6c-0.4-0.2-0.8-0.5-1.1-0.9c-0.3-0.4-0.6-0.8-0.8-1.3c-0.2-0.6-0.3-1.2-0.3-1.8
	c0-0.7,0.1-1.3,0.4-1.9c0.3-0.6,0.7-1.1,1.2-1.5c0.6-0.5,1.2-0.8,1.9-1c0.8-0.2,1.6-0.4,2.5-0.3c0.4,0,0.9,0,1.3,0.1
	c0.4,0.1,0.8,0.1,1.2,0.3c0.3,0.1,0.6,0.2,0.9,0.3c0.2,0.1,0.4,0.2,0.5,0.3c0.1,0.1,0.2,0.2,0.2,0.3c0,0.1,0.1,0.2,0.1,0.3
	c0,0.1,0,0.3,0.1,0.4s0,0.4,0,0.6s0,0.5,0,0.7c0,0.1,0,0.3-0.1,0.4c0,0.1-0.1,0.2-0.2,0.2c-0.1,0-0.1,0.1-0.2,0.1
	c-0.2,0-0.3-0.1-0.5-0.2c-0.3-0.1-0.5-0.3-0.8-0.4c-0.4-0.1-0.7-0.3-1.1-0.4c-0.5-0.1-0.9-0.2-1.4-0.2c-0.3,0-0.7,0-1,0.1
	c-0.2,0.1-0.5,0.2-0.7,0.3c-0.2,0.1-0.3,0.3-0.4,0.5c-0.1,0.2-0.1,0.4-0.1,0.6c0,0.3,0.1,0.6,0.3,0.9c0.2,0.3,0.5,0.5,0.8,0.6
	c0.4,0.2,0.8,0.4,1.2,0.5c0.4,0.2,0.9,0.3,1.3,0.5c0.5,0.2,0.9,0.4,1.3,0.6c0.4,0.2,0.8,0.5,1.2,0.9c0.3,0.4,0.6,0.8,0.8,1.3
	C68.2,18.5,68.3,19.1,68.3,19.6z"/>
<rect x="72" class="st0" width="53.8" height="28.3"/>
<path class="st1" d="M78.8,21.9V6h1.7v6.8h8V6h1.7v15.9h-1.7v-7.6h-8v7.6L78.8,21.9z"/>
<path class="st1" d="M93.9,6h1.7v10.3c0,0.5,0,1.1,0.1,1.6c0.1,0.3,0.2,0.7,0.3,1c0.3,0.6,0.8,1,1.4,1.3c0.7,0.3,1.4,0.5,2.2,0.5
	c0.8,0,1.5-0.1,2.2-0.5c0.6-0.3,1.1-0.7,1.4-1.3c0.2-0.3,0.3-0.7,0.3-1c0.1-0.6,0.1-1.2,0.1-1.9v-10h1.7v10.5
	c0.1,1.5-0.4,3.1-1.5,4.2c-2.5,1.9-6,1.9-8.6,0c-1-1.2-1.6-2.7-1.4-4.2V6z"/>
<path class="st1" d="M109,21.9V6h4.3c1.6-0.1,3.3,0.2,4.7,1c1,0.7,1.6,1.9,1.5,3.1c0,0.8-0.2,1.5-0.7,2.2c-0.5,0.6-1.2,1.1-1.9,1.4
	c0.9,0.3,1.7,0.9,2.3,1.6c0.5,0.7,0.8,1.6,0.8,2.5c0.1,1.3-0.5,2.5-1.5,3.2c-1.4,0.8-3,1.2-4.6,1.1L109,21.9z M113.7,7.5h-2.9v5.4
	h3.4c0.9,0.1,1.9-0.2,2.6-0.7c0.6-0.5,1-1.3,0.9-2.1c0-0.8-0.3-1.5-1-1.9C115.8,7.6,114.7,7.4,113.7,7.5L113.7,7.5z M114,14.3h-3.3
	v6.1h3.3c1.1,0.1,2.2-0.2,3.1-0.7c0.7-0.5,1.1-1.4,1-2.3c0.1-0.9-0.3-1.8-1.1-2.3C116.2,14.5,115.1,14.3,114,14.3L114,14.3z"/>
</svg>
