<svg id="Layer_1" data-name="Layer 1" xmlns="http://www.w3.org/2000/svg" viewBox="0 0 30 318"><defs><style>.cls-1{fill:#757575;}.cls-2{fill:#252525;}</style></defs><title>nav-notifications</title><path class="cls-1" d="M14.6,31.9a2.11,2.11,0,0,0,2.1-2.1H12.5A2,2,0,0,0,14.6,31.9Z"/><path class="cls-1" d="M22.6,25.1V18.4a7.83,7.83,0,0,0-6.1-7.7V9.8a1.88,1.88,0,0,0-2-1.7,1.92,1.92,0,0,0-1.7,1.7v.9a7.83,7.83,0,0,0-6.1,7.7v6.7L4.2,27.6v1.2H25V27.6ZM7.9,26.7l.2-.2a2,2,0,0,0,.6-1.4V18.4a5.9,5.9,0,0,1,4.6-5.8c.1,0,.2-.1.3-.1a3.75,3.75,0,0,1,1.1-.1,3.4,3.4,0,0,1,1,.1c.1,0,.2.1.3.1a5.9,5.9,0,0,1,4.6,5.8v6.7a1.82,1.82,0,0,0,.6,1.4l.2.2Z"/><path class="cls-2" d="M14.6,312.2a2.11,2.11,0,0,0,2.1-2.1H12.5A2,2,0,0,0,14.6,312.2Z"/><path class="cls-2" d="M22.7,305.3v-6.7a7.83,7.83,0,0,0-6.1-7.7V290a1.88,1.88,0,0,0-2-1.7,1.92,1.92,0,0,0-1.7,1.7v.9a7.83,7.83,0,0,0-6.1,7.7v6.7l-2.4,2.4v1.2H25.2v-1.2Z"/></svg>