<svg id="Layer_1" data-name="Layer 1" xmlns="http://www.w3.org/2000/svg" viewBox="0 0 30 318"><defs><style>.cls-1{fill:#757575;}.cls-2{fill:#4a4a4a;}</style></defs><title>nav-finance</title><path class="cls-1" d="M21.39,16.08h0V16h0l0-.06v0l0,0v0h0l0,0h0l0-.05h0l0,0h0l-.06,0L13,11.06l4.66-2.94,7.82,4.45L22.2,14.64a.55.55,0,1,0,.59.93L26.85,13a.55.55,0,0,0,0-.94L17.93,7a.55.55,0,0,0-.56,0l-5.72,3.6h0l-2.86,1.8h0L3.06,16a.55.55,0,0,0,0,.94L12,22a.55.55,0,0,0,.56,0l4.07-2.56a.55.55,0,0,0-.59-.93L12.24,20.9,4.43,16.46l4.66-2.94,8.34,4.74v6.28a.55.55,0,0,0,.84.47l2.86-1.8a.55.55,0,0,0,.26-.47v-6.6h0A.52.52,0,0,0,21.39,16.08Z"/><path class="cls-1" d="M26.27,14.27,22.2,16.84a.55.55,0,0,0,.59.93l4.07-2.56a.55.55,0,1,0-.59-.93Z"/><path class="cls-1" d="M16,20.72,12.24,23.1,3.63,18.2a.55.55,0,0,0-.54,1L12,24.22a.55.55,0,0,0,.56,0l4.07-2.56a.55.55,0,0,0-.59-.93Z"/><path class="cls-1" d="M26.27,16.47,22.2,19a.55.55,0,0,0,.59.93l4.07-2.56a.55.55,0,1,0-.59-.93Z"/><path class="cls-1" d="M16,22.91,12.24,25.3,3.63,20.4a.55.55,0,0,0-.54,1L12,26.42a.55.55,0,0,0,.56,0l4.07-2.56a.55.55,0,0,0-.59-.93Z"/><path class="cls-1" d="M26.27,18.67,22.2,21.24a.55.55,0,0,0,.59.93l4.07-2.56a.55.55,0,1,0-.59-.93Z"/><path class="cls-1" d="M16,25.11,12.24,27.5,3.63,22.6a.55.55,0,0,0-.54,1L12,28.62a.55.55,0,0,0,.56,0L16.62,26a.55.55,0,0,0-.59-.93Z"/><path class="cls-2" d="M21.39,296.74h0v-.07h0l0-.06v0l0,0v0h0l0,0h0l0-.05h0l0,0h0l-.06,0-8.1-4.6,4.66-2.94,7.82,4.45L22.2,295.3a.55.55,0,1,0,.59.93l4.07-2.56a.55.55,0,0,0,0-.94l-8.9-5.06a.55.55,0,0,0-.56,0l-5.72,3.6h0l-2.86,1.8h0l-5.72,3.6a.55.55,0,0,0,0,.94l8.9,5.06a.55.55,0,0,0,.56,0l4.07-2.56a.55.55,0,0,0-.59-.93l-3.79,2.39-7.82-4.44,4.66-2.94,8.34,4.74v6.28a.55.55,0,0,0,.84.47l2.86-1.8a.55.55,0,0,0,.26-.47v-6.6h0A.52.52,0,0,0,21.39,296.74Z"/><path class="cls-2" d="M26.27,294.94,22.2,297.5a.55.55,0,0,0,.59.93l4.07-2.56a.55.55,0,1,0-.59-.93Z"/><path class="cls-2" d="M16,301.38l-3.79,2.39-8.62-4.9a.55.55,0,0,0-.54,1l8.9,5.06a.55.55,0,0,0,.56,0l4.07-2.56a.55.55,0,0,0-.59-.93Z"/><path class="cls-2" d="M26.27,297.14,22.2,299.7a.55.55,0,0,0,.59.93l4.07-2.56a.55.55,0,1,0-.59-.93Z"/><path class="cls-2" d="M16,303.58,12.24,306l-8.62-4.9a.55.55,0,0,0-.54,1l8.9,5.06a.55.55,0,0,0,.56,0l4.07-2.56a.55.55,0,0,0-.59-.93Z"/><path class="cls-2" d="M26.27,299.34,22.2,301.9a.55.55,0,0,0,.59.93l4.07-2.56a.55.55,0,1,0-.59-.93Z"/><path class="cls-2" d="M16,305.78l-3.79,2.39-8.62-4.9a.55.55,0,0,0-.54,1l8.9,5.06a.55.55,0,0,0,.56,0l4.07-2.56a.55.55,0,0,0-.59-.93Z"/></svg>