<svg id="Layer_1" data-name="Layer 1" xmlns="http://www.w3.org/2000/svg" viewBox="0 0 30 318"><defs><style>.cls-1{fill:#4a4a4a;}.cls-2{fill:#757575;}</style></defs><title>nav-tasks</title><path class="cls-1" d="M21.83,293H20.12a2.63,2.63,0,0,1,.11.75v1.81H9.78v-1.83a2.67,2.67,0,0,1,.11-.73H8.17a.75.75,0,0,0-.75.75v14.06a.75.75,0,0,0,.75.75H21.83a.75.75,0,0,0,.75-.75V293.78A.75.75,0,0,0,21.83,293Zm-2.6,6-5.81,5.81-3-3,.75-.75,2.26,2.26,5.13-5.13.75.75Z"/><circle class="cls-1" cx="15.01" cy="291.21" r="0.74"/><path class="cls-1" d="M21.83,292H19.5a2.65,2.65,0,0,0-1.21-.75,1.07,1.07,0,0,1-.74-.74,2.66,2.66,0,0,0-5.12,0,1.08,1.08,0,0,1-.74.74,2.65,2.65,0,0,0-1.2.75H8.17a1.81,1.81,0,0,0-1.81,1.81v14.06a1.81,1.81,0,0,0,1.81,1.81H21.83a1.81,1.81,0,0,0,1.81-1.81V293.78A1.81,1.81,0,0,0,21.83,292Zm-11,1.8A1.61,1.61,0,0,1,12,292.23a2.13,2.13,0,0,0,1.46-1.46,1.61,1.61,0,0,1,3.09,0A2.12,2.12,0,0,0,18,292.23a1.61,1.61,0,0,1,1.16,1.54v.75H10.83Zm11.75,14.08a.75.75,0,0,1-.75.75H8.17a.75.75,0,0,1-.75-.75V293.78a.75.75,0,0,1,.75-.75H9.88a2.67,2.67,0,0,0-.11.73v1.83H20.23v-1.81a2.63,2.63,0,0,0-.11-.75h1.71a.75.75,0,0,1,.75.75Z"/><polygon class="cls-2" points="13.42 23.17 11.16 20.91 10.41 21.65 13.42 24.66 19.23 18.86 19.3 18.78 18.55 18.04 13.42 23.17"/><circle class="cls-2" cx="15.01" cy="11.02" r="0.74"/><path class="cls-2" d="M21.83,11.77H19.5A2.65,2.65,0,0,0,18.3,11a1.07,1.07,0,0,1-.74-.74,2.66,2.66,0,0,0-5.12,0,1.08,1.08,0,0,1-.74.74,2.65,2.65,0,0,0-1.2.75H8.17a1.81,1.81,0,0,0-1.81,1.81V27.64a1.81,1.81,0,0,0,1.81,1.81H21.83a1.81,1.81,0,0,0,1.81-1.81V13.58A1.81,1.81,0,0,0,21.83,11.77Zm-11,1.8A1.61,1.61,0,0,1,12,12a2.13,2.13,0,0,0,1.46-1.46,1.61,1.61,0,0,1,3.09,0A2.12,2.12,0,0,0,18,12a1.61,1.61,0,0,1,1.16,1.54v.75H10.83ZM22.58,27.64a.75.75,0,0,1-.75.75H8.17a.75.75,0,0,1-.75-.75V13.58a.75.75,0,0,1,.75-.75H9.88a2.67,2.67,0,0,0-.11.73v1.83H20.23V13.58a2.63,2.63,0,0,0-.11-.75h1.71a.75.75,0,0,1,.75.75Z"/></svg>