<svg id="Layer_1" data-name="Layer 1" xmlns="http://www.w3.org/2000/svg" viewBox="0 0 30 318"><defs><style>.cls-1{fill:#757575;}.cls-2{fill:#4a4a4a;}</style></defs><title>nav-organisation</title><path class="cls-1" d="M27.17,17.81h0L23.8,11.14a1.78,1.78,0,0,0-1.6-1h-.37V9.81a.69.69,0,0,0-.68-.68H10.52a.69.69,0,0,0-.68.68v.35H9.47a1.78,1.78,0,0,0-1.6,1L4.61,17.58l0,.09a1.75,1.75,0,0,0-.2.81v6.81a1.77,1.77,0,0,0,1.77,1.77H25.53a1.77,1.77,0,0,0,1.77-1.77V18.49A1.76,1.76,0,0,0,27.17,17.81Zm-16-5.92v-1.4h9.26v1.4Zm-1,2.77v-1.4H21.48v1.4Zm-.36-2.77H9.51a.68.68,0,0,0-.47.19l.14-.28h0a.32.32,0,0,1,.29-.18h.37Zm-1,.68v2.08H8.53a.69.69,0,0,0-.68.68v1.37H6.69l2.14-4.22A.76.76,0,0,0,8.82,12.57Zm13.63,4.14h-2a1.25,1.25,0,0,0-1.14.74l-.57,1.26H13l-.57-1.26a1.25,1.25,0,0,0-1.14-.74h-2V16H22.45ZM11.69,19.44a1.25,1.25,0,0,0,1.14.74h6A1.26,1.26,0,0,0,20,19.44l.57-1.26h5a.31.31,0,0,1,.31.31v6.81a.31.31,0,0,1-.31.31H6.14a.31.31,0,0,1-.31-.31V18.49a.31.31,0,0,1,.31-.31h5Zm12.13-2.73V15.34a.69.69,0,0,0-.68-.68h-.29V12.57a.75.75,0,0,0,0-.08L25,16.71Zm-1.66-4.83h-.33v-.27h.37a.32.32,0,0,1,.29.18l.14.28A.68.68,0,0,0,22.16,11.89Z"/><rect class="cls-1" x="12.68" y="21.46" width="6.3" height="2.87" rx="0.68" ry="0.68"/><path class="cls-2" d="M24,298.24h0l-3.37-6.67a1.78,1.78,0,0,0-1.6-1h-.37v-.35a.69.69,0,0,0-.68-.68H7.37a.69.69,0,0,0-.68.68v.35H6.32a1.78,1.78,0,0,0-1.6,1L1.46,298l0,.09a1.75,1.75,0,0,0-.2.81v6.81A1.77,1.77,0,0,0,3,307.5H22.38a1.77,1.77,0,0,0,1.77-1.77v-6.81A1.76,1.76,0,0,0,24,298.24Zm-8.18,4.32v1.52a.68.68,0,0,1-.68.68H10.21a.68.68,0,0,1-.68-.68v-1.52a.68.68,0,0,1,.68-.68h4.95A.68.68,0,0,1,15.83,302.57ZM8.05,290.92h9.26v1.4H8.05Zm-1,2.77H18.33v1.4H7Zm12.26,2.77v.69h-2a1.25,1.25,0,0,0-1.14.74l-.57,1.26H9.83l-.57-1.26a1.25,1.25,0,0,0-1.14-.74h-2v-.69Z"/></svg>