<svg id="Layer_1" data-name="Layer 1" xmlns="http://www.w3.org/2000/svg" viewBox="0 0 30 318"><defs><style>.cls-1{fill:#757575;}.cls-2{fill:#4a4a4a;}</style></defs><title>nav-profile</title><path class="cls-1" d="M19.31,19.79h0a.88.88,0,1,0,0,1.76h0a4.15,4.15,0,0,1,4.15,4.12.41.41,0,0,1-.38.4H6.69a.41.41,0,0,1-.39-.38,4.15,4.15,0,0,1,4.14-4.15.88.88,0,0,0,0-1.76h0a5.89,5.89,0,0,0-5.89,5.93,2.14,2.14,0,0,0,2.14,2.13H23a2.17,2.17,0,0,0,2.14-2.13A5.91,5.91,0,0,0,19.31,19.79Z"/><path class="cls-1" d="M14.86,21.55c3.26,0,5.91-3.22,5.91-7.17s-2.65-7.17-5.92-7.17a5.54,5.54,0,0,0-4.28,2.14,8.5,8.5,0,0,0-1.62,5C9,18.27,11.65,21.55,14.86,21.55ZM10.7,14.38c0-3,1.87-5.41,4.16-5.41S19,11.39,19,14.38s-1.86,5.41-4.15,5.41S10.7,17.36,10.7,14.38Z"/><path class="cls-2" d="M19.31,300.78h0a.88.88,0,1,0,0,1.76h0a4.15,4.15,0,0,1,4.15,4.12.41.41,0,0,1-.38.4H6.69a.41.41,0,0,1-.39-.38,4.15,4.15,0,0,1,4.14-4.15.88.88,0,1,0,0-1.76h0a5.89,5.89,0,0,0-5.89,5.93,2.14,2.14,0,0,0,2.14,2.13H23a2.17,2.17,0,0,0,2.14-2.13A5.91,5.91,0,0,0,19.31,300.78Z"/><path class="cls-2" d="M14.86,302.54c3.26,0,5.91-3.22,5.91-7.17s-2.65-7.17-5.92-7.17a5.54,5.54,0,0,0-4.28,2.14,8.5,8.5,0,0,0-1.62,5C9,299.26,11.65,302.54,14.86,302.54Zm-4.16-7.17c0-3,1.87-5.41,4.16-5.41S19,292.38,19,295.37s-1.86,5.41-4.15,5.41S10.7,298.35,10.7,295.37Z"/></svg>