<svg id="Layer_1" data-name="Layer 1" xmlns="http://www.w3.org/2000/svg" viewBox="0 0 30 318"><defs><style>.cls-1{fill:#757575;}.cls-2{fill:#4a4a4a;}</style></defs><title>nav-home</title><path class="cls-1" d="M6,19.66v8.61a.49.49,0,0,0,.49.53h5.93V23.93a.69.69,0,0,1,.7-.8h2.46a.76.76,0,0,1,.86.8v4.85h5.8a.61.61,0,0,0,.63-.66V19.66l-8.18-7.27Z"/><path class="cls-1" d="M14.72,8l-12,10.53s.74,1.36,2.35,0l9.61-8.13,9,8.08c1.86,1.34,2.56,0,2.56,0Z"/><polygon class="cls-1" points="23.51 15.11 23.51 10.34 21.2 10.34 21.2 13.15 23.51 15.11"/><path class="cls-2" d="M6,299.53v8.61a.49.49,0,0,0,.49.53h5.93V303.8a.69.69,0,0,1,.7-.8h2.46a.76.76,0,0,1,.86.8v4.85h5.8a.61.61,0,0,0,.63-.66v-8.46l-8.18-7.27Z"/><path class="cls-2" d="M14.72,287.82l-12,10.53s.74,1.36,2.35,0l9.61-8.13,9,8.08c1.86,1.34,2.56,0,2.56,0Z"/><polygon class="cls-2" points="23.51 294.97 23.51 290.2 21.2 290.2 21.2 293.01 23.51 294.97"/></svg>