<svg id="Layer_1" data-name="Layer 1" xmlns="http://www.w3.org/2000/svg" viewBox="0 0 30 318"><defs><style>.cls-1{fill:#4a4a4a;}.cls-2{fill:#757575;}</style></defs><title>nav-calendar</title><path class="cls-1" d="M12.18,300.33a.47.47,0,0,0-.47-.47H10.06a.47.47,0,0,0-.47.47V302a.47.47,0,0,0,.47.47h1.65a.47.47,0,0,0,.47-.47Zm0,0"/><path class="cls-1" d="M16.29,300.33a.47.47,0,0,0-.47-.47H14.18a.47.47,0,0,0-.47.47V302a.47.47,0,0,0,.47.47h1.65a.47.47,0,0,0,.47-.47Zm0,0"/><path class="cls-1" d="M20.41,300.33a.47.47,0,0,0-.47-.47H18.29a.47.47,0,0,0-.47.47V302a.47.47,0,0,0,.47.47h1.65a.47.47,0,0,0,.47-.47Zm0,0"/><path class="cls-1" d="M12.18,304.44a.47.47,0,0,0-.47-.47H10.06a.47.47,0,0,0-.47.47v1.65a.47.47,0,0,0,.47.47h1.65a.47.47,0,0,0,.47-.47Zm0,0"/><path class="cls-1" d="M16.29,304.44a.47.47,0,0,0-.47-.47H14.18a.47.47,0,0,0-.47.47v1.65a.47.47,0,0,0,.47.47h1.65a.47.47,0,0,0,.47-.47Zm0,0"/><path class="cls-1" d="M20.41,304.44a.47.47,0,0,0-.47-.47H18.29a.47.47,0,0,0-.47.47v1.65a.47.47,0,0,0,.47.47h1.65a.47.47,0,0,0,.47-.47Zm0,0"/><path class="cls-1" d="M23.35,291.18v2.51a2.05,2.05,0,0,1-2.06,2.05H20a2.06,2.06,0,0,1-2.07-2.05v-2.52H12.07v2.52A2.06,2.06,0,0,1,10,295.74H8.71a2.05,2.05,0,0,1-2.06-2.05v-2.51A1.87,1.87,0,0,0,4.84,293v14.73a1.87,1.87,0,0,0,1.86,1.87H23.3a1.87,1.87,0,0,0,1.86-1.87V293a1.87,1.87,0,0,0-1.81-1.86Zm-.6,15.68a.81.81,0,0,1-.81.81H8a.81.81,0,0,1-.81-.81v-7.61a.81.81,0,0,1,.81-.81H21.94a.81.81,0,0,1,.81.81Zm0,0"/><path class="cls-1" d="M8.7,294.39H10a.71.71,0,0,0,.71-.71v-4.12a.71.71,0,0,0-.71-.71H8.7a.71.71,0,0,0-.71.71v4.12a.71.71,0,0,0,.71.71Zm0,0"/><path class="cls-1" d="M20,294.39h1.28a.71.71,0,0,0,.71-.71v-4.12a.71.71,0,0,0-.71-.71H20a.71.71,0,0,0-.71.71v4.12a.71.71,0,0,0,.71.71Zm0,0"/><path class="cls-2" d="M12.18,18.93a.47.47,0,0,0-.47-.47H10.06a.47.47,0,0,0-.47.47v1.65a.47.47,0,0,0,.47.47h1.65a.47.47,0,0,0,.47-.47Zm0,0"/><path class="cls-2" d="M16.29,18.93a.47.47,0,0,0-.47-.47H14.18a.47.47,0,0,0-.47.47v1.65a.47.47,0,0,0,.47.47h1.65a.47.47,0,0,0,.47-.47Zm0,0"/><path class="cls-2" d="M20.41,18.93a.47.47,0,0,0-.47-.47H18.29a.47.47,0,0,0-.47.47v1.65a.47.47,0,0,0,.47.47h1.65a.47.47,0,0,0,.47-.47Zm0,0"/><path class="cls-2" d="M12.18,23a.47.47,0,0,0-.47-.47H10.06a.47.47,0,0,0-.47.47v1.65a.47.47,0,0,0,.47.47h1.65a.47.47,0,0,0,.47-.47Zm0,0"/><path class="cls-2" d="M16.29,23a.47.47,0,0,0-.47-.47H14.18a.47.47,0,0,0-.47.47v1.65a.47.47,0,0,0,.47.47h1.65a.47.47,0,0,0,.47-.47Zm0,0"/><path class="cls-2" d="M20.41,23a.47.47,0,0,0-.47-.47H18.29a.47.47,0,0,0-.47.47v1.65a.47.47,0,0,0,.47.47h1.65a.47.47,0,0,0,.47-.47Zm0,0"/><path class="cls-2" d="M23.35,9.78v2.51a2.05,2.05,0,0,1-2.06,2.05H20a2.06,2.06,0,0,1-2.07-2.05V9.77H12.07v2.52A2.06,2.06,0,0,1,10,14.34H8.71a2.05,2.05,0,0,1-2.06-2.05V9.78a1.87,1.87,0,0,0-1.81,1.86V26.37A1.87,1.87,0,0,0,6.7,28.25H23.3a1.87,1.87,0,0,0,1.86-1.87V11.64a1.87,1.87,0,0,0-1.81-1.86Zm-.6,15.68a.81.81,0,0,1-.81.81H8a.81.81,0,0,1-.81-.81V17.85A.81.81,0,0,1,8,17H21.94a.81.81,0,0,1,.81.81Zm0,0"/><path class="cls-2" d="M8.7,13H10a.71.71,0,0,0,.71-.71V8.17A.71.71,0,0,0,10,7.46H8.7A.71.71,0,0,0,8,8.17v4.12A.71.71,0,0,0,8.7,13Zm0,0"/><path class="cls-2" d="M20,13h1.28a.71.71,0,0,0,.71-.71V8.17a.71.71,0,0,0-.71-.71H20a.71.71,0,0,0-.71.71v4.12A.71.71,0,0,0,20,13Zm0,0"/></svg>