<svg id="Layer_1" data-name="Layer 1" xmlns="http://www.w3.org/2000/svg" viewBox="0 0 30 318"><defs><style>.cls-1{fill:#757575;}.cls-2{fill:#4a4a4a;}</style></defs><title>nav-reports</title><path class="cls-1" d="M24.87,24.36H8.64V8.06a.79.79,0,0,0-1.59,0V24.36H4.79a.79.79,0,0,0,0,1.59H7.06v2.18a.79.79,0,1,0,1.59,0V26H24.87a.77.77,0,0,0,.79-.79A.79.79,0,0,0,24.87,24.36Z"/><path class="cls-1" d="M10.17,18.42h0a1,1,0,0,0,.7-.36l5-5.35L20,17.27l-1.4,1.48-2.29-2.88a1,1,0,0,0-.71-.34,1.07,1.07,0,0,0-.76.3L9.42,21.17a1,1,0,0,0,0,1.43,1.05,1.05,0,0,0,.72.3,1,1,0,0,0,.71-.3L15.51,18,17.82,21a1,1,0,0,0,1.49,0l2.11-2.21,1.88,2.05a1,1,0,0,0,1.44,0,1.06,1.06,0,0,0,.06-1.42l-2-2.14,1.94-2a1,1,0,1,0-1.45-1.42l-1.85,2-4.89-5.24a1.05,1.05,0,0,0-.72-.3,1,1,0,0,0-.73.31L9.38,16.69a1,1,0,0,0-.3.75.94.94,0,0,0,.34.68A1,1,0,0,0,10.17,18.42Z"/><path class="cls-2" d="M24.87,304.75H8.64V288.44a.79.79,0,1,0-1.59,0v16.31H4.79a.79.79,0,0,0,0,1.59H7.06v2.18a.79.79,0,1,0,1.59,0v-2.18H24.87a.77.77,0,0,0,.79-.79A.79.79,0,0,0,24.87,304.75Z"/><path class="cls-2" d="M10.17,298.8h0a1,1,0,0,0,.7-.36l5-5.35,4.2,4.56-1.4,1.48-2.29-2.88a1,1,0,0,0-.71-.34,1.07,1.07,0,0,0-.76.3l-5.43,5.34a1,1,0,0,0,0,1.43,1.05,1.05,0,0,0,.72.3,1,1,0,0,0,.71-.3l4.66-4.58,2.31,2.94a1,1,0,0,0,1.49,0l2.11-2.21,1.88,2.05a1,1,0,0,0,1.44,0,1.06,1.06,0,0,0,.06-1.42l-2-2.14,1.94-2a1,1,0,1,0-1.45-1.42l-1.85,2-4.89-5.24a1.05,1.05,0,0,0-.72-.3,1,1,0,0,0-.73.31l-5.75,6.14a1,1,0,0,0-.3.75.94.94,0,0,0,.34.68A1,1,0,0,0,10.17,298.8Z"/></svg>