<svg id="Layer_1" data-name="Layer 1" xmlns="http://www.w3.org/2000/svg" viewBox="0 0 30 318"><defs><style>.cls-1{fill:#757575;}.cls-2{fill:none;stroke:#fff;stroke-linecap:round;stroke-linejoin:round;stroke-width:0;}.cls-3{fill:#4a4a4a;}</style></defs><title>nav-access</title><ellipse class="cls-1" cx="23.41" cy="14.52" rx="2.71" ry="3.29"/><path class="cls-1" d="M28.52,22.69c-.05-3.16-.47-4.06-3.63-4.63a1.88,1.88,0,0,1-1.48.57,1.9,1.9,0,0,1-1.48-.57,9.54,9.54,0,0,0-1.67.43c2.7,1,3.43,2.7,3.6,6.17,3.95-.1,4.66-1.5,4.66-1.5v-.47Z"/><ellipse class="cls-1" cx="6.53" cy="14.52" rx="2.71" ry="3.29"/><path class="cls-1" d="M9.68,18.49A9.41,9.41,0,0,0,8,18.06a1.91,1.91,0,0,1-1.49.57,1.9,1.9,0,0,1-1.48-.57c-3.12.56-3.56,1.45-3.62,4.53,0,.25,0,.26,0,.23a2.66,2.66,0,0,1,0,.34s.7,1.4,4.65,1.5C6.25,21.18,7,19.5,9.68,18.49Z"/><path class="cls-1" d="M15,17.36c2.19,0,4-2.21,4-4.93,0-3-.66-4.93-4-4.93s-4,1.89-4,4.93C11,15.15,12.79,17.36,15,17.36Z"/><path class="cls-1" d="M17.59,18.81a3.87,3.87,0,0,1-2.62.9,3.86,3.86,0,0,1-2.61-.9c-4.68.89-5.23,2.24-5.31,7,0,.13,0,.25,0,.37H7v.41c.3.38,2,2.15,7.94,2.15S22.6,27,22.91,26.54v-.27h0c0-.11,0-.22,0-.34C22.83,21,22.32,19.71,17.59,18.81Z"/><line class="cls-2" x1="22.91" y1="26.27" x2="22.92" y2="26.27"/><ellipse class="cls-3" cx="23.41" cy="294.93" rx="2.71" ry="3.29"/><path class="cls-3" d="M28.52,303.1c-.05-3.16-.47-4.06-3.63-4.63a1.88,1.88,0,0,1-1.48.57,1.9,1.9,0,0,1-1.48-.57,9.54,9.54,0,0,0-1.67.43c2.7,1,3.43,2.7,3.6,6.17,3.95-.1,4.66-1.5,4.66-1.5v-.47Z"/><ellipse class="cls-3" cx="6.53" cy="294.93" rx="2.71" ry="3.29"/><path class="cls-3" d="M9.68,298.9A9.41,9.41,0,0,0,8,298.47a1.91,1.91,0,0,1-1.49.57,1.9,1.9,0,0,1-1.48-.57c-3.12.56-3.56,1.45-3.62,4.53,0,.25,0,.26,0,.23a2.66,2.66,0,0,1,0,.34s.7,1.4,4.65,1.5C6.25,301.59,7,299.91,9.68,298.9Z"/><path class="cls-3" d="M15,297.77c2.19,0,4-2.21,4-4.93,0-3-.66-4.93-4-4.93s-4,1.89-4,4.93C11,295.56,12.79,297.77,15,297.77Z"/><path class="cls-3" d="M17.59,299.22a3.87,3.87,0,0,1-2.62.9,3.86,3.86,0,0,1-2.61-.9c-4.68.89-5.23,2.24-5.31,7,0,.13,0,.25,0,.37H7V307c.3.38,2,2.15,7.94,2.15s7.63-1.75,7.94-2.16v-.27h0c0-.11,0-.22,0-.34C22.83,301.42,22.32,300.12,17.59,299.22Z"/><line class="cls-3" x1="22.91" y1="306.68" x2="22.92" y2="306.68"/></svg>