<svg id="Layer_1" data-name="Layer 1" xmlns="http://www.w3.org/2000/svg" viewBox="0 0 30 318"><defs><style>.cls-1{fill:#4a4a4a;}.cls-2{fill:#757575;}</style></defs><title>nav-phone</title><path class="cls-1" d="M19.41,288.71H10.59a1.53,1.53,0,0,0-1.52,1.52v17.89a1.52,1.52,0,0,0,1.52,1.52h8.81a1.52,1.52,0,0,0,1.52-1.52V290.23a1.53,1.53,0,0,0-1.52-1.52Zm-6.58.93h4.35c.11,0,.2.16.2.37s-.09.37-.2.37H12.83c-.11,0-.2-.16-.2-.37s.09-.37.2-.37ZM15,308.14a1,1,0,1,1,1-1,1,1,0,0,1-1,1Zm4.78-3.33H10.21V291.28h9.57Zm0,0"/><path class="cls-2" d="M19.41,7.34H10.59A1.53,1.53,0,0,0,9.07,8.86V26.75a1.52,1.52,0,0,0,1.52,1.52h8.81a1.52,1.52,0,0,0,1.52-1.52V8.86a1.53,1.53,0,0,0-1.52-1.52Zm-6.58.93h4.35c.11,0,.2.16.2.37s-.09.37-.2.37H12.83c-.11,0-.2-.16-.2-.37s.09-.37.2-.37ZM15,26.77a1,1,0,1,1,1-1,1,1,0,0,1-1,1Zm4.78-3.33H10.21V9.91h9.57Zm0,0"/></svg>