<svg id="Layer_1" data-name="Layer 1" xmlns="http://www.w3.org/2000/svg" viewBox="0 0 30 318"><defs><style>.cls-1{fill:#757575;}.cls-2{fill:#4a4a4a;}</style></defs><title>nav-collections</title><path class="cls-1" d="M14.56,7.58c-4.43,0-9.2,1.33-9.2,4.27V24.33c0,2.94,4.77,4.28,9.2,4.28s9.2-1.34,9.2-4.28V11.85C23.76,8.91,19,7.58,14.56,7.58Zm7.89,16.76c0,1.63-3.53,3-7.89,3s-7.88-1.33-7.88-3V21.88C8,23.28,11.3,24,14.56,24s6.53-.73,7.89-2.13Zm0-3.94h0v0c0,1.62-3.53,2.94-7.89,2.94S6.67,22,6.67,20.41V17.94c1.36,1.4,4.63,2.13,7.88,2.13s6.53-.73,7.89-2.13Zm0-3.94h0v0c0,1.62-3.53,2.94-7.89,2.94s-7.88-1.31-7.88-2.94V14.19c1.72,1.31,4.88,1.93,7.88,1.93s6.16-.62,7.89-1.93Zm-7.89-1.64c-4.35,0-7.88-1.33-7.88-3s3.53-3,7.88-3,7.89,1.32,7.89,3S18.91,14.81,14.56,14.81Z"/><circle class="cls-1" cx="20.47" cy="24.67" r="0.66"/><circle class="cls-1" cx="20.47" cy="20.72" r="0.66"/><circle class="cls-1" cx="20.47" cy="16.78" r="0.66"/><path class="cls-2" d="M14,288c-4.43,0-9.2,1.33-9.2,4.27v12.49c0,2.94,4.77,4.28,9.2,4.28s9.2-1.34,9.2-4.28V292.28C23.2,289.35,18.43,288,14,288Zm5.91,17.75a.66.66,0,1,1,.66-.66A.66.66,0,0,1,19.91,305.76Zm-.65-8.55a.66.66,0,1,1,.65.66A.66.66,0,0,1,19.26,297.21Zm0,3.94a.66.66,0,1,1,.65.66A.66.66,0,0,1,19.26,301.16ZM14,295.24c-4.35,0-7.88-1.33-7.88-3s3.53-3,7.88-3,7.89,1.32,7.89,3S18.35,295.24,14,295.24Z"/></svg>