<svg id="Layer_1" data-name="Layer 1" xmlns="http://www.w3.org/2000/svg" viewBox="0 0 30 318"><defs><style>.cls-1{fill:#757575;}.cls-2{fill:#4a4a4a;}</style></defs><title>nav-checklist</title><path class="cls-1" d="M23.21,9.52H19.27V8.28a1,1,0,0,0-1-1H11.75a1,1,0,0,0-1,1v4.1a1,1,0,0,0,1,1h4.81a1,1,0,0,0,0-2H12.77V9.3h4.47v1.24a1,1,0,0,0,1,1H22.2V26.89H7.8V11.56h1a1,1,0,0,0,0-2h-2a1,1,0,0,0-1,1V27.91a1,1,0,0,0,1,1H23.21a1,1,0,0,0,1-1V10.54A1,1,0,0,0,23.21,9.52Z"/><path class="cls-1" d="M13.85,22.61a1,1,0,0,0,.72-.3l4.18-4.15a1,1,0,0,0,.3-.71,1,1,0,0,0-.29-.72,1,1,0,0,0-.72-.31h0a1,1,0,0,0-.72.3l-3.46,3.43L12.7,19a1,1,0,0,0-1.75.71,1.06,1.06,0,0,0,.3.73l1.88,1.89A1,1,0,0,0,13.85,22.61Z"/><path class="cls-2" d="M23.21,289.91H19.27v-1.24a1,1,0,0,0-1-1H11.75a1,1,0,0,0-1,1v4.09a1,1,0,0,0,1,1h4.81a1,1,0,1,0,0-2H12.77v-2.07h4.47v1.25a1,1,0,0,0,1,1H22.2v15.34H7.8V291.94h1a1,1,0,1,0,0-2h-2a1,1,0,0,0-1,1v17.36a1,1,0,0,0,1,1H23.21a1,1,0,0,0,1-1V290.93A1,1,0,0,0,23.21,289.91Z"/><path class="cls-2" d="M13.85,303a1,1,0,0,0,.72-.29l4.18-4.15a1,1,0,0,0,.3-.72,1,1,0,0,0-1-1h0a1,1,0,0,0-.72.29l-3.46,3.44-1.16-1.17a1,1,0,1,0-1.45,1.43l1.88,1.89A1,1,0,0,0,13.85,303Z"/></svg>