<?xml version="1.0" encoding="utf-8"?>
<!-- Generator: Adobe Illustrator 22.0.1, SVG Export Plug-In . SVG Version: 6.00 Build 0)  -->
<svg version="1.1" id="Layer_1" xmlns="http://www.w3.org/2000/svg" xmlns:xlink="http://www.w3.org/1999/xlink" x="0px" y="0px"
	 viewBox="0 0 21.2 145.7" style="enable-background:new 0 0 21.2 145.7;" xml:space="preserve">
<style type="text/css">
	.st0{fill:#FFFFFF;}
</style>
<title>sprite-inbox</title>
<g>
	<path class="st0" d="M10.5,18c0.9,0,1.6-0.7,1.6-1.6H8.9C8.9,17.3,9.6,18,10.5,18z"/>
	<path class="st0" d="M16.6,12.9V7.8C16.6,5,14.6,2.7,12,2V1.4C12,0.6,11.3,0,10.6,0C9.9,0,9.2,0.6,9.2,1.4V2C6.6,2.7,4.6,5,4.6,7.8
		v5.1l-1.8,1.8v0.9h15.6v-0.9L16.6,12.9z M5.5,14.1l0.2-0.2c0.3-0.3,0.4-0.7,0.4-1.1V7.8c0-2.1,1.4-3.8,3.4-4.3
		c0.1,0,0.2-0.1,0.2-0.1c0.3-0.1,0.5-0.1,0.8-0.1c0.3,0,0.5,0,0.8,0.1c0.1,0,0.2,0.1,0.2,0.1c2.1,0.5,3.4,2.2,3.4,4.3v5.1
		c0,0.4,0.2,0.8,0.4,1.1l0.2,0.2H5.5z"/>
</g>
<g>
	<path d="M10.5,144.7c0.9,0,1.6-0.7,1.6-1.6H8.9C8.9,144,9.6,144.7,10.5,144.7z"/>
	<path d="M16.6,139.6v-5.1c0-2.9-1.9-5.1-4.6-5.8v-0.6c0-0.7-0.6-1.4-1.4-1.4c-0.7,0-1.4,0.6-1.4,1.4v0.6c-2.7,0.6-4.6,2.9-4.6,5.8
		v5.1l-1.8,1.8v0.9h15.6v-0.9L16.6,139.6z M5.5,140.8l0.2-0.2c0.3-0.3,0.4-0.7,0.4-1.1v-5.1c0-2.1,1.4-3.8,3.4-4.3
		c0.1,0,0.2-0.1,0.2-0.1c0.3-0.1,0.5-0.1,0.8-0.1c0.3,0,0.5,0,0.8,0.1c0.1,0,0.2,0.1,0.2,0.1c2.1,0.5,3.4,2.2,3.4,4.3v5.1
		c0,0.4,0.2,0.8,0.4,1.1l0.2,0.2H5.5z"/>
</g>
</svg>
