<?xml version="1.0" encoding="utf-8"?>
<!-- Generator: Adobe Illustrator 22.0.1, SVG Export Plug-In . SVG Version: 6.00 Build 0)  -->
<svg version="1.1" id="Layer_1" xmlns="http://www.w3.org/2000/svg" xmlns:xlink="http://www.w3.org/1999/xlink" x="0px" y="0px"
	 viewBox="0 0 27.9 145.4" style="enable-background:new 0 0 27.9 145.4;" xml:space="preserve">
<style type="text/css">
	.st0{fill:#FFFFFF;}
</style>
<title>sprite-signing</title>
<g>
	<path class="st0" d="M23.5,8.6l-2.1-1.5c-0.2-0.2-0.5-0.2-0.8-0.1c-0.3,0.1-0.4,0.4-0.4,0.7v2.9c0,0.3,0.2,0.5,0.4,0.7
		c0.1,0.1,0.2,0.1,0.3,0.1c0.2,0,0.3,0,0.4-0.1l2.1-1.5c0.2-0.1,0.3-0.4,0.3-0.6C23.8,8.9,23.7,8.7,23.5,8.6z"/>
	<path class="st0" d="M20.6,12.6c-0.2-0.1-0.4-0.1-0.6-0.1c-0.2,0.1-0.4,0.2-0.5,0.3c-1.3,2.3-3.8,3.8-6.5,3.8
		c-4.1,0-7.5-3.4-7.5-7.5C5.6,5,9,1.7,13.1,1.7c2.7,0,5.2,1.4,6.5,3.8c0.2,0.4,0.7,0.5,1,0.3c0.4-0.2,0.5-0.7,0.3-1
		c-1.6-2.8-4.6-4.5-7.8-4.5c-5,0-9,4-9,9c0,5,4,9,9,9c3.2,0,6.2-1.7,7.8-4.5c0.1-0.2,0.1-0.4,0.1-0.6C20.9,12.9,20.8,12.7,20.6,12.6
		z"/>
	<path class="st0" d="M9.7,9.2c0,0.4,0.3,0.8,0.8,0.8h9V8.4h-9C10.1,8.4,9.7,8.8,9.7,9.2z"/>
</g>
<title>sprite-signing</title>
<g>
	<path d="M23.5,135.7l-2.1-1.5c-0.2-0.2-0.5-0.2-0.8-0.1c-0.3,0.1-0.4,0.4-0.4,0.7v2.9c0,0.3,0.2,0.5,0.4,0.7
		c0.1,0.1,0.2,0.1,0.3,0.1c0.2,0,0.3,0,0.4-0.1l2.1-1.5c0.2-0.1,0.3-0.4,0.3-0.6C23.8,136,23.7,135.8,23.5,135.7z"/>
	<path d="M20.6,139.8c-0.2-0.1-0.4-0.1-0.6-0.1c-0.2,0.1-0.4,0.2-0.5,0.3c-1.3,2.3-3.8,3.8-6.5,3.8c-4.1,0-7.5-3.4-7.5-7.5
		c0-4.1,3.4-7.5,7.5-7.5c2.7,0,5.2,1.4,6.5,3.8c0.2,0.4,0.7,0.5,1,0.3c0.4-0.2,0.5-0.7,0.3-1c-1.6-2.8-4.6-4.5-7.8-4.5c-5,0-9,4-9,9
		c0,5,4,9,9,9c3.2,0,6.2-1.7,7.8-4.5c0.1-0.2,0.1-0.4,0.1-0.6C20.9,140,20.8,139.9,20.6,139.8z"/>
	<path d="M9.7,136.3c0,0.4,0.3,0.8,0.8,0.8h9v-1.5h-9C10.1,135.5,9.7,135.9,9.7,136.3z"/>
</g>
</svg>
