<?xml version="1.0" encoding="utf-8"?>
<!-- Generator: Adobe Illustrator 22.0.1, SVG Export Plug-In . SVG Version: 6.00 Build 0)  -->
<svg version="1.1" id="Layer_1" xmlns="http://www.w3.org/2000/svg" xmlns:xlink="http://www.w3.org/1999/xlink" x="0px" y="0px"
	 viewBox="0 0 25.6 145.8" style="enable-background:new 0 0 25.6 145.8;" xml:space="preserve">
<style type="text/css">
	.st0{fill:#FFFFFF;}
</style>
<title>sprite-profile</title>
<g>
	<path class="st0" d="M16.7,11.8L16.7,11.8c-0.5,0-0.8,0.3-0.8,0.8c0,0.4,0.3,0.8,0.8,0.8c0,0,0,0,0,0c1,0,1.9,0.4,2.5,1.1
		c0.7,0.7,1.1,1.6,1.1,2.5c0,0.2-0.2,0.3-0.3,0.3l-14.2,0c-0.2,0-0.3-0.2-0.3-0.3c0-1,0.4-1.9,1.1-2.6s1.6-1.1,2.6-1.1
		c0.4,0,0.8-0.3,0.8-0.8c0-0.4-0.3-0.8-0.8-0.8c0,0,0,0,0,0c-1.4,0-2.7,0.5-3.6,1.5c-1,1-1.5,2.3-1.5,3.7c0,1,0.8,1.8,1.9,1.9h14.3
		c1,0,1.8-0.8,1.9-1.9C21.8,14.1,19.5,11.8,16.7,11.8z"/>
	<path class="st0" d="M12.8,13.3c2.8,0,5.2-2.8,5.2-6.3c0-3.4-2.3-6.3-5.2-6.3c-1.5,0-2.8,0.7-3.7,1.9C8.1,4,7.6,5.5,7.6,7.1
		C7.6,10.5,10,13.3,12.8,13.3z M9.2,7.1c0-2.6,1.6-4.7,3.6-4.7s3.6,2.1,3.6,4.7c0,2.6-1.6,4.7-3.6,4.7S9.2,9.7,9.2,7.1z"/>
</g>
<g>
	<path d="M16.7,138.8L16.7,138.8c-0.5,0-0.8,0.3-0.8,0.8c0,0.4,0.3,0.8,0.8,0.8c0,0,0,0,0,0c1,0,1.9,0.4,2.5,1.1
		c0.7,0.7,1.1,1.6,1.1,2.5c0,0.2-0.2,0.3-0.3,0.3l-14.2,0c-0.2,0-0.3-0.2-0.3-0.3c0-1,0.4-1.9,1.1-2.6s1.6-1.1,2.6-1.1
		c0.4,0,0.8-0.3,0.8-0.8c0-0.4-0.3-0.8-0.8-0.8c0,0,0,0,0,0c-1.4,0-2.7,0.5-3.6,1.5c-1,1-1.5,2.3-1.5,3.7c0,1,0.8,1.8,1.9,1.9h14.3
		c1,0,1.8-0.8,1.9-1.9C21.8,141.1,19.5,138.8,16.7,138.8z"/>
	<path d="M12.8,140.3c2.8,0,5.2-2.8,5.2-6.3c0-3.4-2.3-6.3-5.2-6.3c-1.5,0-2.8,0.7-3.7,1.9c-0.9,1.3-1.4,2.8-1.4,4.4
		C7.6,137.5,10,140.3,12.8,140.3z M9.2,134.1c0-2.6,1.6-4.7,3.6-4.7s3.6,2.1,3.6,4.7c0,2.6-1.6,4.7-3.6,4.7S9.2,136.7,9.2,134.1z"/>
</g>
</svg>
